<svg width="45" height="44" viewBox="0 0 45 44" fill="none" xmlns="http://www.w3.org/2000/svg">
<path d="M22 44C21.6976 44 21.4161 43.8019 21.3223 43.5099C20.2796 40.4028 19.31 38.9536 18.2882 38.9536C17.3706 38.9536 16.0569 39.9754 14.2635 42.0711C14.128 42.2275 13.9299 42.3213 13.7213 42.3213C13.6275 42.3213 13.5336 42.3005 13.4398 42.2692C13.1479 42.1441 12.981 41.8521 13.0019 41.5393C13.2521 38.818 13.0853 37.181 12.491 36.5242C12.3346 36.3573 12.0844 36.1592 11.5213 36.1592C10.6142 36.1592 9.22749 36.6493 7.27773 37.6711C7.17346 37.7232 7.05877 37.7545 6.94408 37.7545C6.7564 37.7545 6.56872 37.6815 6.43318 37.546C6.21422 37.327 6.16209 36.9829 6.30806 36.7118C7.66351 34.1156 8.10142 32.4891 7.64265 31.728C7.29858 31.1545 6.29763 30.8834 4.5981 30.8834C3.97251 30.8834 3.27393 30.9251 2.43981 30.9981C2.41896 30.9981 2.3981 30.9981 2.37725 30.9981C2.08531 30.9981 1.82464 30.8313 1.72038 30.5602C1.59526 30.2682 1.67867 29.945 1.91848 29.7365C4.18104 27.8076 5.19242 26.4209 5.01517 25.4929C4.83791 24.5649 3.34692 23.637 0.479621 22.6777C0.198104 22.5839 0 22.3024 0 22C0 21.6976 0.198104 21.4161 0.490047 21.3223C3.36777 20.3526 4.84834 19.4351 5.02559 18.5071C5.20284 17.5896 4.19147 16.2028 1.92891 14.2635C1.6891 14.055 1.61611 13.7318 1.73081 13.4398C1.8455 13.1791 2.10616 13.0019 2.38768 13.0019C2.40853 13.0019 2.42938 13.0019 2.45024 13.0019C3.27393 13.0749 3.98294 13.1166 4.60853 13.1166C6.30806 13.1166 7.30901 12.8351 7.65308 12.272C8.11185 11.5109 7.67393 9.88436 6.31848 7.28815C6.17251 7.00664 6.22464 6.67299 6.4436 6.45403C6.57915 6.31848 6.7564 6.2455 6.9545 6.2455C7.06919 6.2455 7.18389 6.27678 7.28815 6.32891C9.22749 7.35071 10.6142 7.84076 11.5318 7.84076C12.1052 7.84076 12.3555 7.65308 12.5014 7.47583C13.0957 6.81896 13.2626 5.18199 13.0123 2.46066C12.981 2.14787 13.1583 1.85592 13.4502 1.73081C13.5441 1.6891 13.6275 1.67867 13.7318 1.67867C13.9403 1.67867 14.1384 1.77251 14.2739 1.92891C16.0673 4.02464 17.381 5.04645 18.2986 5.04645C19.3204 5.04645 20.29 3.59716 21.3327 0.490047C21.4265 0.198104 21.7081 0 22.0104 0C22.3128 0 22.5943 0.198104 22.6882 0.490047C23.7308 3.59716 24.7005 5.04645 25.7223 5.04645C26.6398 5.04645 27.9536 4.02464 29.7469 1.92891C29.8825 1.77251 30.0806 1.67867 30.2891 1.67867C30.3829 1.67867 30.4768 1.69953 30.5706 1.73081C30.8626 1.85592 31.0294 2.14787 31.0085 2.46066C30.7583 5.18199 30.9251 6.81896 31.5194 7.47583C31.6758 7.64265 31.9156 7.84076 32.4891 7.84076C33.3962 7.84076 34.7829 7.35071 36.7327 6.32891C36.837 6.27678 36.9517 6.2455 37.0664 6.2455C37.254 6.2455 37.4417 6.31848 37.5773 6.45403C37.7962 6.67299 37.8483 7.01706 37.7024 7.28815C36.3469 9.88436 35.909 11.5109 36.3678 12.272C36.7118 12.8455 37.7128 13.1166 39.4123 13.1166C40.0379 13.1166 40.7365 13.0749 41.5706 13.0019C41.5915 13.0019 41.6123 13.0019 41.6332 13.0019C41.9251 13.0019 42.1754 13.1687 42.2901 13.4398C42.4152 13.7318 42.3318 14.055 42.0919 14.2635C39.8294 16.1924 38.818 17.5791 38.9953 18.5071C39.1725 19.4351 40.6635 20.363 43.5308 21.3223C43.8228 21.4161 44.0209 21.6976 44.0209 22C44.0209 22.3024 43.8228 22.5839 43.5308 22.6777C40.6531 23.6474 39.1725 24.5649 38.9953 25.4929C38.818 26.4104 39.819 27.7867 42.0607 29.7052C42.2483 29.8512 42.3526 30.0597 42.3526 30.2787C42.3526 30.6749 42.0294 30.9877 41.6436 30.9981C41.6436 30.9981 41.6436 30.9981 41.6332 30.9981C41.6019 30.9981 41.581 30.9981 41.5602 30.9981C40.7365 30.9251 40.0275 30.8834 39.4019 30.8834C37.7024 30.8834 36.7014 31.1649 36.3573 31.728C35.8986 32.4891 36.3365 34.1156 37.6919 36.7118C37.8379 36.9934 37.7858 37.327 37.5668 37.546C37.4313 37.6815 37.254 37.7545 37.0559 37.7545C36.9412 37.7545 36.8265 37.7232 36.7223 37.6711C34.7829 36.6493 33.3962 36.1592 32.4787 36.1592C31.9052 36.1592 31.655 36.3469 31.509 36.5242C30.9147 37.181 30.7479 38.818 30.9981 41.5393C31.0294 41.8521 30.8521 42.1441 30.5602 42.2692C30.4664 42.3109 30.3725 42.3213 30.2787 42.3213C30.0701 42.3213 29.872 42.2275 29.7365 42.0711C27.9431 39.9754 26.6294 38.9536 25.7118 38.9536C24.69 38.9536 23.7204 40.4028 22.6777 43.5099C22.5839 43.8019 22.3024 44 22 44Z" fill="#DFE8F0"/>
<path d="M26.9525 20.0607L26.9316 20.1441L26.8482 20.1337C25.0548 19.9981 22.9591 19.8417 20.9676 19.6853L20.7695 19.6645L20.8946 19.5081C24.9819 14.5972 26.0141 14.1488 26.1809 14.1071H26.1913H26.2018C26.3999 14.0863 26.6084 14.0758 26.8378 14.0758C27.5259 14.0758 28.2245 14.1592 28.6833 14.2322L28.8084 14.2531L28.7667 14.3678C28.3079 15.7024 27.4634 18.1943 26.9525 20.0607Z" fill="#7B99B3"/>
<path d="M7.96604 22.1877C9.13381 21.9896 9.73855 21.4683 10.2807 21.0095C10.8646 20.4986 11.4277 20.0294 12.8561 20.0294C13.0855 20.0294 13.3357 20.0398 13.5964 20.0607C17.4438 20.4152 31.9367 21.5934 32.8229 21.5934C33.3964 21.5934 34.0011 21.0408 35.0021 20.0607C35.7423 19.3412 36.4931 18.6322 36.8267 18.6114C37.567 18.6114 38.1509 18.7052 38.7765 18.9138L38.8599 18.945L38.8495 19.0285C38.7869 19.4455 38.4949 20.2796 38.2968 20.8322C37.8381 22.1251 37.64 22.7194 37.8381 23.1157C37.8485 23.1469 37.8694 23.1782 37.8902 23.2199C38.0362 23.5119 38.3594 24.1062 38.13 24.5128C37.9111 24.8986 37.2021 25.1488 36.1073 25.2322C34.9291 25.3157 31.7073 25.3678 27.7139 25.3678H27.6305L27.6096 25.2844C27.5784 25.128 27.5575 24.9924 27.5471 24.8882C27.5471 24.8673 27.5471 24.8569 27.5471 24.836C27.5471 24.8152 27.5471 24.7943 27.5367 24.7735C27.495 24.5441 27.2864 24.3773 27.057 24.3773C27.0466 24.3773 27.0362 24.3773 27.0153 24.3773C26.8694 24.3877 26.7338 24.4607 26.6504 24.5858C26.5878 24.6796 26.5566 24.7943 26.567 24.909C26.567 24.9299 26.567 24.9612 26.5774 24.9924L26.5878 25.0654C26.6191 25.3052 26.6713 25.5972 26.7651 25.9725V25.9934C27.2239 27.9119 28.3291 31.1754 28.7878 32.4891L28.8295 32.6038L28.7044 32.6247C28.2352 32.6976 27.5367 32.7811 26.8589 32.7811C26.6295 32.7811 26.421 32.7706 26.2229 32.7498H26.2125H26.2021C26.004 32.7081 25.1281 32.2702 22.0106 28.6417C20.3111 26.6607 18.7992 24.7318 18.7262 24.6484C18.6324 24.5337 18.4968 24.4607 18.3509 24.4607H18.3404C18.2258 24.4607 18.1215 24.492 18.0381 24.5649C18.0172 24.5754 17.9964 24.5962 17.9859 24.6171L17.9755 24.6275C17.9651 24.6484 17.9442 24.6588 17.9338 24.6796L17.9234 24.6901C17.913 24.7109 17.9025 24.7318 17.8921 24.7526V24.763C17.8817 24.7735 17.8817 24.8048 17.8713 24.8256V24.836C17.8608 24.8569 17.8608 24.8777 17.8608 24.8986V24.909C17.8608 24.9299 17.8608 24.9507 17.8608 24.9716C17.8608 25.0029 17.8608 25.0237 17.8713 25.0446V25.055C17.8713 25.0758 17.8817 25.0967 17.8921 25.1175V25.128L17.9547 25.2739H17.7983C13.075 25.1697 10.0722 25.0133 9.34234 24.8256C7.93476 24.4607 7.06936 23.3867 7.09021 22.8133C7.09021 22.5839 7.24661 22.3128 7.96604 22.1877Z" fill="white"/>
<path d="M10.6557 20.6758L12.3866 21.218L11.5212 22.5526L8.09082 21.8019L10.6557 20.6758Z" fill="#7B99B3"/>
<path d="M25.2422 23.0427C25.2422 23.5119 25.6175 23.8872 26.0867 23.8872C26.5559 23.8872 26.9313 23.5119 26.9313 23.0427C26.9313 22.5735 26.5559 22.1981 26.0867 22.1981C25.6175 22.1981 25.2422 22.5735 25.2422 23.0427Z" fill="#7B99B3"/>
<path d="M21.75 22.8237C21.75 23.2929 22.1254 23.6683 22.5945 23.6683C23.0637 23.6683 23.4391 23.2929 23.4391 22.8237C23.4391 22.3545 23.0637 21.9792 22.5945 21.9792C22.1254 21.9792 21.75 22.3649 21.75 22.8237Z" fill="#7B99B3"/>
<path d="M18.2461 22.6151C18.2461 23.0843 18.6214 23.4597 19.0906 23.4597C19.5598 23.4597 19.9352 23.0843 19.9352 22.6151C19.9352 22.146 19.5598 21.7706 19.0906 21.7706C18.6214 21.7706 18.2461 22.146 18.2461 22.6151Z" fill="#7B99B3"/>
<path d="M14.7539 22.4066C14.7539 22.8758 15.1293 23.2512 15.5985 23.2512C16.0677 23.2512 16.443 22.8758 16.443 22.4066C16.443 21.9374 16.0677 21.5621 15.5985 21.5621C15.1293 21.5621 14.7539 21.9374 14.7539 22.4066Z" fill="#7B99B3"/>
<path d="M26.1917 14.1071H26.1813C26.0145 14.1488 24.9718 14.5972 20.895 19.5081L20.7699 19.6645L20.968 19.6853C22.9595 19.8417 25.0448 19.9981 26.8486 20.1337L26.932 20.1441L26.9528 20.0607C27.4637 18.2047 28.3083 15.7024 28.7671 14.3782L28.8088 14.2635L28.6836 14.2427C28.2145 14.1697 27.5159 14.0863 26.8381 14.0863C26.5983 14.0863 26.3898 14.0863 26.1917 14.1071ZM27.5367 24.763C27.5367 24.7839 27.5472 24.8048 27.5472 24.8256C27.5472 24.836 27.5472 24.8569 27.5472 24.8777C27.5576 24.982 27.5784 25.1175 27.6097 25.2739L27.6306 25.3574H27.714C31.7073 25.3574 34.9291 25.3052 36.1073 25.2218C37.1917 25.1488 37.9111 24.8882 38.1301 24.5024C38.3491 24.1062 38.0363 23.5014 37.8903 23.2095C37.8694 23.1678 37.8486 23.1365 37.8382 23.1052C37.64 22.709 37.8381 22.1251 38.2969 20.8218C38.495 20.2692 38.787 19.4351 38.8495 19.018L38.86 18.9346L38.7765 18.9033C38.1509 18.6948 37.5671 18.601 36.8268 18.601C36.4931 18.6218 35.7424 19.3308 35.0021 20.0502C34.0012 21.0303 33.4069 21.5829 32.823 21.5829C31.9367 21.5829 17.4438 20.3943 13.5964 20.0502C13.3254 20.0294 13.0751 20.019 12.8562 20.019C11.4277 20.019 10.8751 20.4986 10.2808 20.9991C9.74905 21.4578 9.13388 21.9792 7.96611 22.1773C7.24668 22.3024 7.09028 22.5735 7.07986 22.782C7.059 23.3555 7.91398 24.4294 9.33199 24.7943C10.0618 24.982 13.0647 25.1488 17.7879 25.2427H17.9443L17.8818 25.0967V25.0863C17.8713 25.0654 17.8713 25.0446 17.8609 25.0237V25.0133C17.8609 24.9924 17.8505 24.9716 17.8505 24.9403C17.8505 24.9194 17.8505 24.8986 17.8505 24.8777V24.8673C17.8505 24.8465 17.8609 24.8256 17.8609 24.8047V24.7943C17.8713 24.7735 17.8713 24.7526 17.8818 24.7318V24.7213C17.8922 24.7005 17.9026 24.6796 17.913 24.6588L17.9235 24.6484C17.9339 24.6275 17.9547 24.6066 17.9652 24.5962L17.9756 24.5858C17.9964 24.5649 18.0069 24.5545 18.0277 24.5337C18.1111 24.4607 18.2154 24.4294 18.3301 24.4294H18.3405C18.4865 24.4294 18.622 24.5024 18.7159 24.6171C18.7784 24.7005 20.2903 26.6398 22.0002 28.6104C25.1282 32.2389 26.004 32.6664 26.1917 32.7185H26.2021H26.2126C26.4107 32.7393 26.6192 32.7498 26.8486 32.7498C27.5263 32.7498 28.2249 32.6664 28.6941 32.5934L28.8192 32.5725L28.7775 32.4578C28.3187 31.1441 27.2135 27.8806 26.7547 25.9621V25.9412C26.6609 25.5659 26.6088 25.2739 26.5775 25.0341L26.5671 24.9611C26.5671 24.9299 26.5566 24.909 26.5566 24.8777C26.5462 24.763 26.5775 24.6484 26.64 24.5545C26.7235 24.4294 26.859 24.3564 27.005 24.346C27.0154 24.346 27.0258 24.346 27.0467 24.346C27.2865 24.3668 27.4846 24.5337 27.5367 24.763ZM26.1083 33.7194C25.7746 33.6882 25.2637 33.4796 23.9708 32.2284C23.2514 31.5299 22.3652 30.5602 21.3225 29.3507C20.332 28.2038 19.404 27.0673 18.7889 26.3062L18.7576 26.2645H18.7054C13.2732 26.1602 9.93673 25.9934 9.07133 25.764C7.40308 25.3365 6.0372 23.9498 6.08934 22.7611C6.11019 22.3858 6.30829 21.4787 7.78886 21.2284C8.68554 21.072 9.12346 20.7071 9.62393 20.2692C10.2912 19.6957 11.0419 19.0493 12.8457 19.0493C13.1064 19.0493 13.3775 19.0597 13.6694 19.091C14.8476 19.1953 16.9121 19.3725 19.4874 19.5915H19.5396L19.5709 19.5498C24.7216 13.273 25.7329 13.1687 26.077 13.1375C26.3064 13.1166 26.5566 13.1062 26.8173 13.1062C28.1519 13.1062 29.4865 13.3877 29.549 13.4085C29.6846 13.4398 29.8097 13.5232 29.8723 13.6484C29.9453 13.7735 29.9557 13.9194 29.9036 14.055C29.8931 14.0863 28.6211 17.6834 27.9329 20.1545L27.9017 20.2796L28.0268 20.2901C29.9765 20.4465 32.3851 20.6237 32.7813 20.6341H32.8021H32.8126C33.0836 20.5507 33.6884 19.9773 34.2931 19.3829C35.3983 18.309 36.1282 17.6521 36.8059 17.6521C37.9841 17.6521 38.7348 17.8711 39.3709 18.1109C40.0173 18.3507 39.7983 19.2474 39.7358 19.5498C39.6211 20.0294 39.4126 20.6237 39.204 21.1867C39.0163 21.7185 38.7557 22.4379 38.7348 22.7194V22.7507L38.7453 22.782C38.9538 23.1886 39.4543 24.1375 38.9746 25.0029C38.5784 25.7119 37.6609 26.1185 36.1699 26.2228C34.9813 26.3062 31.9263 26.3583 27.9955 26.3583H27.86L27.8912 26.4938C28.4334 28.4853 29.4656 31.509 29.9244 32.8332C29.9765 32.9687 29.9557 33.1147 29.8931 33.2398C29.8201 33.3649 29.7054 33.4484 29.5699 33.4796C29.5178 33.4901 28.1832 33.782 26.8381 33.782C26.5879 33.7507 26.3377 33.7403 26.1083 33.7194Z" fill="#003354"/>
</svg>
