<svg width="173" height="94" viewBox="0 0 173 94" fill="none" xmlns="http://www.w3.org/2000/svg">
<path d="M113.61 60H60.39C58.5172 60 57 58.7597 57 57.2287V2.77132C57 1.24031 58.5172 0 60.39 0H113.61C115.483 0 117 1.24031 117 2.77132V57.2093C117 58.7403 115.483 60 113.61 60Z" fill="#0D911D"/>
<path d="M89.7272 29.814H84.0166V49.1861H89.7272V29.814Z" fill="#8AB523"/>
<path d="M83.6436 26.0582C83.6436 24.345 83.8193 22.8295 84.1487 21.5336C84.5001 20.2377 84.9394 19.1395 85.4885 18.2171C86.0596 17.2507 86.7185 16.46 87.4433 15.845C88.1901 15.208 88.9368 14.7029 89.7056 14.3075C91.4846 13.385 93.5273 12.8799 95.8115 12.814C98.0738 12.8799 100.094 13.385 101.874 14.3075C102.62 14.7029 103.367 15.208 104.07 15.845C104.817 16.4819 105.476 17.2726 106.025 18.2171C106.596 19.1395 107.057 20.2597 107.408 21.5336C107.782 22.8295 107.979 24.323 107.979 26.0582C107.979 27.7713 107.782 29.2868 107.408 30.5827C107.057 31.8786 106.596 32.9768 106.025 33.8992C105.476 34.8217 104.839 35.6124 104.07 36.2274C103.345 36.8204 102.62 37.3256 101.874 37.7209C100.094 38.6215 98.0738 39.0827 95.8115 39.1047C93.5273 39.0607 91.4846 38.5995 89.7056 37.7209C88.9588 37.3256 88.212 36.8204 87.4433 36.2274C86.7185 35.5905 86.0815 34.8217 85.4885 33.8992C84.9394 32.9768 84.5001 31.8566 84.1487 30.5827C83.8193 29.2868 83.6436 27.7713 83.6436 26.0582ZM95.8115 18.6563C94.5376 18.6563 93.5273 18.8979 92.7366 19.4031C91.9898 19.9083 91.3968 20.5233 91.0014 21.292C90.5841 22.0168 90.3206 22.8075 90.1888 23.6641C90.057 24.5207 89.9911 25.3114 89.9911 26.0362C89.9911 26.761 90.057 27.5517 90.1888 28.4083C90.3206 29.2649 90.6061 30.0775 91.0014 30.8463C91.4187 31.5711 91.9898 32.1861 92.7366 32.6912C93.5273 33.1964 94.5376 33.438 95.8115 33.438C97.0854 33.438 98.0958 33.1964 98.8425 32.6912C99.6332 32.1861 100.226 31.593 100.644 30.8463C101.061 30.0775 101.324 29.2649 101.456 28.4083C101.588 27.5517 101.654 26.761 101.654 26.0362C101.654 25.3114 101.588 24.5207 101.456 23.6641C101.324 22.8075 101.039 22.0168 100.644 21.292C100.226 20.5233 99.6332 19.9083 98.8425 19.4031C98.0738 18.8979 97.0635 18.6563 95.8115 18.6563Z" fill="#98D128"/>
<path d="M65.6328 26.0582C65.6328 24.345 65.8085 22.8295 66.138 21.5336C66.4894 20.2377 66.9287 19.1395 67.4778 18.2171C68.0488 17.2507 68.7077 16.46 69.4326 15.845C70.1793 15.208 70.9261 14.7029 71.6948 14.3075C73.4739 13.385 75.5165 12.8799 77.8008 12.814C80.063 12.8799 82.0837 13.385 83.8628 14.3075C84.6096 14.7029 85.3563 15.208 86.0592 15.845C86.8059 16.4819 87.4649 17.2726 88.014 18.2171C88.585 19.1395 89.0462 20.2597 89.3977 21.5336C89.7711 22.8295 89.9687 24.323 89.9687 26.0582C89.9687 27.7713 89.7711 29.2868 89.3977 30.5827C89.0462 31.8786 88.585 32.9768 88.014 33.8992C87.4649 34.8217 86.8279 35.6124 86.0592 36.2274C85.3344 36.8204 84.6096 37.3256 83.8628 37.7209C82.0837 38.6215 80.063 39.0827 77.8008 39.1047C75.5165 39.0607 73.4739 38.5995 71.6948 37.7209C70.9481 37.3256 70.2013 36.8204 69.4326 36.2274C68.7077 35.5905 68.0708 34.8217 67.4778 33.8992C66.9287 32.9768 66.4894 31.8566 66.138 30.5827C65.8085 29.2868 65.6328 27.7713 65.6328 26.0582ZM77.8008 18.6563C76.5269 18.6563 75.5165 18.8979 74.7258 19.4031C73.9791 19.9083 73.386 20.5233 72.9907 21.292C72.5734 22.0168 72.3098 22.8075 72.178 23.6641C72.0462 24.5207 71.9804 25.3114 71.9804 26.0362C71.9804 26.761 72.0462 27.5517 72.178 28.4083C72.3098 29.2649 72.5953 30.0775 72.9907 30.8463C73.408 31.5711 73.9791 32.1861 74.7258 32.6912C75.5165 33.1964 76.5269 33.438 77.8008 33.438C79.0747 33.438 80.085 33.1964 80.8318 32.6912C81.6225 32.1861 82.2155 31.593 82.6328 30.8463C83.0501 30.0775 83.3137 29.2649 83.4455 28.4083C83.5773 27.5517 83.6431 26.761 83.6431 26.0362C83.6431 25.3114 83.5773 24.5207 83.4455 23.6641C83.3137 22.8075 83.0282 22.0168 82.6328 21.292C82.2155 20.5233 81.6225 19.9083 80.8318 19.4031C80.063 18.8979 79.0527 18.6563 77.8008 18.6563Z" fill="white"/>
<path d="M0 81.0279C0 79.9856 0.100229 79.0736 0.300686 78.2918C0.501143 77.5101 0.761737 76.8386 1.08247 76.2773C1.42325 75.696 1.80411 75.2149 2.22507 74.8341C2.66608 74.4532 3.10709 74.1425 3.54809 73.902C4.59047 73.3408 5.78319 73.0401 7.12625 73C8.44927 73.0401 9.63197 73.3408 10.6743 73.902C11.1154 74.1425 11.5463 74.4532 11.9673 74.8341C12.4083 75.2149 12.7892 75.696 13.1099 76.2773C13.4507 76.8386 13.7213 77.5101 13.9218 78.2918C14.1423 79.0736 14.2525 79.9856 14.2525 81.0279C14.2525 82.0702 14.1423 82.9823 13.9218 83.764C13.7213 84.5458 13.4507 85.2173 13.1099 85.7785C12.7892 86.3398 12.4083 86.8108 11.9673 87.1917C11.5463 87.5525 11.1154 87.8532 10.6743 88.0937C9.63197 88.6349 8.44927 88.9155 7.12625 88.9356C5.78319 88.9155 4.59047 88.6349 3.54809 88.0937C3.10709 87.8532 2.66608 87.5525 2.22507 87.1917C1.80411 86.8108 1.42325 86.3398 1.08247 85.7785C0.761737 85.2173 0.501143 84.5458 0.300686 83.764C0.100229 82.9823 0 82.0702 0 81.0279ZM7.12625 76.5479C6.38456 76.5479 5.78319 76.6983 5.32214 76.9989C4.88113 77.2996 4.54035 77.6804 4.29981 78.1415C4.05926 78.5825 3.89889 79.0635 3.81871 79.5847C3.73853 80.1059 3.69843 80.5869 3.69843 81.0279C3.69843 81.4689 3.73853 81.95 3.81871 82.4711C3.89889 82.9923 4.05926 83.4834 4.29981 83.9444C4.54035 84.3854 4.88113 84.7562 5.32214 85.0569C5.78319 85.3576 6.38456 85.5079 7.12625 85.5079C7.86794 85.5079 8.45929 85.3576 8.9003 85.0569C9.36135 84.7562 9.71215 84.3854 9.9527 83.9444C10.1932 83.4834 10.3536 82.9923 10.4338 82.4711C10.514 81.95 10.5541 81.4689 10.5541 81.0279C10.5541 80.5869 10.514 80.1059 10.4338 79.5847C10.3536 79.0635 10.1932 78.5825 9.9527 78.1415C9.71215 77.6804 9.36135 77.2996 8.9003 76.9989C8.45929 76.6983 7.86794 76.5479 7.12625 76.5479Z" fill="#001B03"/>
<path d="M23.4995 76.5479C22.7177 76.5479 22.0963 76.6782 21.6353 76.9388C21.1742 77.1994 20.8234 77.5502 20.5829 77.9911C20.3624 78.4121 20.212 78.8932 20.1318 79.4344C20.0717 79.9555 20.0416 80.4867 20.0416 81.0279C20.0416 81.4689 20.0817 81.95 20.1619 82.4711C20.2421 82.9923 20.4025 83.4834 20.643 83.9444C20.9036 84.3854 21.2544 84.7562 21.6954 85.0569C22.1565 85.3576 22.7578 85.5079 23.4995 85.5079C24.2412 85.5079 24.8326 85.3576 25.2736 85.0569C25.7346 84.7562 26.0854 84.3854 26.326 83.9444C26.5665 83.4834 26.7269 82.9923 26.8071 82.4711C26.8872 81.95 26.9273 81.4689 26.9273 81.0279C26.9273 80.5869 26.8872 80.1059 26.8071 79.5847C26.7269 79.0635 26.5665 78.5825 26.326 78.1415C26.0854 77.6804 25.7346 77.2996 25.2736 76.9989C24.8326 76.6983 24.2412 76.5479 23.4995 76.5479ZM16.4635 81.058C16.4635 79.7952 16.5938 78.6727 16.8544 77.6905C17.115 76.6882 17.5259 75.8464 18.0872 75.1648C18.6685 74.4633 19.4002 73.9321 20.2822 73.5713C21.1642 73.1904 22.2366 73 23.4995 73C24.8225 73.0401 26.0052 73.3408 27.0476 73.902C27.4886 74.1425 27.9196 74.4532 28.3406 74.8341C28.7816 75.2149 29.1624 75.696 29.4832 76.2773C29.8239 76.8386 30.0946 77.5101 30.295 78.2918C30.5155 79.0736 30.6258 79.9856 30.6258 81.0279C30.6258 82.0702 30.5255 82.9823 30.3251 83.764C30.1447 84.5458 29.8941 85.2173 29.5734 85.7785C29.2727 86.3398 28.9219 86.8108 28.521 87.1917C28.1401 87.5525 27.7392 87.8532 27.3182 88.0937C26.356 88.6349 25.2535 88.9155 24.0107 88.9356C23.3893 88.8955 22.7879 88.7652 22.2066 88.5447C21.7054 88.3443 21.1943 88.0235 20.6731 87.5826C20.1519 87.1416 19.7209 86.5001 19.3801 85.6583L20.0416 86.5302V93.6862H16.4635V81.058Z" fill="#001B03"/>
<path d="M45.9382 79.0736C45.9783 79.3742 46.0083 79.6849 46.0284 80.0056C46.0685 80.3264 46.0885 80.6671 46.0885 81.0279V81.5691H35.5645C35.6046 81.9099 35.6547 82.2607 35.7149 82.6215C35.775 82.9622 35.8752 83.303 36.0156 83.6438C36.2361 84.1649 36.5768 84.626 37.0379 85.0268C37.4989 85.4277 38.1404 85.6282 38.9623 85.6282C39.7842 85.6282 40.4256 85.4277 40.8867 85.0268C41.3477 84.626 41.6885 84.1649 41.909 83.6438H45.8179C45.6575 84.3453 45.427 84.9567 45.1263 85.4779C44.8457 85.999 44.525 86.45 44.1641 86.8309C43.8234 87.2117 43.4525 87.5324 43.0516 87.793C42.6507 88.0336 42.2598 88.234 41.8789 88.3944C40.9568 88.7552 39.9846 88.9356 38.9623 88.9356C37.6192 88.9155 36.4265 88.6349 35.3841 88.0937C34.9431 87.8532 34.5021 87.5525 34.0611 87.1917C33.6401 86.8108 33.2593 86.3398 32.9185 85.7785C32.5978 85.2173 32.3372 84.5458 32.1367 83.764C31.9363 82.9823 31.836 82.0702 31.836 81.0279C31.836 79.9856 31.9363 79.0736 32.1367 78.2918C32.3372 77.5101 32.5978 76.8386 32.9185 76.2773C33.2593 75.696 33.6401 75.2149 34.0611 74.8341C34.5021 74.4532 34.9431 74.1425 35.3841 73.902C36.4265 73.3408 37.6192 73.0401 38.9623 73C40.0648 73.0401 41.0971 73.2706 42.0593 73.6915C42.4603 73.8719 42.8612 74.1125 43.2621 74.4132C43.683 74.6938 44.0639 75.0546 44.4047 75.4956C44.7655 75.9165 45.0762 76.4277 45.3368 77.029C45.6175 77.6103 45.8179 78.2918 45.9382 79.0736ZM42.1495 79.0736C42.0493 78.7528 41.919 78.4321 41.7587 78.1114C41.6183 77.7907 41.4179 77.5 41.1573 77.2395C40.8967 76.9789 40.586 76.7784 40.2252 76.6381C39.8643 76.4778 39.4434 76.3976 38.9623 76.3976C38.4812 76.3976 38.0602 76.4778 37.6994 76.6381C37.3386 76.7784 37.0279 76.9789 36.7673 77.2395C36.5067 77.5 36.2962 77.7907 36.1358 78.1114C35.9755 78.4321 35.8552 78.7528 35.775 79.0736H42.1495Z" fill="#001B03"/>
<path d="M54.0901 73C54.1502 73 54.3607 73.01 54.7215 73.0301C55.1024 73.0501 55.5434 73.1403 56.0445 73.3007C56.5457 73.441 57.0769 73.6715 57.6382 73.9922C58.1994 74.3129 58.7206 74.774 59.2017 75.3753C59.6828 75.9766 60.0737 76.7383 60.3744 77.6604C60.6951 78.5624 60.8555 79.6849 60.8555 81.0279V88.6349H57.1871V81.0279C57.1871 80.5869 57.147 80.1359 57.0668 79.6749C56.9867 79.2139 56.8363 78.7929 56.6158 78.4121C56.3953 78.0312 56.0846 77.7205 55.6837 77.48C55.2828 77.2194 54.7516 77.0891 54.0901 77.0891C53.4286 77.0891 52.8973 77.2194 52.4964 77.48C52.0955 77.7205 51.7848 78.0312 51.5643 78.4121C51.3438 78.7929 51.1935 79.2139 51.1133 79.6749C51.0331 80.1359 50.993 80.5869 50.993 81.0279V88.6349H47.3246V81.0279C47.3246 79.6849 47.475 78.5624 47.7757 77.6604C48.0964 76.7383 48.4973 75.9766 48.9784 75.3753C49.4595 74.774 49.9807 74.3129 50.542 73.9922C51.1033 73.6715 51.6345 73.441 52.1356 73.3007C52.6368 73.1403 53.0677 73.0501 53.4286 73.0301C53.7894 73.01 54.0099 73 54.0901 73Z" fill="#001B03"/>
<path d="M71.0249 76.2649C70.2443 76.2649 69.6239 76.3955 69.1636 76.6567C68.7033 76.918 68.353 77.2697 68.1129 77.7118C67.8927 78.1338 67.7426 78.6161 67.6625 79.1587C67.6025 79.6813 67.5725 80.2138 67.5725 80.7564C67.5725 81.1985 67.6125 81.6808 67.6926 82.2034C67.7726 82.7259 67.9327 83.2182 68.1729 83.6804C68.4331 84.1226 68.7833 84.4943 69.2236 84.7958C69.6839 85.0972 70.2844 85.248 71.0249 85.248C71.7654 85.248 72.3558 85.0972 72.7961 84.7958C73.2564 84.4943 73.6067 84.1226 73.8468 83.6804C74.087 83.2182 74.2471 82.7259 74.3272 82.2034C74.4072 81.6808 74.4472 81.1985 74.4472 80.7564C74.4472 80.3143 74.4072 79.832 74.3272 79.3095C74.2471 78.787 74.087 78.3046 73.8468 77.8625C73.6067 77.4003 73.2564 77.0185 72.7961 76.717C72.3558 76.4156 71.7654 76.2649 71.0249 76.2649ZM64 80.7866C64 79.5205 64.1301 78.3951 64.3903 77.4104C64.6505 76.4055 65.0607 75.5615 65.6211 74.8782C66.2015 74.1748 66.932 73.6423 67.8126 73.2805C68.6933 72.8987 69.764 72.7078 71.0249 72.7078C72.3458 72.748 73.5266 73.0494 74.5673 73.6121C75.0076 73.8533 75.4379 74.1648 75.8582 74.5466C76.2985 74.9284 76.6788 75.4108 76.999 75.9936C77.3393 76.5563 77.6094 77.2295 77.8096 78.0132C78.0297 78.797 78.1398 79.7114 78.1398 80.7564C78.1398 81.8014 78.0397 82.7158 77.8396 83.4996C77.6595 84.2833 77.4093 84.9566 77.0891 85.5193C76.7889 86.082 76.4386 86.5542 76.0384 86.9361C75.6581 87.2978 75.2578 87.5992 74.8375 87.8404C73.8769 88.383 72.7761 88.6644 71.5352 88.6844C70.9148 88.6443 70.3144 88.5136 69.734 88.2926C69.2336 88.0916 68.7233 87.7701 68.2029 87.3279C67.6826 86.8858 67.2523 86.2427 66.912 85.3987L67.5725 86.2729V93.4473H64V80.7866Z" fill="#5A5A5A"/>
<path d="M93.4579 88.383H89.8855V86.2729L90.5459 85.3987C90.2057 86.2427 89.7754 86.8858 89.255 87.3279C88.7347 87.7701 88.2243 88.0916 87.724 88.2926C87.1436 88.5136 86.5431 88.6443 85.9227 88.6844C84.6819 88.6644 83.5811 88.383 82.6204 87.8404C82.2001 87.5992 81.7898 87.2978 81.3896 86.9361C81.0093 86.5542 80.6591 86.082 80.3388 85.5193C80.0386 84.9566 79.7885 84.2833 79.5883 83.4996C79.4082 82.7158 79.3181 81.8014 79.3181 80.7564C79.3181 79.7114 79.4182 78.797 79.6183 78.0132C79.8185 77.2295 80.0787 76.5563 80.3989 75.9936C80.7391 75.4108 81.1194 74.9284 81.5397 74.5466C81.98 74.1648 82.4203 73.8533 82.8606 73.6121C83.9013 73.0494 85.0921 72.748 86.4331 72.7078C87.6939 72.7078 88.7647 72.8987 89.6453 73.2805C90.5259 73.6423 91.2464 74.1748 91.8068 74.8782C92.3872 75.5615 92.8075 76.4055 93.0677 77.4104C93.3278 78.3951 93.4579 79.5205 93.4579 80.7866V88.383ZM86.4331 76.2649C85.6925 76.2649 85.0921 76.4156 84.6318 76.717C84.1915 77.0185 83.8513 77.4003 83.6111 77.8625C83.3709 78.3046 83.2108 78.787 83.1308 79.3095C83.0507 79.832 83.0107 80.3143 83.0107 80.7564C83.0107 81.1985 83.0507 81.6808 83.1308 82.2034C83.2108 82.7259 83.3709 83.2182 83.6111 83.6804C83.8513 84.1226 84.1915 84.4943 84.6318 84.7958C85.0921 85.0972 85.6925 85.248 86.4331 85.248C87.1736 85.248 87.764 85.0972 88.2043 84.7958C88.6646 84.4943 89.0149 84.1226 89.255 83.6804C89.5152 83.2182 89.6853 82.7259 89.7654 82.2034C89.8454 81.6808 89.8855 81.1985 89.8855 80.7564C89.8855 80.2138 89.8454 79.6813 89.7654 79.1587C89.7053 78.6161 89.5552 78.1338 89.3151 77.7118C89.0949 77.2697 88.7547 76.918 88.2944 76.6567C87.834 76.3955 87.2136 76.2649 86.4331 76.2649Z" fill="#5A5A5A"/>
<path d="M101.329 79.1286C101.61 79.1286 101.99 79.1386 102.47 79.1587C102.971 79.1587 103.501 79.1989 104.061 79.2793C104.622 79.3396 105.182 79.4602 105.743 79.6411C106.323 79.8018 106.843 80.043 107.304 80.3645C107.764 80.6861 108.134 81.098 108.414 81.6005C108.715 82.1029 108.865 82.7259 108.865 83.4694C108.865 84.635 108.605 85.5695 108.084 86.2729C107.584 86.9562 106.963 87.4787 106.223 87.8404C105.482 88.2021 104.682 88.4332 103.821 88.5337C102.981 88.6342 102.23 88.6844 101.57 88.6844C101.45 88.6844 101.189 88.6744 100.789 88.6543C100.389 88.6543 99.9185 88.6041 99.3781 88.5036C98.8578 88.4031 98.2974 88.2423 97.697 88.0213C97.1166 87.8002 96.5762 87.4887 96.0758 87.0868C95.5955 86.6648 95.1952 86.1322 94.875 85.4891C94.5548 84.8259 94.3947 84.0221 94.3947 83.0775H98.0572C98.0572 83.2584 98.0872 83.4795 98.1473 83.7407C98.2073 83.9819 98.3474 84.223 98.5676 84.4642C98.7877 84.7054 99.118 84.9164 99.5583 85.0972C99.9986 85.258 100.599 85.3484 101.36 85.3685C102.3 85.3886 103.021 85.3484 103.521 85.248C104.041 85.1475 104.422 85.0169 104.662 84.8561C104.902 84.6752 105.042 84.4943 105.082 84.3135C105.142 84.1326 105.172 83.9618 105.172 83.801C105.172 83.6201 105.142 83.4393 105.082 83.2584C105.022 83.0775 104.862 82.9168 104.602 82.7761C104.362 82.6153 103.971 82.4847 103.431 82.3842C102.911 82.2837 102.18 82.2234 101.239 82.2034C100.519 82.1833 99.7984 82.0828 99.0779 81.9019C98.3574 81.721 97.707 81.4497 97.1266 81.088C96.5462 80.7062 96.0759 80.2339 95.7156 79.6712C95.3554 79.1085 95.1752 78.4453 95.1752 77.6817C95.1752 76.8376 95.3554 76.1041 95.7156 75.4811C96.0759 74.838 96.5462 74.3155 97.1266 73.9136C97.727 73.5116 98.4075 73.2102 99.168 73.0092C99.9285 72.8083 100.729 72.7078 101.57 72.7078C102.01 72.7078 102.6 72.758 103.341 72.8585C104.081 72.959 104.802 73.1901 105.502 73.5518C106.223 73.9136 106.833 74.4461 107.334 75.1495C107.854 75.8529 108.104 76.8075 108.084 78.0132H104.422C104.422 77.3702 104.201 76.8677 103.761 76.506C103.341 76.1242 102.58 75.9333 101.48 75.9333C100.659 75.9333 99.9986 76.094 99.4982 76.4156C98.9979 76.717 98.7477 77.1391 98.7477 77.6817C98.7477 78.2042 98.9879 78.5759 99.4682 78.797C99.9485 79.0181 100.569 79.1286 101.329 79.1286Z" fill="#5A5A5A"/>
<path d="M116.414 79.1286C116.694 79.1286 117.074 79.1386 117.555 79.1587C118.055 79.1587 118.585 79.1989 119.146 79.2793C119.706 79.3396 120.266 79.4602 120.827 79.6411C121.407 79.8018 121.928 80.043 122.388 80.3645C122.848 80.6861 123.219 81.098 123.499 81.6005C123.799 82.1029 123.949 82.7259 123.949 83.4694C123.949 84.635 123.689 85.5695 123.168 86.2729C122.668 86.9562 122.048 87.4787 121.307 87.8404C120.567 88.2021 119.766 88.4332 118.906 88.5337C118.065 88.6342 117.314 88.6844 116.654 88.6844C116.534 88.6844 116.274 88.6744 115.873 88.6543C115.473 88.6543 115.003 88.6041 114.462 88.5036C113.942 88.4031 113.382 88.2423 112.781 88.0213C112.201 87.8002 111.66 87.4887 111.16 87.0868C110.68 86.6648 110.28 86.1322 109.959 85.4891C109.639 84.8259 109.479 84.0221 109.479 83.0775H113.142C113.142 83.2584 113.172 83.4795 113.232 83.7407C113.292 83.9819 113.432 84.223 113.652 84.4642C113.872 84.7054 114.202 84.9164 114.643 85.0972C115.083 85.258 115.683 85.3484 116.444 85.3685C117.384 85.3886 118.105 85.3484 118.605 85.248C119.126 85.1475 119.506 85.0169 119.746 84.8561C119.986 84.6752 120.126 84.4943 120.166 84.3135C120.226 84.1326 120.256 83.9618 120.256 83.801C120.256 83.6201 120.226 83.4393 120.166 83.2584C120.106 83.0775 119.946 82.9168 119.686 82.7761C119.446 82.6153 119.056 82.4847 118.515 82.3842C117.995 82.2837 117.264 82.2234 116.324 82.2034C115.603 82.1833 114.883 82.0828 114.162 81.9019C113.442 81.721 112.791 81.4497 112.211 81.088C111.63 80.7062 111.16 80.2339 110.8 79.6712C110.44 79.1085 110.26 78.4453 110.26 77.6817C110.26 76.8376 110.44 76.1041 110.8 75.4811C111.16 74.838 111.63 74.3155 112.211 73.9136C112.811 73.5116 113.492 73.2102 114.252 73.0092C115.013 72.8083 115.813 72.7078 116.654 72.7078C117.094 72.7078 117.685 72.758 118.425 72.8585C119.166 72.959 119.886 73.1901 120.587 73.5518C121.307 73.9136 121.918 74.4461 122.418 75.1495C122.938 75.8529 123.188 76.8075 123.168 78.0132H119.506C119.506 77.3702 119.286 76.8677 118.845 76.506C118.425 76.1242 117.665 75.9333 116.564 75.9333C115.743 75.9333 115.083 76.094 114.583 76.4156C114.082 76.717 113.832 77.1391 113.832 77.6817C113.832 78.2042 114.072 78.5759 114.552 78.797C115.033 79.0181 115.653 79.1286 116.414 79.1286Z" fill="#5A5A5A"/>
<path d="M131.948 76.2649C131.168 76.2649 130.547 76.3955 130.087 76.6567C129.627 76.918 129.277 77.2697 129.036 77.7118C128.816 78.1338 128.666 78.6161 128.586 79.1587C128.526 79.6813 128.496 80.2138 128.496 80.7564C128.496 81.1985 128.536 81.6808 128.616 82.2034C128.696 82.7259 128.856 83.2182 129.096 83.6804C129.357 84.1226 129.707 84.4943 130.147 84.7958C130.607 85.0972 131.208 85.248 131.948 85.248C132.689 85.248 133.279 85.0972 133.72 84.7958C134.18 84.4943 134.53 84.1226 134.77 83.6804C135.011 83.2182 135.171 82.7259 135.251 82.2034C135.331 81.6808 135.371 81.1985 135.371 80.7564C135.371 80.3143 135.331 79.832 135.251 79.3095C135.171 78.787 135.011 78.3046 134.77 77.8625C134.53 77.4003 134.18 77.0185 133.72 76.717C133.279 76.4156 132.689 76.2649 131.948 76.2649ZM124.924 80.7866C124.924 79.5205 125.054 78.3951 125.314 77.4104C125.574 76.4055 125.984 75.5615 126.545 74.8782C127.125 74.1748 127.856 73.6423 128.736 73.2805C129.617 72.8987 130.688 72.7078 131.948 72.7078C133.269 72.748 134.45 73.0494 135.491 73.6121C135.931 73.8533 136.361 74.1648 136.782 74.5466C137.222 74.9284 137.602 75.4108 137.923 75.9936C138.263 76.5563 138.533 77.2295 138.733 78.0132C138.953 78.797 139.063 79.7114 139.063 80.7564C139.063 81.8014 138.963 82.7158 138.763 83.4996C138.583 84.2833 138.333 84.9566 138.013 85.5193C137.712 86.082 137.362 86.5542 136.962 86.9361C136.582 87.2978 136.181 87.5992 135.761 87.8404C134.8 88.383 133.7 88.6644 132.459 88.6844C131.838 88.6443 131.238 88.5136 130.658 88.2926C130.157 88.0916 129.647 87.7701 129.126 87.3279C128.606 86.8858 128.176 86.2427 127.836 85.3987L128.496 86.2729V93.4473H124.924V80.7866Z" fill="#5A5A5A"/>
<path d="M140.152 80.7564C140.152 79.7114 140.252 78.797 140.452 78.0132C140.652 77.2295 140.912 76.5563 141.232 75.9936C141.573 75.4108 141.953 74.9284 142.373 74.5466C142.813 74.1648 143.254 73.8533 143.694 73.6121C144.735 73.0494 145.926 72.748 147.267 72.7078C148.587 72.748 149.768 73.0494 150.809 73.6121C151.249 73.8533 151.68 74.1648 152.1 74.5466C152.54 74.9284 152.92 75.4108 153.241 75.9936C153.581 76.5563 153.851 77.2295 154.051 78.0132C154.271 78.797 154.381 79.7114 154.381 80.7564C154.381 81.8014 154.271 82.7158 154.051 83.4996C153.851 84.2833 153.581 84.9566 153.241 85.5193C152.92 86.082 152.54 86.5542 152.1 86.9361C151.68 87.2978 151.249 87.5992 150.809 87.8404C149.768 88.383 148.587 88.6644 147.267 88.6844C145.926 88.6644 144.735 88.383 143.694 87.8404C143.254 87.5992 142.813 87.2978 142.373 86.9361C141.953 86.5542 141.573 86.082 141.232 85.5193C140.912 84.9566 140.652 84.2833 140.452 83.4996C140.252 82.7158 140.152 81.8014 140.152 80.7564ZM147.267 76.2649C146.526 76.2649 145.926 76.4156 145.465 76.717C145.025 77.0185 144.685 77.4003 144.445 77.8625C144.204 78.3046 144.044 78.787 143.964 79.3095C143.884 79.832 143.844 80.3143 143.844 80.7564C143.844 81.1985 143.884 81.6808 143.964 82.2034C144.044 82.7259 144.204 83.2182 144.445 83.6804C144.685 84.1226 145.025 84.4943 145.465 84.7958C145.926 85.0972 146.526 85.248 147.267 85.248C148.007 85.248 148.597 85.0972 149.038 84.7958C149.498 84.4943 149.848 84.1226 150.088 83.6804C150.329 83.2182 150.489 82.7259 150.569 82.2034C150.649 81.6808 150.689 81.1985 150.689 80.7564C150.689 80.3143 150.649 79.832 150.569 79.3095C150.489 78.787 150.329 78.3046 150.088 77.8625C149.848 77.4003 149.498 77.0185 149.038 76.717C148.597 76.4156 148.007 76.2649 147.267 76.2649Z" fill="#5A5A5A"/>
<path d="M155.59 77.5611C155.59 76.5161 155.811 75.7022 156.251 75.1194C156.691 74.5165 157.172 74.0643 157.692 73.7629C158.312 73.4011 159.013 73.1801 159.793 73.0997H163.996V76.7472H161.174C160.774 76.7472 160.444 76.8175 160.184 76.9582C159.944 77.0989 159.753 77.2496 159.613 77.4104C159.453 77.6113 159.343 77.8324 159.283 78.0735V88.383H155.59V77.5611Z" fill="#5A5A5A"/>
<path d="M168.827 76.6869V83.4091C168.887 83.6503 168.997 83.8714 169.157 84.0723C169.297 84.2331 169.488 84.3838 169.728 84.5245C169.988 84.6652 170.318 84.7355 170.718 84.7355H173V88.383H169.337C168.557 88.3026 167.856 88.0816 167.236 87.7198C166.716 87.4184 166.235 86.9763 165.795 86.3935C165.375 85.7906 165.165 84.9666 165.165 83.9216V69H168.827V73.0997H172.28V76.6869H168.827Z" fill="#5A5A5A"/>
</svg>
