<svg width="173" height="25" viewBox="0 0 173 25" fill="none" xmlns="http://www.w3.org/2000/svg">
<path d="M0 12.0279C0 10.9856 0.100229 10.0736 0.300686 9.29181C0.501143 8.51007 0.761737 7.83857 1.08247 7.27732C1.42325 6.69602 1.80411 6.21494 2.22507 5.83409C2.66608 5.45324 3.10709 5.14255 3.54809 4.90201C4.59047 4.34076 5.78319 4.04009 7.12625 4C8.44927 4.04009 9.63197 4.34076 10.6743 4.90201C11.1154 5.14255 11.5463 5.45324 11.9673 5.83409C12.4083 6.21494 12.7892 6.69602 13.1099 7.27732C13.4507 7.83857 13.7213 8.51007 13.9218 9.29181C14.1423 10.0736 14.2525 10.9856 14.2525 12.0279C14.2525 13.0702 14.1423 13.9823 13.9218 14.764C13.7213 15.5458 13.4507 16.2173 13.1099 16.7785C12.7892 17.3398 12.4083 17.8108 11.9673 18.1917C11.5463 18.5525 11.1154 18.8532 10.6743 19.0937C9.63197 19.6349 8.44927 19.9155 7.12625 19.9356C5.78319 19.9155 4.59047 19.6349 3.54809 19.0937C3.10709 18.8532 2.66608 18.5525 2.22507 18.1917C1.80411 17.8108 1.42325 17.3398 1.08247 16.7785C0.761737 16.2173 0.501143 15.5458 0.300686 14.764C0.100229 13.9823 0 13.0702 0 12.0279ZM7.12625 7.54792C6.38456 7.54792 5.78319 7.69826 5.32214 7.99893C4.88113 8.2996 4.54035 8.68045 4.29981 9.14148C4.05926 9.58246 3.89889 10.0635 3.81871 10.5847C3.73853 11.1059 3.69843 11.5869 3.69843 12.0279C3.69843 12.4689 3.73853 12.95 3.81871 13.4711C3.89889 13.9923 4.05926 14.4834 4.29981 14.9444C4.54035 15.3854 4.88113 15.7562 5.32214 16.0569C5.78319 16.3576 6.38456 16.5079 7.12625 16.5079C7.86794 16.5079 8.45929 16.3576 8.9003 16.0569C9.36135 15.7562 9.71215 15.3854 9.9527 14.9444C10.1932 14.4834 10.3536 13.9923 10.4338 13.4711C10.514 12.95 10.5541 12.4689 10.5541 12.0279C10.5541 11.5869 10.514 11.1059 10.4338 10.5847C10.3536 10.0635 10.1932 9.58246 9.9527 9.14148C9.71215 8.68045 9.36135 8.2996 8.9003 7.99893C8.45929 7.69826 7.86794 7.54792 7.12625 7.54792Z" fill="#D93E69"/>
<path d="M23.4995 7.54792C22.7177 7.54792 22.0963 7.67821 21.6353 7.93879C21.1742 8.19937 20.8234 8.55016 20.5829 8.99114C20.3624 9.41208 20.212 9.89316 20.1318 10.4344C20.0717 10.9555 20.0416 11.4867 20.0416 12.0279C20.0416 12.4689 20.0817 12.95 20.1619 13.4711C20.2421 13.9923 20.4025 14.4834 20.643 14.9444C20.9036 15.3854 21.2544 15.7562 21.6954 16.0569C22.1565 16.3576 22.7578 16.5079 23.4995 16.5079C24.2412 16.5079 24.8326 16.3576 25.2736 16.0569C25.7346 15.7562 26.0854 15.3854 26.326 14.9444C26.5665 14.4834 26.7269 13.9923 26.8071 13.4711C26.8872 12.95 26.9273 12.4689 26.9273 12.0279C26.9273 11.5869 26.8872 11.1059 26.8071 10.5847C26.7269 10.0635 26.5665 9.58246 26.326 9.14148C26.0854 8.68045 25.7346 8.2996 25.2736 7.99893C24.8326 7.69826 24.2412 7.54792 23.4995 7.54792ZM16.4635 12.058C16.4635 10.7952 16.5938 9.67266 16.8544 8.69047C17.115 7.68823 17.5259 6.84635 18.0872 6.16483C18.6685 5.46327 19.4002 4.93208 20.2822 4.57127C21.1642 4.19042 22.2366 4 23.4995 4C24.8225 4.04009 26.0052 4.34076 27.0476 4.90201C27.4886 5.14255 27.9196 5.45324 28.3406 5.83409C28.7816 6.21494 29.1624 6.69602 29.4832 7.27732C29.8239 7.83857 30.0946 8.51007 30.295 9.29181C30.5155 10.0736 30.6258 10.9856 30.6258 12.0279C30.6258 13.0702 30.5255 13.9823 30.3251 14.764C30.1447 15.5458 29.8941 16.2173 29.5734 16.7785C29.2727 17.3398 28.9219 17.8108 28.521 18.1917C28.1401 18.5525 27.7392 18.8532 27.3182 19.0937C26.356 19.6349 25.2535 19.9155 24.0107 19.9356C23.3893 19.8955 22.7879 19.7652 22.2066 19.5447C21.7054 19.3443 21.1943 19.0235 20.6731 18.5826C20.1519 18.1416 19.7209 17.5001 19.3801 16.6583L20.0416 17.5302V24.6862H16.4635V12.058Z" fill="#D93E69"/>
<path d="M45.9382 10.0736C45.9783 10.3742 46.0083 10.6849 46.0284 11.0056C46.0685 11.3264 46.0885 11.6671 46.0885 12.0279V12.5691H35.5645C35.6046 12.9099 35.6547 13.2607 35.7149 13.6215C35.775 13.9622 35.8752 14.303 36.0156 14.6438C36.2361 15.1649 36.5768 15.626 37.0379 16.0268C37.4989 16.4277 38.1404 16.6282 38.9623 16.6282C39.7842 16.6282 40.4256 16.4277 40.8867 16.0268C41.3477 15.626 41.6885 15.1649 41.909 14.6438H45.8179C45.6575 15.3453 45.427 15.9567 45.1263 16.4779C44.8457 16.999 44.525 17.45 44.1641 17.8309C43.8234 18.2117 43.4525 18.5324 43.0516 18.793C42.6507 19.0336 42.2598 19.234 41.8789 19.3944C40.9568 19.7552 39.9846 19.9356 38.9623 19.9356C37.6192 19.9155 36.4265 19.6349 35.3841 19.0937C34.9431 18.8532 34.5021 18.5525 34.0611 18.1917C33.6401 17.8108 33.2593 17.3398 32.9185 16.7785C32.5978 16.2173 32.3372 15.5458 32.1367 14.764C31.9363 13.9823 31.836 13.0702 31.836 12.0279C31.836 10.9856 31.9363 10.0736 32.1367 9.29181C32.3372 8.51007 32.5978 7.83857 32.9185 7.27732C33.2593 6.69602 33.6401 6.21494 34.0611 5.83409C34.5021 5.45324 34.9431 5.14255 35.3841 4.90201C36.4265 4.34076 37.6192 4.04009 38.9623 4C40.0648 4.04009 41.0971 4.2706 42.0593 4.69154C42.4603 4.87195 42.8612 5.11248 43.2621 5.41315C43.683 5.69378 44.0639 6.05459 44.4047 6.49557C44.7655 6.91651 45.0762 7.42765 45.3368 8.02899C45.6175 8.61029 45.8179 9.29181 45.9382 10.0736ZM42.1495 10.0736C42.0493 9.75284 41.919 9.43213 41.7587 9.11141C41.6183 8.79069 41.4179 8.50004 41.1573 8.23946C40.8967 7.97888 40.586 7.77843 40.2252 7.63812C39.8643 7.47776 39.4434 7.39758 38.9623 7.39758C38.4812 7.39758 38.0602 7.47776 37.6994 7.63812C37.3386 7.77843 37.0279 7.97888 36.7673 8.23946C36.5067 8.50004 36.2962 8.79069 36.1358 9.11141C35.9755 9.43213 35.8552 9.75284 35.775 10.0736H42.1495Z" fill="#D93E69"/>
<path d="M54.0901 4C54.1502 4 54.3607 4.01002 54.7215 4.03007C55.1024 4.05011 55.5434 4.14031 56.0445 4.30067C56.5457 4.44098 57.0769 4.6715 57.6382 4.99221C58.1994 5.31293 58.7206 5.77396 59.2017 6.3753C59.6828 6.97665 60.0737 7.73834 60.3744 8.6604C60.6951 9.56242 60.8555 10.6849 60.8555 12.0279V19.6349H57.1871V12.0279C57.1871 11.5869 57.147 11.1359 57.0668 10.6749C56.9867 10.2139 56.8363 9.79293 56.6158 9.41208C56.3953 9.03123 56.0846 8.72054 55.6837 8.48C55.2828 8.21942 54.7516 8.08913 54.0901 8.08913C53.4286 8.08913 52.8973 8.21942 52.4964 8.48C52.0955 8.72054 51.7848 9.03123 51.5643 9.41208C51.3438 9.79293 51.1935 10.2139 51.1133 10.6749C51.0331 11.1359 50.993 11.5869 50.993 12.0279V19.6349H47.3246V12.0279C47.3246 10.6849 47.475 9.56242 47.7757 8.6604C48.0964 7.73834 48.4973 6.97665 48.9784 6.3753C49.4595 5.77396 49.9807 5.31293 50.542 4.99221C51.1033 4.6715 51.6345 4.44098 52.1356 4.30067C52.6368 4.14031 53.0677 4.05011 53.4286 4.03007C53.7894 4.01002 54.0099 4 54.0901 4Z" fill="#D93E69"/>
<path d="M71.0249 7.26486C70.2443 7.26486 69.6239 7.39548 69.1636 7.65674C68.7033 7.91799 68.353 8.26968 68.1129 8.7118C67.8927 9.13382 67.7426 9.61614 67.6625 10.1587C67.6025 10.6813 67.5725 11.2138 67.5725 11.7564C67.5725 12.1985 67.6125 12.6808 67.6926 13.2034C67.7726 13.7259 67.9327 14.2182 68.1729 14.6804C68.4331 15.1226 68.7833 15.4943 69.2236 15.7958C69.6839 16.0972 70.2844 16.248 71.0249 16.248C71.7654 16.248 72.3558 16.0972 72.7961 15.7958C73.2564 15.4943 73.6067 15.1226 73.8468 14.6804C74.087 14.2182 74.2471 13.7259 74.3272 13.2034C74.4072 12.6808 74.4472 12.1985 74.4472 11.7564C74.4472 11.3143 74.4072 10.832 74.3272 10.3095C74.2471 9.78696 74.087 9.30465 73.8468 8.86252C73.6067 8.40031 73.2564 8.01847 72.7961 7.71703C72.3558 7.41558 71.7654 7.26486 71.0249 7.26486ZM64 11.7866C64 10.5205 64.1301 9.39508 64.3903 8.41035C64.6505 7.40553 65.0607 6.56148 65.6211 5.8782C66.2015 5.17483 66.932 4.64227 67.8126 4.28054C68.6933 3.89871 69.764 3.70779 71.0249 3.70779C72.3458 3.74798 73.5266 4.04943 74.5673 4.61213C75.0076 4.85329 75.4379 5.16478 75.8582 5.54661C76.2985 5.92845 76.6788 6.41076 76.999 6.99356C77.3393 7.55626 77.6094 8.22949 77.8096 9.01325C78.0297 9.79701 78.1398 10.7114 78.1398 11.7564C78.1398 12.8014 78.0397 13.7158 77.8396 14.4996C77.6595 15.2833 77.4093 15.9566 77.0891 16.5193C76.7889 17.082 76.4386 17.5542 76.0384 17.9361C75.6581 18.2978 75.2578 18.5992 74.8375 18.8404C73.8769 19.383 72.7761 19.6644 71.5352 19.6844C70.9148 19.6443 70.3144 19.5136 69.734 19.2926C69.2336 19.0916 68.7233 18.7701 68.2029 18.3279C67.6826 17.8858 67.2523 17.2427 66.912 16.3987L67.5725 17.2729V24.4473H64V11.7866Z" fill="#5A5A5A"/>
<path d="M93.4579 19.383H89.8855V17.2729L90.5459 16.3987C90.2057 17.2427 89.7754 17.8858 89.255 18.3279C88.7347 18.7701 88.2243 19.0916 87.724 19.2926C87.1436 19.5136 86.5431 19.6443 85.9227 19.6844C84.6819 19.6644 83.5811 19.383 82.6204 18.8404C82.2001 18.5992 81.7898 18.2978 81.3896 17.9361C81.0093 17.5542 80.6591 17.082 80.3388 16.5193C80.0386 15.9566 79.7885 15.2833 79.5883 14.4996C79.4082 13.7158 79.3181 12.8014 79.3181 11.7564C79.3181 10.7114 79.4182 9.79701 79.6183 9.01325C79.8185 8.22949 80.0787 7.55626 80.3989 6.99356C80.7391 6.41076 81.1194 5.92845 81.5397 5.54661C81.98 5.16478 82.4203 4.85329 82.8606 4.61213C83.9013 4.04943 85.0921 3.74798 86.4331 3.70779C87.6939 3.70779 88.7647 3.89871 89.6453 4.28054C90.5259 4.64227 91.2464 5.17483 91.8068 5.8782C92.3872 6.56148 92.8075 7.40553 93.0677 8.41035C93.3278 9.39508 93.4579 10.5205 93.4579 11.7866V19.383ZM86.4331 7.26486C85.6925 7.26486 85.0921 7.41558 84.6318 7.71703C84.1915 8.01847 83.8513 8.40031 83.6111 8.86252C83.3709 9.30465 83.2108 9.78696 83.1308 10.3095C83.0507 10.832 83.0107 11.3143 83.0107 11.7564C83.0107 12.1985 83.0507 12.6808 83.1308 13.2034C83.2108 13.7259 83.3709 14.2182 83.6111 14.6804C83.8513 15.1226 84.1915 15.4943 84.6318 15.7958C85.0921 16.0972 85.6925 16.248 86.4331 16.248C87.1736 16.248 87.764 16.0972 88.2043 15.7958C88.6646 15.4943 89.0149 15.1226 89.255 14.6804C89.5152 14.2182 89.6853 13.7259 89.7654 13.2034C89.8454 12.6808 89.8855 12.1985 89.8855 11.7564C89.8855 11.2138 89.8454 10.6813 89.7654 10.1587C89.7053 9.61614 89.5552 9.13382 89.3151 8.7118C89.0949 8.26968 88.7547 7.91799 88.2944 7.65674C87.834 7.39548 87.2136 7.26486 86.4331 7.26486Z" fill="#5A5A5A"/>
<path d="M101.329 10.1286C101.61 10.1286 101.99 10.1386 102.47 10.1587C102.971 10.1587 103.501 10.1989 104.061 10.2793C104.622 10.3396 105.182 10.4602 105.743 10.6411C106.323 10.8018 106.843 11.043 107.304 11.3645C107.764 11.6861 108.134 12.098 108.414 12.6005C108.715 13.1029 108.865 13.7259 108.865 14.4694C108.865 15.635 108.605 16.5695 108.084 17.2729C107.584 17.9562 106.963 18.4787 106.223 18.8404C105.482 19.2021 104.682 19.4332 103.821 19.5337C102.981 19.6342 102.23 19.6844 101.57 19.6844C101.45 19.6844 101.189 19.6744 100.789 19.6543C100.389 19.6543 99.9185 19.6041 99.3781 19.5036C98.8578 19.4031 98.2974 19.2423 97.697 19.0213C97.1166 18.8002 96.5762 18.4887 96.0758 18.0868C95.5955 17.6648 95.1952 17.1322 94.875 16.4891C94.5548 15.8259 94.3947 15.0221 94.3947 14.0775H98.0572C98.0572 14.2584 98.0872 14.4795 98.1473 14.7407C98.2073 14.9819 98.3474 15.223 98.5676 15.4642C98.7877 15.7054 99.118 15.9164 99.5583 16.0972C99.9986 16.258 100.599 16.3484 101.36 16.3685C102.3 16.3886 103.021 16.3484 103.521 16.248C104.041 16.1475 104.422 16.0169 104.662 15.8561C104.902 15.6752 105.042 15.4943 105.082 15.3135C105.142 15.1326 105.172 14.9618 105.172 14.801C105.172 14.6201 105.142 14.4393 105.082 14.2584C105.022 14.0775 104.862 13.9168 104.602 13.7761C104.362 13.6153 103.971 13.4847 103.431 13.3842C102.911 13.2837 102.18 13.2234 101.239 13.2034C100.519 13.1833 99.7984 13.0828 99.0779 12.9019C98.3574 12.721 97.707 12.4497 97.1266 12.088C96.5462 11.7062 96.0759 11.2339 95.7156 10.6712C95.3554 10.1085 95.1752 9.44532 95.1752 8.68165C95.1752 7.8376 95.3554 7.10409 95.7156 6.4811C96.0759 5.83801 96.5462 5.3155 97.1266 4.91358C97.727 4.51165 98.4075 4.2102 99.168 4.00924C99.9285 3.80827 100.729 3.70779 101.57 3.70779C102.01 3.70779 102.6 3.75803 103.341 3.85851C104.081 3.959 104.802 4.1901 105.502 4.55184C106.223 4.91358 106.833 5.44613 107.334 6.14951C107.854 6.85288 108.104 7.80746 108.084 9.01325H104.422C104.422 8.37016 104.201 7.86775 103.761 7.50601C103.341 7.12418 102.58 6.93327 101.48 6.93327C100.659 6.93327 99.9986 7.09404 99.4982 7.41558C98.9979 7.71703 98.7477 8.13905 98.7477 8.68165C98.7477 9.20416 98.9879 9.57595 99.4682 9.79701C99.9485 10.0181 100.569 10.1286 101.329 10.1286Z" fill="#5A5A5A"/>
<path d="M116.414 10.1286C116.694 10.1286 117.074 10.1386 117.555 10.1587C118.055 10.1587 118.585 10.1989 119.146 10.2793C119.706 10.3396 120.266 10.4602 120.827 10.6411C121.407 10.8018 121.928 11.043 122.388 11.3645C122.848 11.6861 123.219 12.098 123.499 12.6005C123.799 13.1029 123.949 13.7259 123.949 14.4694C123.949 15.635 123.689 16.5695 123.168 17.2729C122.668 17.9562 122.048 18.4787 121.307 18.8404C120.567 19.2021 119.766 19.4332 118.906 19.5337C118.065 19.6342 117.314 19.6844 116.654 19.6844C116.534 19.6844 116.274 19.6744 115.873 19.6543C115.473 19.6543 115.003 19.6041 114.462 19.5036C113.942 19.4031 113.382 19.2423 112.781 19.0213C112.201 18.8002 111.66 18.4887 111.16 18.0868C110.68 17.6648 110.28 17.1322 109.959 16.4891C109.639 15.8259 109.479 15.0221 109.479 14.0775H113.142C113.142 14.2584 113.172 14.4795 113.232 14.7407C113.292 14.9819 113.432 15.223 113.652 15.4642C113.872 15.7054 114.202 15.9164 114.643 16.0972C115.083 16.258 115.683 16.3484 116.444 16.3685C117.384 16.3886 118.105 16.3484 118.605 16.248C119.126 16.1475 119.506 16.0169 119.746 15.8561C119.986 15.6752 120.126 15.4943 120.166 15.3135C120.226 15.1326 120.256 14.9618 120.256 14.801C120.256 14.6201 120.226 14.4393 120.166 14.2584C120.106 14.0775 119.946 13.9168 119.686 13.7761C119.446 13.6153 119.056 13.4847 118.515 13.3842C117.995 13.2837 117.264 13.2234 116.324 13.2034C115.603 13.1833 114.883 13.0828 114.162 12.9019C113.442 12.721 112.791 12.4497 112.211 12.088C111.63 11.7062 111.16 11.2339 110.8 10.6712C110.44 10.1085 110.26 9.44532 110.26 8.68165C110.26 7.8376 110.44 7.10409 110.8 6.4811C111.16 5.83801 111.63 5.3155 112.211 4.91358C112.811 4.51165 113.492 4.2102 114.252 4.00924C115.013 3.80827 115.813 3.70779 116.654 3.70779C117.094 3.70779 117.685 3.75803 118.425 3.85851C119.166 3.959 119.886 4.1901 120.587 4.55184C121.307 4.91358 121.918 5.44613 122.418 6.14951C122.938 6.85288 123.188 7.80746 123.168 9.01325H119.506C119.506 8.37016 119.286 7.86775 118.845 7.50601C118.425 7.12418 117.665 6.93327 116.564 6.93327C115.743 6.93327 115.083 7.09404 114.583 7.41558C114.082 7.71703 113.832 8.13905 113.832 8.68165C113.832 9.20416 114.072 9.57595 114.552 9.79701C115.033 10.0181 115.653 10.1286 116.414 10.1286Z" fill="#5A5A5A"/>
<path d="M131.948 7.26486C131.168 7.26486 130.547 7.39548 130.087 7.65674C129.627 7.91799 129.277 8.26968 129.036 8.7118C128.816 9.13382 128.666 9.61614 128.586 10.1587C128.526 10.6813 128.496 11.2138 128.496 11.7564C128.496 12.1985 128.536 12.6808 128.616 13.2034C128.696 13.7259 128.856 14.2182 129.096 14.6804C129.357 15.1226 129.707 15.4943 130.147 15.7958C130.607 16.0972 131.208 16.248 131.948 16.248C132.689 16.248 133.279 16.0972 133.72 15.7958C134.18 15.4943 134.53 15.1226 134.77 14.6804C135.011 14.2182 135.171 13.7259 135.251 13.2034C135.331 12.6808 135.371 12.1985 135.371 11.7564C135.371 11.3143 135.331 10.832 135.251 10.3095C135.171 9.78696 135.011 9.30465 134.77 8.86252C134.53 8.40031 134.18 8.01847 133.72 7.71703C133.279 7.41558 132.689 7.26486 131.948 7.26486ZM124.924 11.7866C124.924 10.5205 125.054 9.39508 125.314 8.41035C125.574 7.40553 125.984 6.56148 126.545 5.8782C127.125 5.17483 127.856 4.64227 128.736 4.28054C129.617 3.89871 130.688 3.70779 131.948 3.70779C133.269 3.74798 134.45 4.04943 135.491 4.61213C135.931 4.85329 136.361 5.16478 136.782 5.54661C137.222 5.92845 137.602 6.41076 137.923 6.99356C138.263 7.55626 138.533 8.22949 138.733 9.01325C138.953 9.79701 139.063 10.7114 139.063 11.7564C139.063 12.8014 138.963 13.7158 138.763 14.4996C138.583 15.2833 138.333 15.9566 138.013 16.5193C137.712 17.082 137.362 17.5542 136.962 17.9361C136.582 18.2978 136.181 18.5992 135.761 18.8404C134.8 19.383 133.7 19.6644 132.459 19.6844C131.838 19.6443 131.238 19.5136 130.658 19.2926C130.157 19.0916 129.647 18.7701 129.126 18.3279C128.606 17.8858 128.176 17.2427 127.836 16.3987L128.496 17.2729V24.4473H124.924V11.7866Z" fill="#5A5A5A"/>
<path d="M140.152 11.7564C140.152 10.7114 140.252 9.79701 140.452 9.01325C140.652 8.22949 140.912 7.55626 141.232 6.99356C141.573 6.41076 141.953 5.92845 142.373 5.54661C142.813 5.16478 143.254 4.85329 143.694 4.61213C144.735 4.04943 145.926 3.74798 147.267 3.70779C148.587 3.74798 149.768 4.04943 150.809 4.61213C151.249 4.85329 151.68 5.16478 152.1 5.54661C152.54 5.92845 152.92 6.41076 153.241 6.99356C153.581 7.55626 153.851 8.22949 154.051 9.01325C154.271 9.79701 154.381 10.7114 154.381 11.7564C154.381 12.8014 154.271 13.7158 154.051 14.4996C153.851 15.2833 153.581 15.9566 153.241 16.5193C152.92 17.082 152.54 17.5542 152.1 17.9361C151.68 18.2978 151.249 18.5992 150.809 18.8404C149.768 19.383 148.587 19.6644 147.267 19.6844C145.926 19.6644 144.735 19.383 143.694 18.8404C143.254 18.5992 142.813 18.2978 142.373 17.9361C141.953 17.5542 141.573 17.082 141.232 16.5193C140.912 15.9566 140.652 15.2833 140.452 14.4996C140.252 13.7158 140.152 12.8014 140.152 11.7564ZM147.267 7.26486C146.526 7.26486 145.926 7.41558 145.465 7.71703C145.025 8.01847 144.685 8.40031 144.445 8.86252C144.204 9.30465 144.044 9.78696 143.964 10.3095C143.884 10.832 143.844 11.3143 143.844 11.7564C143.844 12.1985 143.884 12.6808 143.964 13.2034C144.044 13.7259 144.204 14.2182 144.445 14.6804C144.685 15.1226 145.025 15.4943 145.465 15.7958C145.926 16.0972 146.526 16.248 147.267 16.248C148.007 16.248 148.597 16.0972 149.038 15.7958C149.498 15.4943 149.848 15.1226 150.088 14.6804C150.329 14.2182 150.489 13.7259 150.569 13.2034C150.649 12.6808 150.689 12.1985 150.689 11.7564C150.689 11.3143 150.649 10.832 150.569 10.3095C150.489 9.78696 150.329 9.30465 150.088 8.86252C149.848 8.40031 149.498 8.01847 149.038 7.71703C148.597 7.41558 148.007 7.26486 147.267 7.26486Z" fill="#5A5A5A"/>
<path d="M155.59 8.56108C155.59 7.51606 155.811 6.70216 156.251 6.11936C156.691 5.51647 157.172 5.0643 157.692 4.76285C158.312 4.40112 159.013 4.18006 159.793 4.09967H163.996V7.74717H161.174C160.774 7.74717 160.444 7.81751 160.184 7.95818C159.944 8.09886 159.753 8.24958 159.613 8.41035C159.453 8.61132 159.343 8.83238 159.283 9.07354V19.383H155.59V8.56108Z" fill="#5A5A5A"/>
<path d="M168.827 7.68688V14.4091C168.887 14.6503 168.997 14.8714 169.157 15.0723C169.297 15.2331 169.488 15.3838 169.728 15.5245C169.988 15.6652 170.318 15.7355 170.718 15.7355H173V19.383H169.337C168.557 19.3026 167.856 19.0816 167.236 18.7198C166.716 18.4184 166.235 17.9763 165.795 17.3935C165.375 16.7906 165.165 15.9666 165.165 14.9216V0H168.827V4.09967H172.28V7.68688H168.827Z" fill="#5A5A5A"/>
</svg>
