<svg width="277" height="40" viewBox="0 0 277 40" fill="none" xmlns="http://www.w3.org/2000/svg">
<path d="M0 19.2C0 17.6 0.160116 16 0.480347 14.88C0.800578 13.6 1.28092 12.48 1.76127 11.68C2.24162 10.72 2.88208 9.91996 3.52254 9.43996C4.16301 8.79996 4.96358 8.31996 5.60405 7.99996C7.36532 6.87996 9.28671 6.39996 11.3682 6.39996C13.4497 6.39996 15.3711 6.87996 16.9723 7.83996C17.6127 8.15996 18.4133 8.79996 19.0538 9.27996C19.6942 9.91996 20.3347 10.72 20.815 11.52C21.2954 12.48 21.7757 13.44 22.096 14.72C22.4162 16 22.5763 17.44 22.5763 19.04C22.5763 20.64 22.4162 22.24 22.096 23.36C21.7757 24.64 21.2954 25.76 20.815 26.56C20.3347 27.52 19.6942 28.16 19.0538 28.8C18.4133 29.44 17.6127 29.92 16.9723 30.24C15.3711 31.04 13.4497 31.52 11.3682 31.52C9.28671 31.52 7.36532 31.04 5.60405 30.24C4.96358 29.92 4.16301 29.44 3.52254 28.8C2.88208 28.16 2.24162 27.36 1.76127 26.56C1.28092 25.6 0.800578 24.64 0.480347 23.36C0.160116 22.4 0 20.96 0 19.2ZM11.3682 12C10.2474 12 9.28671 12.32 8.48613 12.8C7.84567 13.28 7.2052 13.92 6.88497 14.56C6.56474 15.2 6.24451 16 6.08439 16.8C5.92428 17.6 5.92428 18.4 5.92428 19.04C5.92428 19.68 5.92428 20.48 6.08439 21.28C6.24451 22.08 6.40462 22.88 6.88497 23.68C7.2052 24.32 7.84567 24.96 8.48613 25.44C9.28671 25.92 10.2474 26.24 11.3682 26.24C12.489 26.24 13.4497 25.92 14.2503 25.44C15.0509 24.96 15.5312 24.32 16.0116 23.68C16.3318 22.88 16.652 22.08 16.8121 21.28C16.9723 20.48 16.9723 19.68 16.9723 19.04C16.9723 18.4 16.9723 17.6 16.8121 16.8C16.652 16 16.4919 15.2 16.0116 14.56C15.5312 13.92 15.0509 13.28 14.2503 12.8C13.6098 12.32 12.6491 12 11.3682 12Z" fill="#00A013"/>
<path d="M37.627 12C36.346 12 35.3853 12.16 34.5848 12.64C33.7842 13.12 33.3038 13.6 32.8235 14.4C32.5033 15.04 32.183 15.84 32.0229 16.64C32.183 17.6 32.0229 18.4 32.0229 19.2C32.0229 19.84 32.0229 20.64 32.183 21.44C32.3431 22.24 32.5033 23.04 32.9836 23.84C33.464 24.48 33.9443 25.12 34.7449 25.6C35.5455 26.08 36.5061 26.4 37.627 26.4C38.7478 26.4 39.7085 26.08 40.509 25.6C41.3096 25.12 41.79 24.48 42.2703 23.84C42.5905 23.04 42.9108 22.24 43.0709 21.44C43.231 20.64 43.231 19.84 43.231 19.2C43.231 18.56 43.231 17.76 43.0709 16.96C42.9108 16.16 42.7507 15.36 42.2703 14.72C41.9501 13.92 41.3096 13.44 40.509 12.96C39.7085 12.32 38.7478 12 37.627 12ZM26.4189 19.36C26.4189 17.28 26.579 15.52 27.0593 13.92C27.5397 12.32 28.1801 11.04 28.9807 9.91996C29.9414 8.79996 31.0622 7.99996 32.5033 7.35996C33.9443 6.71996 35.7056 6.39996 37.627 6.39996C39.7085 6.39996 41.6298 6.87996 43.231 7.83996C43.8715 8.15996 44.672 8.79996 45.3125 9.27996C45.953 9.91996 46.5934 10.72 47.0738 11.52C47.5541 12.48 48.0345 13.44 48.3547 14.72C48.6749 16 48.8351 17.44 48.8351 19.04C48.8351 20.64 48.6749 22.24 48.3547 23.36C48.0345 24.64 47.7142 25.76 47.0738 26.56C46.5934 27.52 45.953 28.16 45.3125 28.8C44.672 29.44 44.0316 29.92 43.3911 30.24C41.79 31.04 40.0287 31.52 38.1073 31.52C37.1466 31.52 36.1859 31.2 35.2252 30.88C34.4246 30.56 33.6241 30.08 32.8235 29.28C32.0229 28.64 31.2223 27.52 30.742 26.24L31.8628 27.68V39.2H26.0986V19.36H26.4189Z" fill="#00A013"/>
<path d="M73.4933 16.16C73.4933 16.64 73.6534 17.12 73.6534 17.6C73.6534 18.08 73.8136 18.72 73.8136 19.2V20H57.0014C57.0014 20.48 57.1615 21.12 57.3217 21.76C57.4818 22.24 57.6419 22.88 57.802 23.36C58.1222 24.16 58.7627 24.96 59.4032 25.6C60.2037 26.24 61.1644 26.56 62.4454 26.56C63.7263 26.56 64.8471 26.24 65.4876 25.6C66.2881 24.96 66.7685 24.16 67.0887 23.36H73.3332C73.013 24.48 72.6928 25.44 72.2124 26.24C71.7321 27.04 71.2517 27.84 70.6112 28.48C70.1309 29.12 69.4904 29.6 68.85 30.08C68.2095 30.4 67.5691 30.72 66.9286 31.04C65.6477 31.68 64.0465 31.84 62.4454 31.84C60.3639 31.84 58.4425 31.36 56.6812 30.56C56.0407 30.24 55.2402 29.76 54.5997 29.12C53.9592 28.48 53.3188 27.68 52.8384 26.88C52.3581 25.92 51.8777 24.96 51.5575 23.68C51.2373 22.4 51.0771 20.96 51.0771 19.36C51.0771 17.76 51.2373 16.16 51.5575 15.04C51.8777 13.76 52.3581 12.64 52.8384 11.84C53.3188 10.88 53.9592 10.08 54.5997 9.59996C55.2402 8.95996 56.0407 8.47996 56.6812 8.15996C58.2824 6.87996 60.2037 6.39996 62.4454 6.39996C64.2066 6.39996 65.8078 6.87996 67.4089 7.51996C68.0494 7.83996 68.6899 8.15996 69.3303 8.63996C69.9708 9.11996 70.6113 9.59996 71.0916 10.4C71.7321 11.04 72.2124 11.84 72.5326 12.8C73.013 13.76 73.3332 14.88 73.4933 16.16ZM67.4089 16.16C67.2488 15.68 67.0887 15.2 66.7685 14.56C66.6084 14.08 66.2881 13.6 65.8078 13.12C65.3274 12.64 64.8471 12.32 64.3667 12.16C63.7263 11.84 63.0858 11.84 62.2852 11.84C61.4847 11.84 60.8442 12 60.2037 12.16C59.7234 12.48 59.243 12.8 58.9228 13.12C58.4425 13.6 58.1222 14.08 57.9621 14.56C57.6419 15.04 57.4818 15.52 57.3217 16.16H67.4089Z" fill="#00A013"/>
<path d="M86.6222 6.39996C86.7824 6.39996 87.1026 6.39996 87.5829 6.39996C88.2234 6.39996 88.8639 6.55996 89.6644 6.87996C90.465 7.03996 91.2656 7.51996 92.2263 7.99996C93.187 8.47996 93.9876 9.27996 94.7881 10.24C95.5887 11.2 96.2292 12.48 96.7095 13.92C97.1899 15.36 97.5101 17.12 97.5101 19.36V31.52H91.5858V19.2C91.5858 18.56 91.5858 17.76 91.4257 16.96C91.2656 16.16 91.1055 15.52 90.6251 14.88C90.3049 14.24 89.8246 13.76 89.1841 13.44C88.5436 12.96 87.743 12.8 86.6222 12.8C85.5014 12.8 84.7009 12.96 84.0604 13.44C83.4199 13.76 82.9396 14.4 82.6193 14.88C82.2991 15.36 81.9789 16.16 81.8188 16.96C81.6587 17.76 81.6587 18.56 81.6587 19.2V31.36H75.7344V19.2C75.7344 17.12 76.0546 15.2 76.535 13.76C77.0153 12.32 77.6558 11.2 78.4563 10.24C79.2569 9.27996 80.0575 8.47996 81.0182 7.99996C81.9789 7.51996 82.7795 7.03996 83.58 6.87996C84.3806 6.55996 85.0211 6.39996 85.6615 6.39996C86.1419 6.39996 86.4621 6.39996 86.6222 6.39996Z" fill="#00A013"/>
<path d="M113.682 11.68C112.401 11.68 111.44 11.84 110.64 12.32C109.839 12.8 109.359 13.28 108.878 14.08C108.558 14.72 108.238 15.52 108.078 16.32C107.918 17.12 107.918 18.08 107.918 18.88C107.918 19.52 107.918 20.32 108.078 21.12C108.238 21.92 108.398 22.72 108.878 23.52C109.359 24.16 109.839 24.8 110.64 25.28C111.44 25.76 112.401 26.08 113.522 26.08C114.642 26.08 115.603 25.76 116.404 25.28C117.204 24.8 117.685 24.16 118.165 23.52C118.485 22.72 118.805 21.92 118.966 21.12C119.126 20.32 119.126 19.52 119.126 18.88C119.126 18.24 119.126 17.44 118.966 16.64C118.805 15.84 118.645 15.04 118.165 14.4C117.845 13.6 117.204 13.12 116.404 12.64C115.923 11.84 114.963 11.68 113.682 11.68ZM102.474 18.88C102.474 16.8 102.634 15.04 103.114 13.44C103.594 11.84 104.235 10.56 105.035 9.44004C105.996 8.32004 107.117 7.52004 108.558 6.88004C109.999 6.24004 111.76 5.92004 113.682 5.92004C115.763 5.92004 117.685 6.40004 119.286 7.36004C119.926 7.68004 120.727 8.32004 121.367 8.80004C122.168 9.44004 122.808 10.24 123.289 11.2C123.769 12.16 124.249 13.12 124.57 14.4C124.89 15.68 125.05 17.12 125.05 18.72C125.05 20.32 124.89 21.92 124.57 23.04C124.249 24.32 123.929 25.44 123.289 26.24C122.808 27.2 122.168 27.84 121.527 28.48C120.887 29.12 120.246 29.6 119.606 29.92C118.005 30.72 116.244 31.2 114.322 31.2C113.361 31.2 112.401 30.88 111.44 30.56C110.64 30.24 109.839 29.76 109.038 28.96C108.238 28.32 107.437 27.2 106.957 25.92L108.078 27.36V38.88H102.474V18.88Z" fill="white"/>
<path d="M149.708 31.04H143.944V27.68L145.065 26.24C144.584 27.52 143.784 28.64 142.983 29.28C142.183 29.92 141.382 30.56 140.582 30.88C139.621 31.2 138.66 31.52 137.699 31.52C135.778 31.52 134.017 31.04 132.416 30.24C131.775 29.92 131.135 29.44 130.494 28.8C129.854 28.16 129.373 27.36 128.733 26.56C128.253 25.6 127.772 24.64 127.452 23.36C127.132 22.08 126.972 20.64 126.972 19.04C126.972 17.44 127.132 15.84 127.452 14.72C127.772 13.44 128.253 12.32 128.733 11.52C129.213 10.56 129.854 9.75996 130.494 9.27996C131.135 8.63996 131.935 8.15996 132.576 7.83996C134.177 6.87996 136.098 6.39996 138.34 6.39996C140.421 6.39996 142.023 6.71996 143.464 7.35996C144.905 7.99996 146.025 8.79996 146.986 9.91996C147.947 11.04 148.587 12.32 149.068 13.92C149.548 15.52 149.708 17.28 149.708 19.36V31.04V31.04ZM138.34 11.68C137.219 11.68 136.258 12 135.458 12.48C134.817 12.96 134.177 13.6 133.857 14.24C133.536 14.88 133.216 15.68 133.056 16.48C132.896 17.28 132.896 18.08 132.896 18.72C132.896 19.36 132.896 20.16 133.056 20.96C133.216 21.76 133.376 22.56 133.857 23.36C134.177 24 134.817 24.64 135.458 25.12C136.258 25.6 137.219 25.92 138.34 25.92C139.461 25.92 140.421 25.6 141.222 25.12C142.023 24.64 142.503 24 142.983 23.36C143.464 22.56 143.624 21.76 143.784 20.96C143.944 20.16 143.944 19.36 143.944 18.72C143.944 17.92 143.944 16.96 143.784 16.16C143.624 15.36 143.464 14.56 142.983 13.92C142.663 13.28 142.023 12.64 141.382 12.16C140.582 11.84 139.621 11.68 138.34 11.68Z" fill="white"/>
<path d="M162.196 16.16C162.677 16.16 163.317 16.16 163.958 16.16C164.758 16.16 165.559 16.16 166.52 16.32C167.48 16.48 168.281 16.64 169.241 16.96C170.202 17.28 171.003 17.6 171.803 18.08C172.604 18.56 173.084 19.2 173.565 20C174.045 20.8 174.365 21.76 174.365 23.04C174.365 24.96 173.885 26.4 173.084 27.52C172.284 28.64 171.323 29.44 170.042 30.08C168.921 30.72 167.64 31.04 166.199 31.2C164.918 31.36 163.637 31.52 162.517 31.52C162.356 31.52 161.876 31.52 161.236 31.52C160.595 31.52 159.795 31.36 158.994 31.2C158.193 31.04 157.233 30.72 156.272 30.4C155.311 30.08 154.511 29.6 153.71 28.96C152.91 28.32 152.269 27.36 151.789 26.4C151.309 25.28 150.988 24 150.988 22.56H156.913C156.913 22.88 156.913 23.2 157.073 23.68C157.233 24 157.393 24.48 157.713 24.8C158.033 25.12 158.674 25.6 159.314 25.76C159.955 26.08 160.915 26.24 162.196 26.24C163.637 26.24 164.918 26.24 165.719 26.08C166.52 25.92 167.16 25.76 167.48 25.44C167.8 25.12 168.121 24.8 168.121 24.64C168.281 24.32 168.281 24 168.281 23.84C168.281 23.52 168.281 23.2 168.121 23.04C167.961 22.88 167.8 22.56 167.32 22.24C167 21.92 166.359 21.76 165.399 21.6C164.598 21.44 163.317 21.28 161.876 21.28C160.755 21.28 159.635 21.12 158.354 20.8C157.233 20.48 156.112 20 155.151 19.52C154.191 18.88 153.39 18.08 152.91 17.28C152.269 16.32 152.109 15.36 152.109 14.08C152.109 12.8 152.429 11.52 152.91 10.56C153.55 9.59996 154.191 8.63996 155.151 7.99996C156.112 7.35996 157.233 6.87996 158.354 6.55996C159.635 6.23996 160.915 6.07996 162.196 6.07996C162.837 6.07996 163.798 6.23996 165.078 6.39996C166.199 6.55996 167.48 6.87996 168.601 7.51996C169.722 8.15996 170.683 8.95996 171.483 10.08C172.284 11.2 172.764 12.8 172.764 14.72H166.84C166.84 13.76 166.52 12.96 165.719 12.32C165.078 11.68 163.798 11.36 162.036 11.36C160.755 11.36 159.635 11.68 158.834 12.16C158.033 12.64 157.553 13.28 157.553 14.24C157.553 15.04 157.873 15.68 158.674 16C159.955 16 161.076 16.16 162.196 16.16Z" fill="white"/>
<path d="M186.375 16.16C186.855 16.16 187.496 16.16 188.136 16.16C188.937 16.16 189.737 16.16 190.698 16.32C191.659 16.48 192.459 16.64 193.42 16.96C194.381 17.28 195.181 17.6 195.982 18.08C196.783 18.56 197.263 19.2 197.743 20C198.224 20.8 198.384 21.76 198.384 23.04C198.384 24.96 197.903 26.4 197.103 27.52C196.302 28.64 195.342 29.44 194.061 30.08C192.94 30.72 191.659 31.04 190.218 31.2C188.937 31.36 187.656 31.52 186.535 31.52C186.375 31.52 185.895 31.52 185.254 31.52C184.614 31.52 183.813 31.36 183.013 31.2C182.212 31.04 181.251 30.72 180.291 30.4C179.33 30.08 178.529 29.6 177.729 28.96C176.928 28.32 176.288 27.36 175.807 26.4C175.327 25.28 175.007 24 175.007 22.56H180.931C180.931 22.88 180.931 23.2 181.091 23.68C181.251 24 181.411 24.48 181.732 24.8C182.052 25.12 182.692 25.6 183.333 25.76C183.973 26.08 184.934 26.24 186.215 26.24C187.656 26.24 188.937 26.24 189.737 26.08C190.538 25.92 191.179 25.76 191.499 25.44C191.819 25.12 192.139 24.8 192.139 24.64C192.299 24.32 192.299 24 192.299 23.84C192.299 23.52 192.299 23.2 192.139 23.04C191.979 22.88 191.819 22.56 191.339 22.24C191.018 21.92 190.378 21.76 189.417 21.6C188.617 21.44 187.336 21.28 185.895 21.28C184.774 21.28 183.653 21.12 182.372 20.8C181.251 20.48 180.131 20 179.17 19.52C178.209 18.88 177.409 18.08 176.928 17.28C176.448 16.48 176.128 15.36 176.128 14.08C176.128 12.8 176.448 11.52 176.928 10.56C177.569 9.59996 178.209 8.63996 179.17 7.99996C180.131 7.35996 181.251 6.87996 182.372 6.55996C183.653 6.23996 184.934 6.07996 186.215 6.07996C186.855 6.07996 187.816 6.23996 189.097 6.39996C190.218 6.55996 191.499 6.87996 192.62 7.51996C193.74 8.15996 194.701 8.95996 195.502 10.08C196.302 11.2 196.783 12.8 196.783 14.72H190.858C190.858 13.76 190.538 12.96 189.737 12.32C189.097 11.68 187.816 11.36 186.055 11.36C184.774 11.36 183.653 11.68 182.852 12.16C182.052 12.64 181.572 13.28 181.572 14.24C181.572 15.04 181.892 15.68 182.692 16C184.133 16 185.254 16.16 186.375 16.16Z" fill="white"/>
<path d="M211.192 11.68C209.911 11.68 208.951 11.84 208.15 12.32C207.35 12.8 206.869 13.28 206.389 14.08C206.069 14.72 205.748 15.52 205.748 16.32C205.588 17.12 205.588 18.08 205.588 18.88C205.588 19.52 205.588 20.32 205.748 21.12C205.909 21.92 206.069 22.72 206.549 23.52C207.029 24.16 207.51 24.8 208.31 25.28C209.111 25.76 210.072 26.08 211.192 26.08C212.313 26.08 213.274 25.76 214.074 25.28C214.875 24.8 215.355 24.16 215.836 23.52C216.156 22.72 216.476 21.92 216.636 21.12C216.796 20.32 216.796 19.52 216.796 18.88C216.796 18.24 216.796 17.44 216.636 16.64C216.476 15.84 216.316 15.04 215.836 14.4C215.516 13.6 214.875 13.12 214.074 12.64C213.434 11.84 212.473 11.68 211.192 11.68ZM199.984 18.88C199.984 16.8 200.144 15.04 200.625 13.44C201.105 11.84 201.746 10.56 202.546 9.44004C203.507 8.32004 204.628 7.52004 206.069 6.88004C207.51 6.24004 209.271 5.92004 211.192 5.92004C213.274 5.92004 215.195 6.40004 216.796 7.36004C217.437 7.68004 218.237 8.32004 218.878 8.80004C219.518 9.44004 220.159 10.24 220.639 11.04C221.12 12 221.6 12.96 221.92 14.24C222.24 15.52 222.4 16.96 222.4 18.56C222.4 20.16 222.24 21.76 221.92 22.88C221.6 24.16 221.28 25.28 220.639 26.08C220.159 27.04 219.518 27.68 218.878 28.32C218.237 28.96 217.597 29.44 216.957 29.76C215.355 30.56 213.594 31.04 211.673 31.04C210.712 31.04 209.751 30.72 208.791 30.4C207.99 30.08 207.189 29.6 206.389 28.8C205.588 28.16 204.788 27.04 204.307 25.76L205.428 27.2V38.72H199.664V18.88H199.984Z" fill="white"/>
<path d="M224.482 18.88C224.482 17.28 224.643 15.68 224.963 14.56C225.283 13.44 225.763 12.16 226.244 11.36C226.724 10.4 227.364 9.59999 228.005 9.11999C228.645 8.47999 229.446 7.99999 230.086 7.67999C231.688 6.71999 233.609 6.23999 235.851 6.23999C237.932 6.23999 239.854 6.71999 241.455 7.67999C242.095 7.99999 242.896 8.63999 243.536 9.11999C244.177 9.75999 244.817 10.56 245.297 11.36C245.778 12.32 246.258 13.28 246.578 14.56C246.899 15.84 247.059 17.28 247.059 18.88C247.059 20.48 246.899 22.08 246.578 23.2C246.258 24.48 245.778 25.6 245.297 26.4C244.817 27.36 244.177 28 243.536 28.64C242.896 29.28 242.095 29.76 241.455 30.08C239.854 30.88 237.932 31.36 235.851 31.36C233.769 31.36 231.848 30.88 230.086 30.08C229.446 29.76 228.645 29.28 228.005 28.64C227.364 28 226.724 27.2 226.244 26.4C225.763 25.44 225.283 24.48 224.963 23.2C224.643 21.92 224.482 20.48 224.482 18.88ZM235.851 11.68C234.73 11.68 233.769 12 232.969 12.48C232.328 12.96 231.688 13.6 231.367 14.24C231.047 14.88 230.727 15.68 230.567 16.48C230.407 17.28 230.407 18.08 230.407 18.72C230.407 19.36 230.407 20.16 230.567 20.96C230.727 21.76 230.887 22.56 231.367 23.36C231.688 24 232.328 24.64 232.969 25.12C233.769 25.6 234.73 25.92 235.851 25.92C236.971 25.92 237.932 25.6 238.733 25.12C239.533 24.64 240.014 24 240.494 23.36C240.814 22.56 241.134 21.76 241.295 20.96C241.455 20.16 241.455 19.36 241.455 18.72C241.455 18.08 241.455 17.28 241.295 16.48C241.134 15.68 240.974 14.88 240.494 14.24C240.174 13.44 239.533 12.96 238.733 12.48C237.932 11.84 236.971 11.68 235.851 11.68Z" fill="white"/>
<path d="M249.14 13.76C249.14 12.16 249.46 10.72 250.26 9.92C250.901 8.96 251.701 8.16 252.502 7.68C253.463 7.04 254.584 6.72 255.865 6.56H262.589V12.32H258.106C257.466 12.32 256.985 12.48 256.505 12.64C256.185 12.8 255.865 13.12 255.544 13.44C255.224 13.76 255.064 14.08 255.064 14.56V31.04H249.14V13.76V13.76Z" fill="white"/>
<path d="M270.276 12.32V23.04C270.436 23.36 270.596 23.84 270.756 24.16C270.916 24.48 271.237 24.64 271.717 24.96C272.197 25.12 272.678 25.28 273.318 25.28H277.001V31.04H271.076C269.796 30.88 268.675 30.56 267.714 29.92C266.913 29.44 266.113 28.8 265.472 27.84C264.832 26.88 264.512 25.6 264.512 23.84V0H270.436V6.56H276.04V12.32H270.276V12.32Z" fill="white"/>
</svg>
