<?xml version="1.0" encoding="utf-8"?>
<!-- Generator: Adobe Illustrator 23.0.1, SVG Export Plug-In . SVG Version: 6.00 Build 0)  -->
<svg version="1.1" id="Layer_1" xmlns="http://www.w3.org/2000/svg" xmlns:xlink="http://www.w3.org/1999/xlink" x="0px" y="0px"
	 viewBox="0 0 173 25" style="enable-background:new 0 0 173 25;" xml:space="preserve">
<style type="text/css">
	.st0{fill:#D93E69;}
	.st1{fill:#FFFFFF;}
</style>
<path class="st0" d="M0,12c0-1,0.1-2,0.3-2.7c0.2-0.8,0.5-1.5,0.8-2c0.3-0.6,0.7-1.1,1.1-1.4c0.4-0.4,0.9-0.7,1.3-0.9
	C4.6,4.3,5.8,4,7.1,4c1.3,0,2.5,0.3,3.5,0.9c0.4,0.2,0.9,0.6,1.3,0.9c0.4,0.4,0.8,0.9,1.1,1.4c0.3,0.6,0.6,1.2,0.8,2
	c0.2,0.8,0.3,1.7,0.3,2.7s-0.1,2-0.3,2.7c-0.2,0.8-0.5,1.5-0.8,2c-0.3,0.6-0.7,1-1.1,1.4c-0.4,0.4-0.9,0.7-1.3,0.9
	c-1,0.5-2.2,0.8-3.5,0.8c-1.3,0-2.5-0.3-3.6-0.8c-0.4-0.2-0.9-0.5-1.3-0.9c-0.4-0.4-0.8-0.9-1.1-1.4c-0.3-0.6-0.6-1.2-0.8-2
	C0.1,14,0,13.1,0,12z M7.1,7.5C6.4,7.5,5.8,7.7,5.3,8c-0.4,0.3-0.8,0.7-1,1.1c-0.2,0.4-0.4,0.9-0.5,1.4c-0.1,0.5-0.1,1-0.1,1.4
	s0,0.9,0.1,1.4c0.1,0.5,0.2,1,0.5,1.5c0.2,0.4,0.6,0.8,1,1.1c0.5,0.3,1.1,0.5,1.8,0.5s1.3-0.2,1.8-0.5c0.5-0.3,0.8-0.7,1.1-1.1
	c0.2-0.5,0.4-1,0.5-1.5c0.1-0.5,0.1-1,0.1-1.4s0-0.9-0.1-1.4c-0.1-0.5-0.2-1-0.5-1.4C9.7,8.7,9.4,8.3,8.9,8C8.5,7.7,7.9,7.5,7.1,7.5
	z"/>
<path class="st0" d="M23.5,7.5c-0.8,0-1.4,0.1-1.9,0.4c-0.5,0.3-0.8,0.6-1.1,1.1c-0.2,0.4-0.4,0.9-0.5,1.4C20.1,11,20,11.5,20,12
	c0,0.4,0,0.9,0.1,1.4c0.1,0.5,0.2,1,0.5,1.5c0.3,0.4,0.6,0.8,1.1,1.1c0.5,0.3,1.1,0.5,1.8,0.5c0.7,0,1.3-0.2,1.8-0.5
	c0.5-0.3,0.8-0.7,1.1-1.1c0.2-0.5,0.4-1,0.5-1.5c0.1-0.5,0.1-1,0.1-1.4s0-0.9-0.1-1.4c-0.1-0.5-0.2-1-0.5-1.4
	c-0.2-0.5-0.6-0.8-1.1-1.1C24.8,7.7,24.2,7.5,23.5,7.5z M16.5,12.1c0-1.3,0.1-2.4,0.4-3.4c0.3-1,0.7-1.8,1.2-2.5
	c0.6-0.7,1.3-1.2,2.2-1.6c0.9-0.4,2-0.6,3.2-0.6C24.8,4,26,4.3,27,4.9c0.4,0.2,0.9,0.6,1.3,0.9c0.4,0.4,0.8,0.9,1.1,1.4
	c0.3,0.6,0.6,1.2,0.8,2c0.2,0.8,0.3,1.7,0.3,2.7s-0.1,2-0.3,2.7c-0.2,0.8-0.4,1.5-0.8,2c-0.3,0.6-0.7,1-1.1,1.4
	c-0.4,0.4-0.8,0.7-1.2,0.9c-1,0.5-2.1,0.8-3.3,0.8c-0.6,0-1.2-0.2-1.8-0.4c-0.5-0.2-1-0.5-1.5-1c-0.5-0.4-1-1.1-1.3-1.9l0.7,0.9v7.2
	h-3.6V12.1z"/>
<path class="st0" d="M45.9,10.1c0,0.3,0.1,0.6,0.1,0.9c0,0.3,0.1,0.7,0.1,1v0.5H35.6c0,0.3,0.1,0.7,0.2,1.1c0.1,0.3,0.2,0.7,0.3,1
	c0.2,0.5,0.6,1,1,1.4c0.5,0.4,1.1,0.6,1.9,0.6s1.5-0.2,1.9-0.6c0.5-0.4,0.8-0.9,1-1.4h3.9c-0.2,0.7-0.4,1.3-0.7,1.8
	c-0.3,0.5-0.6,1-1,1.4c-0.3,0.4-0.7,0.7-1.1,1c-0.4,0.2-0.8,0.4-1.2,0.6C41,19.8,40,19.9,39,19.9c-1.3,0-2.5-0.3-3.6-0.8
	c-0.4-0.2-0.9-0.5-1.3-0.9c-0.4-0.4-0.8-0.9-1.1-1.4c-0.3-0.6-0.6-1.2-0.8-2c-0.2-0.8-0.3-1.7-0.3-2.7s0.1-2,0.3-2.7
	c0.2-0.8,0.5-1.5,0.8-2c0.3-0.6,0.7-1.1,1.1-1.4c0.4-0.4,0.9-0.7,1.3-0.9C36.4,4.3,37.6,4,39,4c1.1,0,2.1,0.3,3.1,0.7
	c0.4,0.2,0.8,0.4,1.2,0.7c0.4,0.3,0.8,0.6,1.1,1.1c0.4,0.4,0.7,0.9,0.9,1.5C45.6,8.6,45.8,9.3,45.9,10.1z M42.1,10.1
	c-0.1-0.3-0.2-0.6-0.4-1c-0.1-0.3-0.3-0.6-0.6-0.9c-0.3-0.3-0.6-0.5-0.9-0.6c-0.4-0.2-0.8-0.2-1.3-0.2c-0.5,0-0.9,0.1-1.3,0.2
	C37.3,7.8,37,8,36.8,8.2c-0.3,0.3-0.5,0.6-0.6,0.9c-0.2,0.3-0.3,0.6-0.4,1H42.1z"/>
<path class="st0" d="M54.1,4c0.1,0,0.3,0,0.6,0c0.4,0,0.8,0.1,1.3,0.3c0.5,0.1,1,0.4,1.6,0.7c0.6,0.3,1.1,0.8,1.6,1.4
	c0.5,0.6,0.9,1.4,1.2,2.3c0.3,0.9,0.5,2,0.5,3.4v7.6h-3.7V12c0-0.4,0-0.9-0.1-1.4c-0.1-0.5-0.2-0.9-0.5-1.3
	c-0.2-0.4-0.5-0.7-0.9-0.9c-0.4-0.3-0.9-0.4-1.6-0.4s-1.2,0.1-1.6,0.4c-0.4,0.2-0.7,0.6-0.9,0.9s-0.4,0.8-0.5,1.3
	C51,11.1,51,11.6,51,12v7.6h-3.7V12c0-1.3,0.2-2.5,0.5-3.4C48.1,7.7,48.5,7,49,6.4c0.5-0.6,1-1.1,1.6-1.4c0.6-0.3,1.1-0.6,1.6-0.7
	c0.5-0.2,0.9-0.3,1.3-0.3C53.8,4,54,4,54.1,4z"/>
<path class="st1" d="M71,7.3c-0.8,0-1.4,0.1-1.9,0.4c-0.5,0.3-0.8,0.6-1.1,1.1c-0.2,0.4-0.4,0.9-0.5,1.4c-0.1,0.5-0.1,1.1-0.1,1.6
	c0,0.4,0,0.9,0.1,1.4c0.1,0.5,0.2,1,0.5,1.5c0.3,0.4,0.6,0.8,1.1,1.1c0.5,0.3,1.1,0.5,1.8,0.5s1.3-0.2,1.8-0.5
	c0.5-0.3,0.8-0.7,1.1-1.1c0.2-0.5,0.4-1,0.5-1.5c0.1-0.5,0.1-1,0.1-1.4c0-0.4,0-0.9-0.1-1.4c-0.1-0.5-0.2-1-0.5-1.4
	c-0.2-0.5-0.6-0.8-1.1-1.1C72.4,7.4,71.8,7.3,71,7.3z M64,11.8c0-1.3,0.1-2.4,0.4-3.4c0.3-1,0.7-1.8,1.2-2.5
	c0.6-0.7,1.3-1.2,2.2-1.6c0.9-0.4,2-0.6,3.2-0.6c1.3,0,2.5,0.3,3.5,0.9c0.4,0.2,0.9,0.6,1.3,0.9C76.3,5.9,76.7,6.4,77,7
	c0.3,0.6,0.6,1.2,0.8,2c0.2,0.8,0.3,1.7,0.3,2.7s-0.1,2-0.3,2.7c-0.2,0.8-0.4,1.5-0.8,2c-0.3,0.6-0.7,1-1.1,1.4
	c-0.4,0.4-0.8,0.7-1.2,0.9c-1,0.5-2.1,0.8-3.3,0.8c-0.6,0-1.2-0.2-1.8-0.4c-0.5-0.2-1-0.5-1.5-1c-0.5-0.4-1-1.1-1.3-1.9l0.7,0.9v7.2
	H64V11.8z"/>
<path class="st1" d="M93.5,19.4h-3.6v-2.1l0.7-0.9c-0.3,0.8-0.8,1.5-1.3,1.9c-0.5,0.4-1,0.8-1.5,1c-0.6,0.2-1.2,0.4-1.8,0.4
	c-1.2,0-2.3-0.3-3.3-0.8c-0.4-0.2-0.8-0.5-1.2-0.9c-0.4-0.4-0.7-0.9-1.1-1.4c-0.3-0.6-0.6-1.2-0.8-2c-0.2-0.8-0.3-1.7-0.3-2.7
	s0.1-2,0.3-2.7c0.2-0.8,0.5-1.5,0.8-2c0.3-0.6,0.7-1.1,1.1-1.4c0.4-0.4,0.9-0.7,1.3-0.9c1-0.6,2.2-0.9,3.6-0.9
	c1.3,0,2.3,0.2,3.2,0.6c0.9,0.4,1.6,0.9,2.2,1.6c0.6,0.7,1,1.5,1.3,2.5c0.3,1,0.4,2.1,0.4,3.4V19.4z M86.4,7.3
	c-0.7,0-1.3,0.2-1.8,0.5c-0.4,0.3-0.8,0.7-1,1.1c-0.2,0.4-0.4,0.9-0.5,1.4c-0.1,0.5-0.1,1-0.1,1.4c0,0.4,0,0.9,0.1,1.4
	c0.1,0.5,0.2,1,0.5,1.5c0.2,0.4,0.6,0.8,1,1.1c0.5,0.3,1.1,0.5,1.8,0.5c0.7,0,1.3-0.2,1.8-0.5c0.5-0.3,0.8-0.7,1.1-1.1
	c0.3-0.5,0.4-1,0.5-1.5c0.1-0.5,0.1-1,0.1-1.4c0-0.5,0-1.1-0.1-1.6c-0.1-0.5-0.2-1-0.5-1.4c-0.2-0.4-0.6-0.8-1-1.1
	C87.8,7.4,87.2,7.3,86.4,7.3z"/>
<path class="st1" d="M101.3,10.1c0.3,0,0.7,0,1.1,0c0.5,0,1,0,1.6,0.1c0.6,0.1,1.1,0.2,1.7,0.4c0.6,0.2,1.1,0.4,1.6,0.7
	c0.5,0.3,0.8,0.7,1.1,1.2c0.3,0.5,0.5,1.1,0.5,1.9c0,1.2-0.3,2.1-0.8,2.8c-0.5,0.7-1.1,1.2-1.9,1.6c-0.7,0.4-1.5,0.6-2.4,0.7
	c-0.8,0.1-1.6,0.2-2.3,0.2c-0.1,0-0.4,0-0.8,0c-0.4,0-0.9-0.1-1.4-0.2c-0.5-0.1-1.1-0.3-1.7-0.5c-0.6-0.2-1.1-0.5-1.6-0.9
	c-0.5-0.4-0.9-1-1.2-1.6c-0.3-0.7-0.5-1.5-0.5-2.4h3.7c0,0.2,0,0.4,0.1,0.7c0.1,0.2,0.2,0.5,0.4,0.7c0.2,0.2,0.6,0.5,1,0.6
	c0.4,0.2,1,0.3,1.8,0.3c0.9,0,1.7,0,2.2-0.1c0.5-0.1,0.9-0.2,1.1-0.4c0.2-0.2,0.4-0.4,0.4-0.5c0.1-0.2,0.1-0.4,0.1-0.5
	c0-0.2,0-0.4-0.1-0.5s-0.2-0.3-0.5-0.5c-0.2-0.2-0.6-0.3-1.2-0.4c-0.5-0.1-1.3-0.2-2.2-0.2c-0.7,0-1.4-0.1-2.2-0.3
	c-0.7-0.2-1.4-0.5-2-0.8c-0.6-0.4-1.1-0.9-1.4-1.4c-0.4-0.6-0.5-1.2-0.5-2c0-0.8,0.2-1.6,0.5-2.2c0.4-0.6,0.8-1.2,1.4-1.6
	c0.6-0.4,1.3-0.7,2-0.9c0.8-0.2,1.6-0.3,2.4-0.3c0.4,0,1,0.1,1.8,0.2c0.7,0.1,1.5,0.3,2.2,0.7c0.7,0.4,1.3,0.9,1.8,1.6
	c0.5,0.7,0.8,1.7,0.8,2.9h-3.7c0-0.6-0.2-1.1-0.7-1.5c-0.4-0.4-1.2-0.6-2.3-0.6c-0.8,0-1.5,0.2-2,0.5c-0.5,0.3-0.8,0.7-0.8,1.3
	c0,0.5,0.2,0.9,0.7,1.1C99.9,10,100.6,10.1,101.3,10.1z"/>
<path class="st1" d="M116.4,10.1c0.3,0,0.7,0,1.1,0c0.5,0,1,0,1.6,0.1c0.6,0.1,1.1,0.2,1.7,0.4c0.6,0.2,1.1,0.4,1.6,0.7
	c0.5,0.3,0.8,0.7,1.1,1.2c0.3,0.5,0.4,1.1,0.4,1.9c0,1.2-0.3,2.1-0.8,2.8c-0.5,0.7-1.1,1.2-1.9,1.6c-0.7,0.4-1.5,0.6-2.4,0.7
	c-0.8,0.1-1.6,0.2-2.3,0.2c-0.1,0-0.4,0-0.8,0c-0.4,0-0.9-0.1-1.4-0.2c-0.5-0.1-1.1-0.3-1.7-0.5c-0.6-0.2-1.1-0.5-1.6-0.9
	c-0.5-0.4-0.9-1-1.2-1.6c-0.3-0.7-0.5-1.5-0.5-2.4h3.7c0,0.2,0,0.4,0.1,0.7c0.1,0.2,0.2,0.5,0.4,0.7s0.6,0.5,1,0.6
	c0.4,0.2,1,0.3,1.8,0.3c0.9,0,1.7,0,2.2-0.1c0.5-0.1,0.9-0.2,1.1-0.4c0.2-0.2,0.4-0.4,0.4-0.5c0.1-0.2,0.1-0.4,0.1-0.5
	c0-0.2,0-0.4-0.1-0.5s-0.2-0.3-0.5-0.5c-0.2-0.2-0.6-0.3-1.2-0.4c-0.5-0.1-1.3-0.2-2.2-0.2c-0.7,0-1.4-0.1-2.2-0.3
	c-0.7-0.2-1.4-0.5-2-0.8c-0.6-0.4-1.1-0.9-1.4-1.4s-0.5-1.2-0.5-2c0-0.8,0.2-1.6,0.5-2.2c0.4-0.6,0.8-1.2,1.4-1.6
	c0.6-0.4,1.3-0.7,2-0.9c0.8-0.2,1.6-0.3,2.4-0.3c0.4,0,1,0.1,1.8,0.2c0.7,0.1,1.5,0.3,2.2,0.7c0.7,0.4,1.3,0.9,1.8,1.6
	c0.5,0.7,0.8,1.7,0.8,2.9h-3.7c0-0.6-0.2-1.1-0.7-1.5c-0.4-0.4-1.2-0.6-2.3-0.6c-0.8,0-1.5,0.2-2,0.5c-0.5,0.3-0.8,0.7-0.8,1.3
	c0,0.5,0.2,0.9,0.7,1.1C115,10,115.7,10.1,116.4,10.1z"/>
<path class="st1" d="M131.9,7.3c-0.8,0-1.4,0.1-1.9,0.4c-0.5,0.3-0.8,0.6-1.1,1.1c-0.2,0.4-0.4,0.9-0.4,1.4
	c-0.1,0.5-0.1,1.1-0.1,1.6c0,0.4,0,0.9,0.1,1.4c0.1,0.5,0.2,1,0.5,1.5c0.3,0.4,0.6,0.8,1.1,1.1c0.5,0.3,1.1,0.5,1.8,0.5
	c0.7,0,1.3-0.2,1.8-0.5c0.5-0.3,0.8-0.7,1.1-1.1c0.2-0.5,0.4-1,0.5-1.5c0.1-0.5,0.1-1,0.1-1.4c0-0.4,0-0.9-0.1-1.4
	c-0.1-0.5-0.2-1-0.5-1.4c-0.2-0.5-0.6-0.8-1.1-1.1C133.3,7.4,132.7,7.3,131.9,7.3z M124.9,11.8c0-1.3,0.1-2.4,0.4-3.4
	c0.3-1,0.7-1.8,1.2-2.5c0.6-0.7,1.3-1.2,2.2-1.6c0.9-0.4,2-0.6,3.2-0.6c1.3,0,2.5,0.3,3.5,0.9c0.4,0.2,0.9,0.6,1.3,0.9
	c0.4,0.4,0.8,0.9,1.1,1.4c0.3,0.6,0.6,1.2,0.8,2c0.2,0.8,0.3,1.7,0.3,2.7s-0.1,2-0.3,2.7c-0.2,0.8-0.4,1.5-0.8,2
	c-0.3,0.6-0.7,1-1.1,1.4c-0.4,0.4-0.8,0.7-1.2,0.9c-1,0.5-2.1,0.8-3.3,0.8c-0.6,0-1.2-0.2-1.8-0.4c-0.5-0.2-1-0.5-1.5-1
	c-0.5-0.4-1-1.1-1.3-1.9l0.7,0.9v7.2h-3.6V11.8z"/>
<path class="st1" d="M140.2,11.8c0-1,0.1-2,0.3-2.7s0.5-1.5,0.8-2c0.3-0.6,0.7-1.1,1.1-1.4c0.4-0.4,0.9-0.7,1.3-0.9
	c1-0.6,2.2-0.9,3.6-0.9c1.3,0,2.5,0.3,3.5,0.9c0.4,0.2,0.9,0.6,1.3,0.9c0.4,0.4,0.8,0.9,1.1,1.4c0.3,0.6,0.6,1.2,0.8,2
	c0.2,0.8,0.3,1.7,0.3,2.7s-0.1,2-0.3,2.7c-0.2,0.8-0.5,1.5-0.8,2c-0.3,0.6-0.7,1-1.1,1.4c-0.4,0.4-0.9,0.7-1.3,0.9
	c-1,0.5-2.2,0.8-3.5,0.8c-1.3,0-2.5-0.3-3.6-0.8c-0.4-0.2-0.9-0.5-1.3-0.9c-0.4-0.4-0.8-0.9-1.1-1.4c-0.3-0.6-0.6-1.2-0.8-2
	C140.3,13.7,140.2,12.8,140.2,11.8z M147.3,7.3c-0.7,0-1.3,0.2-1.8,0.5c-0.4,0.3-0.8,0.7-1,1.1c-0.2,0.4-0.4,0.9-0.5,1.4
	c-0.1,0.5-0.1,1-0.1,1.4c0,0.4,0,0.9,0.1,1.4c0.1,0.5,0.2,1,0.5,1.5c0.2,0.4,0.6,0.8,1,1.1c0.5,0.3,1.1,0.5,1.8,0.5
	c0.7,0,1.3-0.2,1.8-0.5c0.5-0.3,0.8-0.7,1.1-1.1c0.2-0.5,0.4-1,0.5-1.5c0.1-0.5,0.1-1,0.1-1.4c0-0.4,0-0.9-0.1-1.4
	c-0.1-0.5-0.2-1-0.5-1.4c-0.2-0.5-0.6-0.8-1.1-1.1C148.6,7.4,148,7.3,147.3,7.3z"/>
<path class="st1" d="M155.6,8.6c0-1,0.2-1.9,0.7-2.4c0.4-0.6,0.9-1.1,1.4-1.4c0.6-0.4,1.3-0.6,2.1-0.7h4.2v3.6h-2.8
	c-0.4,0-0.7,0.1-1,0.2c-0.2,0.1-0.4,0.3-0.6,0.5c-0.2,0.2-0.3,0.4-0.3,0.7v10.3h-3.7V8.6z"/>
<path class="st1" d="M168.8,7.7v6.7c0.1,0.2,0.2,0.5,0.3,0.7c0.1,0.2,0.3,0.3,0.6,0.5c0.3,0.1,0.6,0.2,1,0.2h2.3v3.6h-3.7
	c-0.8-0.1-1.5-0.3-2.1-0.7c-0.5-0.3-1-0.7-1.4-1.3c-0.4-0.6-0.6-1.4-0.6-2.5V0h3.7v4.1h3.5v3.6H168.8z"/>
</svg>
