<svg width="47" height="44" viewBox="0 0 47 44" fill="none" xmlns="http://www.w3.org/2000/svg">
<path d="M13.0706 38.054C13.0706 41.3379 10.4086 44 7.12466 44C3.84075 44 1.17871 41.3379 1.17871 38.054C1.17871 34.7701 3.84075 32.1081 7.12466 32.1081C10.4086 32.1081 13.0706 34.7701 13.0706 38.054Z" fill="#DFE8F0"/>
<path d="M38.7737 36.6139C38.7737 39.4941 36.439 41.8289 33.5587 41.8289C30.6785 41.8289 28.3438 39.4941 28.3438 36.6139C28.3438 33.7337 30.6785 31.3989 33.5587 31.3989C36.439 31.388 38.7737 33.7228 38.7737 36.6139Z" fill="#DFE8F0"/>
<path d="M46.0405 23.1619C46.0405 26.3804 43.4331 28.9878 40.2146 28.9878C36.9962 28.9878 34.3887 26.3804 34.3887 23.1619C34.3887 19.9435 36.9962 17.336 40.2146 17.336C43.4331 17.336 46.0405 19.9435 46.0405 23.1619Z" fill="#DFE8F0"/>
<path d="M29.4784 23.1619C29.4784 27.3513 26.0854 30.7444 21.8959 30.7444C17.7065 30.7444 14.3135 27.3513 14.3135 23.1619C14.3135 18.9725 17.7065 15.5795 21.8959 15.5795C26.0854 15.5686 29.4784 18.9725 29.4784 23.1619Z" fill="#DFE8F0"/>
<path d="M11.6519 17.336C11.6519 20.5544 9.04438 23.1619 5.82594 23.1619C2.60749 23.1619 0 20.5544 0 17.336C0 14.1175 2.60749 11.51 5.82594 11.51C9.04438 11.51 11.6519 14.1175 11.6519 17.336Z" fill="#DFE8F0"/>
<path d="M21.2847 6.49145C21.2847 10.0808 18.3717 12.9829 14.7932 12.9829C11.2038 12.9829 8.30179 10.0699 8.30179 6.49145C8.29088 2.91297 11.2038 0 14.7932 0C18.3826 0 21.2847 2.91297 21.2847 6.49145Z" fill="#DFE8F0"/>
<path d="M39.8322 5.64045C39.8322 8.6407 37.3992 11.0736 34.399 11.0736C31.3987 11.0736 28.9658 8.6407 28.9658 5.64045C28.9658 2.6402 31.3987 0.207275 34.399 0.207275C37.3992 0.207275 39.8322 2.6402 39.8322 5.64045Z" fill="#DFE8F0"/>
<path d="M11.6519 27.5805C11.6519 29.4352 10.1463 30.9298 8.30249 30.9298C6.44779 30.9298 4.95312 29.4243 4.95312 27.5805C4.95312 25.7367 6.4587 24.2311 8.30249 24.2311C10.1463 24.2311 11.6519 25.7367 11.6519 27.5805Z" fill="#DFE8F0"/>
<path d="M29.2062 31.3444C29.2935 31.1808 29.468 31.0826 29.6535 31.0826C29.7408 31.0826 29.828 31.1044 29.9044 31.148L30.7336 31.6281V30.668C30.7336 30.3843 30.9627 30.1552 31.2463 30.1552C31.53 30.1552 31.7591 30.3843 31.7591 30.668V31.6281L32.5883 31.148C32.6646 31.1044 32.7519 31.0826 32.8392 31.0826C33.0247 31.0826 33.1883 31.1808 33.2865 31.3444C33.4283 31.5844 33.3411 31.9008 33.101 32.0426L32.2719 32.5227L33.101 33.0027C33.3411 33.1446 33.4283 33.4609 33.2865 33.701C33.1992 33.8646 33.0247 33.9628 32.8392 33.9628C32.7519 33.9628 32.6646 33.941 32.5774 33.8973L31.7482 33.4173V34.3774C31.7482 34.661 31.5191 34.8901 31.2354 34.8901C30.9518 34.8901 30.7227 34.661 30.7227 34.3774V33.4173L29.8935 33.8973C29.8171 33.941 29.7299 33.9628 29.6426 33.9628C29.4571 33.9628 29.2935 33.8646 29.1953 33.701C29.0534 33.4609 29.1407 33.1446 29.3807 33.0027L30.2099 32.5227L29.3807 32.0426C29.1516 31.9008 29.0643 31.5844 29.2062 31.3444Z" fill="#003354"/>
<path d="M20.8164 36.0248C20.9036 35.8612 21.0782 35.763 21.2637 35.763C21.3509 35.763 21.4382 35.7848 21.5146 35.8284L22.3438 36.3085V35.3484C22.3438 35.0647 22.5729 34.8356 22.8565 34.8356C23.1402 34.8356 23.3693 35.0647 23.3693 35.3484V36.3085L24.1985 35.8284C24.2748 35.7848 24.3621 35.763 24.4494 35.763C24.6349 35.763 24.7985 35.8612 24.8967 36.0248C25.0385 36.2648 24.9512 36.5812 24.7112 36.7231L23.893 37.2031L24.7221 37.6831C24.9622 37.825 25.0494 38.1414 24.9076 38.3814C24.8203 38.545 24.6458 38.6432 24.4603 38.6432C24.373 38.6432 24.2857 38.6214 24.2094 38.5778L23.3802 38.0977V39.0578C23.3802 39.3415 23.1511 39.5706 22.8674 39.5706C22.5838 39.5706 22.3547 39.3415 22.3547 39.0578V38.0977L21.5255 38.5778C21.4491 38.6214 21.3619 38.6432 21.2637 38.6432C21.0782 38.6432 20.9145 38.545 20.8164 38.3814C20.6745 38.1414 20.7618 37.825 21.0018 37.6831L21.831 37.2031L21.0018 36.7231C20.7618 36.5812 20.6745 36.2758 20.8164 36.0248Z" fill="#003354"/>
<path d="M12.2736 31.3444C12.3608 31.1808 12.5354 31.0826 12.7209 31.0826C12.8081 31.0826 12.8954 31.1044 12.9718 31.148L13.801 31.6281V30.668C13.801 30.3843 14.0301 30.1552 14.3137 30.1552C14.5974 30.1552 14.8265 30.3843 14.8265 30.668V31.6281L15.6557 31.148C15.732 31.1044 15.8193 31.0826 15.9066 31.0826C16.0921 31.0826 16.2557 31.1808 16.3539 31.3444C16.4957 31.5844 16.4084 31.9008 16.1684 32.0426L15.3393 32.5227L16.1684 33.0027C16.4084 33.1446 16.4957 33.4609 16.3539 33.701C16.2666 33.8646 16.0921 33.9628 15.9066 33.9628C15.8193 33.9628 15.732 33.941 15.6557 33.8973L14.8265 33.4173V34.3774C14.8265 34.661 14.5974 34.8901 14.3137 34.8901C14.0301 34.8901 13.801 34.661 13.801 34.3774V33.4173L12.9718 33.8973C12.8954 33.941 12.8081 33.9628 12.71 33.9628C12.5245 33.9628 12.3608 33.8646 12.2626 33.701C12.1208 33.4609 12.2081 33.1446 12.4481 33.0027L13.2773 32.5227L12.4481 32.0426C12.2081 31.9008 12.1317 31.5844 12.2736 31.3444Z" fill="#003354"/>
<path d="M37.1595 22.0273C37.1595 24.602 35.0648 26.6967 32.49 26.6967H12.3175C10.2446 26.6967 8.55352 25.0057 8.55352 22.9328C8.55352 20.969 10.07 19.3434 12.0011 19.1907C12.0556 19.1907 12.1102 19.1798 12.1647 19.1798C12.2193 19.1798 12.2738 19.1798 12.3284 19.1798C12.5357 19.1798 12.743 19.2016 12.9612 19.2343C12.9939 19.2343 13.0157 19.2452 13.0484 19.2452C13.1575 19.2452 13.2666 19.2125 13.3539 19.1361C13.3648 19.1361 13.3648 19.1252 13.3648 19.1252C13.3976 19.1034 13.4194 19.0707 13.4521 19.0379C13.463 19.027 13.4739 19.0052 13.4848 18.9943C13.714 18.6015 13.9976 18.2524 14.3031 17.936C14.3249 17.9142 14.3467 17.9033 14.3576 17.8815C14.4558 17.7833 14.5649 17.6851 14.674 17.5978C15.0341 17.3141 15.4268 17.0741 15.8414 16.8887C15.9723 16.8341 16.1032 16.7796 16.2451 16.725C16.7687 16.5504 17.3252 16.4523 17.8816 16.4523C18.3071 16.4523 18.7325 16.5068 19.1471 16.605C19.1908 16.6159 19.2344 16.6159 19.278 16.6159C19.4526 16.6159 19.6163 16.5286 19.7035 16.3868C19.7472 16.3104 19.8017 16.2341 19.8563 16.1686C19.8672 16.1468 19.8781 16.1359 19.889 16.114C19.9326 16.0486 19.9872 15.9831 20.0308 15.9177C20.0308 15.9068 20.0417 15.9068 20.0417 15.8958C20.8818 14.8267 22.0383 14.0302 23.3475 13.6375C23.9693 13.452 24.6239 13.3538 25.2895 13.3538C27.8315 13.3538 30.188 14.8267 31.2899 17.1178C31.3772 17.2923 31.5518 17.4123 31.7482 17.4123C31.77 17.4123 31.7918 17.4123 31.8136 17.4123C32.0318 17.3796 32.25 17.3687 32.4573 17.3687C35.0648 17.3687 37.1595 19.4634 37.1595 22.0273ZM19.8672 14.5976C19.8563 14.6085 19.8454 14.6194 19.8454 14.6194C19.8126 14.6521 19.7799 14.6848 19.7581 14.7176C19.7254 14.7503 19.6926 14.783 19.6599 14.8158C19.6381 14.8376 19.6163 14.8594 19.5944 14.8921C19.5508 14.9358 19.5181 14.9794 19.4744 15.023C19.4635 15.0449 19.4417 15.0558 19.4308 15.0776C19.3871 15.1321 19.3326 15.1867 19.289 15.2522C19.278 15.2631 19.278 15.274 19.2671 15.274C19.2126 15.3394 19.158 15.4158 19.1035 15.4813L19.0598 15.5358L18.9944 15.5249C18.6344 15.4594 18.2634 15.4267 17.9034 15.4267C15.8632 15.4267 13.9649 16.4304 12.8193 18.1215L12.7866 18.176H12.7211C12.5902 18.1651 12.4593 18.1651 12.3393 18.1651H12.2193L12.1866 18.1215C11.4556 17.1069 11.0628 15.9177 11.0628 14.6521C11.0628 11.39 13.7249 8.72798 16.9869 8.72798C19.529 8.72798 21.7764 10.3427 22.5947 12.7319L22.6274 12.8301L22.5292 12.8629C21.5146 13.2447 20.62 13.8448 19.8672 14.5976ZM38.196 22.0273C38.196 18.8852 35.643 16.3322 32.501 16.3322C32.3809 16.3322 32.2718 16.3322 32.1518 16.3432H32.0864L32.0536 16.2777C31.4318 15.1649 30.5372 14.2157 29.468 13.5284C28.2352 12.7429 26.795 12.3174 25.3222 12.3174C24.744 12.3174 24.1657 12.3828 23.6093 12.5137C23.1947 11.2155 22.3983 10.0481 21.3291 9.19711C20.1072 8.21521 18.558 7.66971 16.9869 7.66971C13.1575 7.66971 10.0373 10.79 10.0373 14.6194C10.0373 15.9177 10.4082 17.1941 11.0956 18.296C9.05538 18.8415 7.5498 20.7071 7.5498 22.9219C7.5498 25.5621 9.69907 27.7114 12.3393 27.7114H32.5119C35.6321 27.7332 38.196 25.1693 38.196 22.0273Z" fill="#003354"/>
<path d="M19.8669 14.5976C19.856 14.6085 19.845 14.6194 19.845 14.6194C19.8123 14.6521 19.7796 14.6849 19.7578 14.7176C19.725 14.7503 19.6923 14.783 19.6596 14.8158C19.6378 14.8376 19.6159 14.8594 19.5941 14.8921C19.5505 14.9358 19.5177 14.9794 19.4741 15.0231C19.4632 15.0449 19.4414 15.0558 19.4305 15.0776C19.3868 15.1322 19.3323 15.1867 19.2886 15.2522C19.2777 15.2631 19.2777 15.274 19.2668 15.274C19.2123 15.3395 19.1577 15.4158 19.1032 15.4813L19.0595 15.5358L18.9941 15.5249C18.634 15.4595 18.2631 15.4267 17.9031 15.4267C15.8629 15.4267 13.9646 16.4305 12.819 18.1215L12.7863 18.1761H12.7208C12.5899 18.1651 12.459 18.1651 12.339 18.1651H12.219L12.1862 18.1215C11.4553 17.1069 11.0625 15.9177 11.0625 14.6521C11.0625 11.39 13.7245 8.728 16.9866 8.728C19.5287 8.728 21.7761 10.3427 22.5944 12.732L22.6271 12.8302L22.5289 12.8629C21.5143 13.2447 20.6197 13.8448 19.8669 14.5976Z" fill="white"/>
<path d="M12.0013 19.1907C12.0558 19.1907 12.1104 19.1798 12.1649 19.1798C12.2195 19.1798 12.274 19.1798 12.3286 19.1798C12.5359 19.1798 12.7431 19.2016 12.9613 19.2343C12.9941 19.2343 13.0159 19.2452 13.0486 19.2452C13.1577 19.2452 13.2668 19.2125 13.3541 19.1361C13.365 19.1361 13.365 19.1252 13.365 19.1252C13.3977 19.1034 13.4196 19.0707 13.4523 19.038C13.4632 19.027 13.4741 19.0052 13.485 18.9943C13.7141 18.6016 13.9978 18.2524 14.3033 17.936C14.3251 17.9142 14.3469 17.9033 14.3578 17.8815C14.456 17.7833 14.5651 17.6851 14.6742 17.5978C15.0342 17.3142 15.427 17.0742 15.8416 16.8887C15.9725 16.8341 16.1034 16.7796 16.2453 16.725C16.7689 16.5505 17.3253 16.4523 17.8818 16.4523C18.3072 16.4523 18.7327 16.5068 19.1473 16.605C19.191 16.6159 19.2346 16.6159 19.2782 16.6159C19.4528 16.6159 19.6164 16.5287 19.7037 16.3868C19.7474 16.3105 19.8019 16.2341 19.8565 16.1686C19.8674 16.1468 19.8783 16.1359 19.8892 16.1141C19.9328 16.0486 19.9874 15.9832 20.031 15.9177C20.031 15.9068 20.0419 15.9068 20.0419 15.8959C20.882 14.8267 22.0385 14.0303 23.3477 13.6375C23.9695 13.452 24.6241 13.3539 25.2896 13.3539C27.8317 13.3539 30.1882 14.8267 31.2901 17.1178C31.3774 17.2924 31.552 17.4124 31.7484 17.4124C31.7702 17.4124 31.792 17.4124 31.8138 17.4124C32.032 17.3796 32.2502 17.3687 32.4575 17.3687C35.0323 17.3687 37.127 19.4634 37.127 22.0382C37.127 24.613 35.0323 26.7077 32.4575 26.7077H12.3177C10.2448 26.7077 8.55371 25.0166 8.55371 22.9437C8.56462 20.969 10.0811 19.3543 12.0013 19.1907Z" fill="#7B99B3"/>
</svg>
