<svg width="23" height="24" viewBox="0 0 23 24" fill="none" xmlns="http://www.w3.org/2000/svg">
<path d="M22.6156 13.3823L18.0241 8.99076L18.1193 8.89974C18.6308 8.41052 18.6308 7.61413 18.1193 7.12491L11.0476 0.366912C10.5361 -0.122304 9.70346 -0.122304 9.19197 0.366912L2.12031 7.12491C1.60882 7.61413 1.60882 8.41052 2.12031 8.89974L4.48744 11.1638L0.383618 15.0946C-0.127873 15.5838 -0.127873 16.3802 0.383618 16.8694L7.45528 23.6331C7.96677 24.1223 8.79943 24.1223 9.31092 23.6331L12.3977 20.6807L13.6943 21.9208C14.2058 22.4101 15.0384 22.4101 15.5499 21.9208L22.6216 15.1571C23.1271 14.6679 23.1271 13.8772 22.6156 13.3823Z" fill="#DFE8F0"/>
<path d="M11.0197 22.2524L10.9865 22.3455H17.4005L17.3606 22.2524C17.0345 21.3741 15.6972 20.7353 14.1868 20.7353C12.6765 20.7353 11.3458 21.3741 11.0197 22.2524ZM10.6272 22.9709C10.4542 22.9709 10.3145 22.8312 10.3145 22.6582C10.3145 21.9529 10.7403 21.2942 11.5054 20.8152C12.2307 20.3627 13.1821 20.1166 14.1868 20.1166C15.1982 20.1166 16.1496 20.3627 16.8682 20.8152C17.6334 21.2942 18.0592 21.9529 18.0592 22.6582C18.0592 22.8312 17.9195 22.9709 17.7465 22.9709H10.6272Z" fill="#003354"/>
<path d="M11.0196 22.2524L10.9863 22.3455H17.4004L17.3604 22.2524C17.0344 21.3741 15.697 20.7354 14.1867 20.7354C12.6763 20.7354 11.3456 21.3741 11.0196 22.2524Z" fill="white"/>
<path d="M14.1858 20.7353C14.3588 20.7353 14.4985 20.5956 14.4985 20.4226V4.04154C14.4985 3.86855 14.3588 3.72882 14.1858 3.72882C14.0128 3.72882 13.873 3.86855 13.873 4.04154V20.4226C13.873 20.5956 14.0128 20.7353 14.1858 20.7353Z" fill="#003354"/>
<path d="M4.3125 13.0172H14.1864V5.3989H4.3125L6.21542 9.17147L4.3125 13.0172Z" fill="#7B99B3"/>
<path d="M13.874 5.71164H4.8252L6.49524 9.02511C6.54182 9.11161 6.54182 9.21806 6.49524 9.30456L4.81854 12.6979H13.874V5.71164V5.71164ZM4.31287 13.33C4.13988 13.33 4.00016 13.1902 4.00016 13.0172C4.00016 12.964 4.01346 12.9041 4.04673 12.8576L5.86315 9.17814L4.03342 5.5453C3.98685 5.45215 3.98685 5.33239 4.04673 5.23924C4.09996 5.14609 4.20642 5.09286 4.31287 5.09286H14.1868C14.3597 5.09286 14.4995 5.23258 14.4995 5.40557V13.0239C14.4995 13.1969 14.3597 13.3366 14.1868 13.3366H4.31287V13.33Z" fill="#003354"/>
</svg>
