<svg width="24" height="24" viewBox="0 0 24 24" fill="none" xmlns="http://www.w3.org/2000/svg">
<path d="M12.0114 14.309C12.0455 14.3943 12.0739 14.4739 12.1081 14.5592C12.0512 14.5024 11.9943 14.4455 11.9374 14.3886C11.9602 14.3602 11.9886 14.3318 12.0114 14.309ZM24 12.1536C24 9.52607 22.3621 7.28531 20.0531 6.38673C20.0645 6.25024 20.0701 6.10806 20.0701 5.96588C20.0701 2.67299 17.3972 0 14.1043 0C11.8919 0 9.96398 1.2 8.9346 2.98578C8.29763 2.79242 7.62085 2.69005 6.92133 2.69005C3.09953 2.69005 0 5.78957 0 9.61137C0 12.2616 1.49005 14.5592 3.67393 15.7251C3.28152 16.4588 3.0654 17.2948 3.0654 18.182C3.0654 21.0825 5.41422 23.4313 8.31469 23.4313C9.8673 23.4313 11.2607 22.7602 12.2218 21.6853C13.0009 22.3564 14.0133 22.7659 15.1223 22.7659C17.5735 22.7659 19.5583 20.781 19.5583 18.3299C19.5583 18.2445 19.5583 18.1649 19.5526 18.0796C22.1232 17.3403 24 14.9687 24 12.1536Z" fill="#DFE8F0"/>
<path d="M12.1761 6.01137C8.94581 6.01137 6.31832 8.63886 6.31832 11.8692C6.31832 15.0995 8.94581 17.727 12.1761 17.727C15.4065 17.727 18.034 15.0995 18.034 11.8692C18.034 8.63886 15.4065 6.01137 12.1761 6.01137ZM12.1761 18.2673C8.65007 18.2673 5.78372 15.4009 5.78372 11.8749C5.78372 8.34881 8.65007 5.47678 12.1761 5.47678C15.7022 5.47678 18.5686 8.34313 18.5686 11.8692C18.5686 15.3953 15.7022 18.2673 12.1761 18.2673ZM12.1761 3.43507C7.52401 3.43507 3.73633 7.22275 3.73633 11.8749C3.73633 16.527 7.52401 20.3147 12.1761 20.3147C16.8283 20.3147 20.6159 16.527 20.6159 11.8749C20.6159 7.21706 16.8283 3.43507 12.1761 3.43507Z" fill="white"/>
<path d="M12.1759 18C8.79197 18 6.05074 15.2588 6.05074 11.8749C6.05074 8.491 8.79197 5.74408 12.1759 5.74408C15.5597 5.74408 18.301 8.48531 18.301 11.8692C18.301 15.2531 15.5597 18 12.1759 18ZM12.1759 3.16209C7.36449 3.16209 3.46875 7.06351 3.46875 11.8749C3.46875 16.6863 7.37017 20.582 12.1759 20.582C16.9815 20.582 20.883 16.6863 20.883 11.8749C20.883 7.06351 16.9872 3.16209 12.1759 3.16209Z" fill="#7B99B3"/>
<path d="M12.1756 6.01137C8.94525 6.01137 6.31776 8.63886 6.31776 11.8692C6.31776 15.0995 8.94525 17.727 12.1756 17.727C15.4059 17.727 18.0334 15.0995 18.0334 11.8692C18.0334 8.63886 15.4059 6.01137 12.1756 6.01137ZM12.1756 18.2673C8.64951 18.2673 5.78316 15.4009 5.78316 11.8749C5.78316 8.34882 8.64951 5.47678 12.1756 5.47678C15.7016 5.47678 18.568 8.34313 18.568 11.8692C18.568 15.3953 15.7016 18.2673 12.1756 18.2673ZM12.1756 3.43507C7.52345 3.43507 3.73577 7.22275 3.73577 11.8749C3.73577 16.527 7.52345 20.3147 12.1756 20.3147C16.8277 20.3147 20.6154 16.527 20.6154 11.8749C20.6154 7.21706 16.8277 3.43507 12.1756 3.43507ZM12.1756 20.8493C9.77558 20.8493 7.52345 19.9166 5.82866 18.2218C4.13387 16.527 3.20117 14.2749 3.20117 11.8749C3.20117 9.47488 4.13387 7.22275 5.82866 5.52796C7.52345 3.83318 9.77558 2.90047 12.1756 2.90047C14.5756 2.90047 16.8277 3.83318 18.5225 5.52796C20.2173 7.22275 21.15 9.47488 21.15 11.8749C21.15 14.2749 20.2173 16.527 18.5225 18.2218C16.8277 19.9166 14.5756 20.8493 12.1756 20.8493Z" fill="#003354"/>
<path d="M11.2384 12.0171C10.4195 12.0171 9.75977 11.3517 9.75977 10.5384V9.8673C9.75977 9.04834 10.4252 8.38863 11.2384 8.38863H13.1095C13.9285 8.38863 14.5882 9.05403 14.5882 9.8673V10.5384C14.5882 10.6863 14.4688 10.8057 14.3209 10.8057C14.173 10.8057 14.0536 10.6863 14.0536 10.5384V9.8673C14.0536 9.34408 13.6271 8.92322 13.1095 8.92322H11.2384C10.7152 8.92322 10.2944 9.34976 10.2944 9.8673V10.5384C10.2944 11.0616 10.7209 11.4825 11.2384 11.4825H13.1095C13.2574 11.4825 13.3768 11.6019 13.3768 11.7498C13.3768 11.8976 13.2574 12.0171 13.1095 12.0171H11.2384Z" fill="#003354"/>
<path d="M11.2384 15.1166C10.4195 15.1166 9.75977 14.4512 9.75977 13.6379C9.75977 13.49 9.8792 13.3706 10.0271 13.3706C10.1749 13.3706 10.2944 13.49 10.2944 13.6379C10.2944 14.1611 10.7209 14.582 11.2384 14.582H13.1095C13.6328 14.582 14.0536 14.1555 14.0536 13.6379V12.9668C14.0536 12.4436 13.6271 12.0227 13.1095 12.0227H11.2384C11.0906 12.0227 10.9711 11.9033 10.9711 11.7554C10.9711 11.6076 11.0906 11.4882 11.2384 11.4882H13.1095C13.9285 11.4882 14.5882 12.1536 14.5882 12.9668V13.6379C14.5882 14.4569 13.9228 15.1166 13.1095 15.1166H11.2384Z" fill="#003354"/>
<path d="M12.2439 15.6682C12.096 15.6682 11.9766 15.5488 11.9766 15.4009V8.14408C11.9766 7.99621 12.096 7.87678 12.2439 7.87678C12.3917 7.87678 12.5112 7.99621 12.5112 8.14408V15.4009C12.5112 15.5488 12.3917 15.6682 12.2439 15.6682Z" fill="#003354"/>
</svg>
