<svg width="24" height="22" viewBox="0 0 24 22" fill="none" xmlns="http://www.w3.org/2000/svg">
<path d="M22.5324 18.101V4.48827C22.5324 4.08438 22.2024 3.76013 21.8042 3.76013H14.9154C14.5115 3.76013 14.1872 3.4302 14.1872 3.032V0.728135C14.1872 0.324247 13.8573 0 13.4591 0H2.22422C1.82034 0 1.49609 0.329936 1.49609 0.728135V18.101C1.49609 18.5049 1.16615 18.8291 0.767954 18.8291H0.728135C0.324247 18.8291 0 19.159 0 19.5572V20.4788C0 20.8827 0.329936 21.2069 0.728135 21.2069H23.2719C23.6758 21.2069 24 20.877 24 20.4788V19.5629C24 19.159 23.6701 18.8348 23.2719 18.8348C22.8623 18.8348 22.5324 18.5049 22.5324 18.101Z" fill="#DFE8F0"/>
<path d="M15.8195 9.81844C15.774 9.77294 15.7513 9.71036 15.7513 9.64779V8.80588C15.7513 8.49301 15.501 8.23703 15.1881 8.23703H14.6136C14.4656 8.23703 14.3234 8.29391 14.2154 8.402L13.2938 9.32923C13.2483 9.38043 13.18 9.40318 13.1118 9.40318H10.8648C10.7965 9.40318 10.7283 9.37474 10.6828 9.32923L9.76122 8.39631C9.65313 8.28822 9.51661 8.23134 9.36302 8.23134H8.78847C8.48129 8.23134 8.22531 8.48732 8.22531 8.80019V9.6421C8.22531 9.70467 8.20255 9.76725 8.15704 9.81276C6.99658 11.0756 5.7451 12.5262 5.63702 12.7765C5.54031 13.1235 5.39241 14.3579 5.38672 14.7846C5.48911 14.9154 6.06366 15.2681 7.26963 15.6037C8.23668 15.8711 9.84085 16.1896 11.9854 16.1896C14.13 16.1896 15.7399 15.8711 16.7012 15.6037C17.9072 15.2681 18.4761 14.9154 18.5842 14.7846C18.5728 14.3579 18.4306 13.1235 18.3339 12.7765C18.2372 12.5319 16.98 11.0813 15.8195 9.81844Z" fill="white"/>
<path d="M11.9917 14.2214C10.6549 14.2214 9.56836 13.4819 9.56836 12.5717C9.56836 11.6615 10.6549 10.922 11.9917 10.922C13.3285 10.922 14.415 11.6615 14.415 12.5717C14.415 13.4819 13.3285 14.2214 11.9917 14.2214Z" fill="#7B99B3"/>
<path d="M20.246 7.77056C19.7681 7.11637 17.7771 5.0173 11.9919 5.0173C6.20663 5.0173 4.21563 7.11637 3.73211 7.77056C3.6866 7.87864 3.70366 8.35648 3.89139 9.07323C4.06773 9.76724 4.27821 10.1882 4.37491 10.2792C4.52281 10.2906 5.02341 10.1996 6.05872 9.76155C6.83806 9.43161 7.46949 9.09599 7.60032 8.98791C7.62308 8.90827 7.60601 8.67503 7.58894 8.53282C7.5605 8.23133 7.53206 7.91846 7.64583 7.68523C8.04403 6.84901 9.50599 6.42806 11.9976 6.42806C14.4892 6.42806 15.9511 6.84901 16.3493 7.68523C16.4574 7.91846 16.429 8.23133 16.4062 8.53282C16.3948 8.67503 16.3721 8.91395 16.3948 8.98791C16.5257 9.09599 17.1571 9.43161 17.9364 9.76155C18.9717 10.1996 19.4723 10.2906 19.6202 10.2792C19.7169 10.1882 19.9274 9.76724 20.1038 9.07323C20.2744 8.36216 20.2915 7.87864 20.246 7.77056Z" fill="white"/>
<path d="M9.3696 7.71936C9.65402 7.71936 9.92708 7.83313 10.1319 8.03792L10.9795 8.8912H13.0103L13.8579 8.03792C14.0627 7.83313 14.33 7.71936 14.6201 7.71936H15.1947C15.4677 7.71936 15.7123 7.82176 15.9001 7.98672C15.8944 7.95259 15.8887 7.92415 15.8773 7.90139C15.7408 7.61128 15.0866 6.93434 11.992 6.93434C8.89745 6.93434 8.24326 7.61128 8.10674 7.90139C8.09536 7.92415 8.08967 7.95259 8.08398 7.98672C8.27171 7.82176 8.522 7.71936 8.78936 7.71936H9.3696Z" fill="#DFE8F0"/>
<path d="M11.9908 12.8846C11.5016 12.8846 11.092 12.6286 11.092 12.3271C11.092 12.0256 11.5016 11.7696 11.9908 11.7696C12.4801 11.7696 12.8896 12.0256 12.8896 12.3271C12.8896 12.6286 12.4801 12.8846 11.9908 12.8846ZM11.9908 11.2576C11.2001 11.2576 10.5801 11.7298 10.5801 12.3271C10.5801 12.9301 11.2001 13.3965 11.9908 13.3965C12.7815 13.3965 13.4016 12.9244 13.4016 12.3271C13.4016 11.7298 12.7815 11.2576 11.9908 11.2576Z" fill="#003354"/>
<path d="M11.9925 12.8846C11.5033 12.8846 11.0938 12.6286 11.0938 12.3271C11.0938 12.0256 11.5033 11.7696 11.9925 11.7696C12.4818 11.7696 12.8913 12.0256 12.8913 12.3271C12.8913 12.6286 12.4818 12.8846 11.9925 12.8846Z" fill="white"/>
<path d="M11.99 14.2214C10.6532 14.2214 9.56666 13.4819 9.56666 12.5717C9.56666 11.6615 10.6532 10.922 11.99 10.922C13.3268 10.922 14.4133 11.6615 14.4133 12.5717C14.4133 13.4819 13.3268 14.2214 11.99 14.2214ZM11.99 10.41C10.3687 10.41 9.05469 11.3828 9.05469 12.5717C9.05469 13.7606 10.3687 14.7333 11.99 14.7333C13.6112 14.7333 14.9253 13.7606 14.9253 12.5717C14.9253 11.3828 13.6112 10.41 11.99 10.41Z" fill="#003354"/>
<path d="M20.0923 9.07324C19.916 9.76724 19.7055 10.1882 19.6088 10.2792C19.4609 10.2963 18.9603 10.1996 17.925 9.76156C17.1457 9.43162 16.5142 9.09599 16.3834 8.98791C16.3607 8.90827 16.3777 8.67504 16.3948 8.53283C16.4232 8.23133 16.4517 7.91846 16.3379 7.68523C15.9397 6.84902 14.4777 6.42806 11.9862 6.42806C9.49457 6.42806 8.03261 6.84902 7.63441 7.68523C7.52633 7.91846 7.55477 8.23133 7.57753 8.53283C7.58891 8.67504 7.61166 8.91396 7.58891 8.98791C7.45807 9.09599 6.82664 9.43162 6.04731 9.76156C5.01199 10.1996 4.51709 10.2906 4.3635 10.2792C4.26679 10.1882 4.05632 9.76724 3.87997 9.07324C3.69794 8.35648 3.67518 7.87864 3.72069 7.77056C4.19853 7.11638 6.18952 5.0173 11.9748 5.0173C17.76 5.0173 19.751 7.11638 20.2289 7.77056C20.2914 7.87864 20.2744 8.36217 20.0923 9.07324ZM18.3403 12.7765C18.437 13.1235 18.5849 14.3579 18.5906 14.7845C18.4882 14.9154 17.9136 15.2681 16.7077 15.6037C15.7406 15.8711 14.1364 16.1896 11.9918 16.1896C9.84726 16.1896 8.2374 15.8711 7.27604 15.6037C6.07006 15.2681 5.50121 14.9154 5.39312 14.7845C5.4045 14.3579 5.54672 13.1235 5.64342 12.7765C5.74582 12.5262 7.00299 11.0756 8.16345 9.81275C8.20896 9.76724 8.23171 9.70467 8.23171 9.6421V8.80019C8.23171 8.48732 8.48201 8.23133 8.79488 8.23133H9.36942C9.51732 8.23133 9.65954 8.28822 9.76762 8.3963L10.6892 9.32923C10.7347 9.38042 10.8029 9.40318 10.8712 9.40318H13.1182C13.1864 9.40318 13.2547 9.37473 13.3002 9.32923L14.2218 8.3963C14.3298 8.28822 14.4664 8.23133 14.62 8.23133H15.1945C15.5017 8.23133 15.7577 8.48732 15.7577 8.80019V9.6421C15.7577 9.70467 15.7804 9.76724 15.8259 9.81275C16.9807 11.0813 18.2379 12.5319 18.3403 12.7765ZM15.1945 7.71936H14.62C14.3355 7.71936 14.0625 7.83314 13.8577 8.03792L13.0101 8.89121H10.9793L10.1317 8.03792C9.9269 7.83314 9.65954 7.71936 9.36942 7.71936H8.79488C8.52183 7.71936 8.27722 7.82176 8.0895 7.98673C8.09519 7.9526 8.10088 7.92415 8.11225 7.9014C8.24878 7.61128 8.90296 6.93434 11.9975 6.93434C15.0921 6.93434 15.7463 7.61128 15.8828 7.9014C15.8942 7.92415 15.8999 7.9526 15.9056 7.98673C15.7122 7.82176 15.4619 7.71936 15.1945 7.71936ZM18.6418 5.83645C16.9466 4.95473 14.711 4.50533 11.9918 4.50533C9.27272 4.50533 7.03712 4.95473 5.34193 5.83645C4.72756 6.15501 3.87997 6.70111 3.3168 7.47476C2.98118 7.93553 3.48177 9.55108 3.62399 9.92652C3.88566 10.6148 4.09045 10.74 4.24404 10.7741C4.56828 10.8481 5.26798 10.6547 6.32036 10.2053C6.36587 10.1825 7.23622 9.81275 7.71974 9.51695V9.5397C6.93472 10.3987 5.26229 12.2531 5.15421 12.6286C5.04043 13.0268 4.88116 14.3863 4.88116 14.8187C4.88116 15.3477 6.16677 15.8085 6.93472 16.036C8.3853 16.4627 10.1772 16.7016 11.9918 16.7016C13.8065 16.7016 15.5984 16.4684 17.049 16.036C17.8169 15.8085 19.1025 15.3477 19.1025 14.8187C19.1025 14.3863 18.9433 13.0268 18.8295 12.6286C18.7214 12.2531 17.0547 10.3987 16.2639 9.5397V9.51695C16.7475 9.81275 17.6178 10.1825 17.6633 10.2053C18.5678 10.5921 19.2106 10.7855 19.5804 10.7855C19.6373 10.7855 19.6941 10.7798 19.734 10.7684C19.8876 10.7343 20.0923 10.6091 20.354 9.92083C20.4962 9.54539 20.9968 7.92984 20.6612 7.46907C20.1037 6.70111 19.2561 6.1607 18.6418 5.83645Z" fill="#003354"/>
</svg>
