<svg width="25" height="24" viewBox="0 0 25 24" fill="none" xmlns="http://www.w3.org/2000/svg">
<path d="M12.3029 14.6563C12.3379 14.7437 12.367 14.8252 12.4019 14.9126C12.3437 14.8544 12.2854 14.7961 12.2272 14.7379C12.2505 14.7087 12.2796 14.6796 12.3029 14.6563ZM24.5825 12.4485C24.5825 9.75728 22.9049 7.46214 20.5398 6.54175C20.5515 6.40194 20.5573 6.25631 20.5573 6.11068C20.5573 2.73786 17.8194 0 14.4466 0C12.1806 0 10.2058 1.22913 9.15146 3.05825C8.49903 2.86019 7.80582 2.75534 7.08932 2.75534C3.17476 2.75534 0 5.9301 0 9.84466C0 12.5592 1.52621 14.9126 3.76311 16.1068C3.36116 16.8583 3.13981 17.7146 3.13981 18.6233C3.13981 21.5942 5.54563 24 8.5165 24C10.1068 24 11.534 23.3126 12.5184 22.2117C13.3165 22.899 14.3534 23.3184 15.4893 23.3184C18 23.3184 20.033 21.2854 20.033 18.7748C20.033 18.6874 20.033 18.6058 20.0272 18.5184C22.6602 17.7612 24.5825 15.332 24.5825 12.4485Z" fill="#DFE8F0"/>
<path d="M17.0273 16.0421C17.0273 17.0519 17.8511 17.8823 18.8676 17.8823C19.8774 17.8823 20.7079 17.0585 20.7079 16.0421C20.7079 15.0322 19.8841 14.2018 18.8676 14.2018C17.8511 14.2018 17.0273 15.0256 17.0273 16.0421Z" fill="white"/>
<path d="M5.59375 16.0421C5.59375 17.0519 6.41755 17.8823 7.434 17.8823C8.44382 17.8823 9.27426 17.0585 9.27426 16.0421C9.27426 15.0322 8.45046 14.2018 7.434 14.2018C6.41755 14.2018 5.59375 15.0256 5.59375 16.0421Z" fill="white"/>
<path d="M10.6107 6.83413C10.3383 7.03343 10.1523 7.53834 9.96629 8.02996C9.70719 8.72753 9.41488 9.51811 8.74388 9.77721C8.49807 9.87022 8.17918 9.96987 7.80715 10.0828C6.60467 10.4482 5.30254 10.8867 5.13645 11.3849C5.02351 11.7238 4.93714 12.0892 4.87071 12.4678L4.85742 12.5608L4.95043 12.5476C5.05008 12.5343 5.14974 12.5276 5.25603 12.5276H21.134L21.1075 12.4413C20.855 11.6241 19.533 7.51841 18.2773 6.85406C17.6861 6.54181 16.3108 6.34915 14.6101 6.34915C12.4244 6.3558 10.8831 6.63482 10.6107 6.83413Z" fill="white"/>
<path d="M18.355 16.042C18.355 16.3211 18.5808 16.5536 18.8665 16.5536C19.1455 16.5536 19.3781 16.3277 19.3781 16.042C19.3781 15.763 19.1522 15.5305 18.8665 15.5305C18.5808 15.5305 18.355 15.7564 18.355 16.042ZM17.7305 16.042C17.7305 15.4176 18.242 14.906 18.8665 14.906C19.491 14.906 20.0026 15.4176 20.0026 16.042C20.0026 16.6665 19.491 17.1781 18.8665 17.1781C18.242 17.1781 17.7305 16.6665 17.7305 16.042Z" fill="#003354"/>
<path d="M6.92137 16.042C6.92137 16.3211 7.14725 16.5536 7.43292 16.5536C7.71194 16.5536 7.94447 16.3277 7.94447 16.042C7.94447 15.763 7.71859 15.5305 7.43292 15.5305C7.14725 15.5305 6.92137 15.7564 6.92137 16.042ZM6.29688 16.042C6.29688 15.4176 6.80843 14.906 7.43292 14.906C8.05741 14.906 8.56896 15.4176 8.56896 16.042C8.56896 16.6665 8.05741 17.1781 7.43292 17.1781C6.80178 17.1714 6.29688 16.6665 6.29688 16.042Z" fill="#003354"/>
<path d="M17.0288 16.042C17.0288 17.0519 17.8526 17.8823 18.869 17.8823C19.8789 17.8823 20.7093 17.0585 20.7093 16.042C20.7093 15.0322 19.8855 14.2018 18.869 14.2018C17.8526 14.2018 17.0288 15.0256 17.0288 16.042ZM16.4043 16.042C16.4043 14.6868 17.5071 13.5773 18.869 13.5773C20.231 13.5773 21.3338 14.6801 21.3338 16.042C21.3338 17.3973 20.231 18.5068 18.869 18.5068C17.5071 18.5068 16.4043 17.3973 16.4043 16.042Z" fill="#003354"/>
<path d="M5.59519 16.042C5.59519 17.0519 6.41899 17.8823 7.43545 17.8823C8.44526 17.8823 9.2757 17.0585 9.2757 16.042C9.2757 15.0322 8.45191 14.2018 7.43545 14.2018C6.41899 14.2018 5.59519 15.0256 5.59519 16.042ZM4.9707 16.042C4.9707 14.6868 6.07353 13.5773 7.43545 13.5773C8.79073 13.5773 9.90019 14.6801 9.90019 16.042C9.90019 17.3973 8.79737 18.5068 7.43545 18.5068C6.07353 18.5001 4.9707 17.3973 4.9707 16.042Z" fill="#003354"/>
<path d="M14.17 9.94994C14.3427 9.94994 14.4822 9.81043 14.4822 9.6377V7.35897C14.4822 7.18624 14.3427 7.04672 14.17 7.04672C13.9973 7.04672 13.8578 7.18624 13.8578 7.35897V9.32545H10.7087C10.536 9.32545 10.3965 9.46496 10.3965 9.6377C10.3965 9.81043 10.536 9.94994 10.7087 9.94994H14.17Z" fill="#003354"/>
<path d="M5.24877 12.8465H21.0271C21.2198 12.8465 21.3992 12.8797 21.5719 12.9395C22.223 13.1654 22.688 13.7832 22.688 14.5074V14.6668C22.688 15.5836 21.9439 16.3277 21.0271 16.3277H20.9939C21.0072 16.2347 21.0138 16.1417 21.0138 16.042C21.0138 14.8529 20.0505 13.8895 18.8613 13.8895C17.6722 13.8895 16.7088 14.8529 16.7088 16.042C16.7088 16.1417 16.7155 16.2347 16.7288 16.3277H9.56041C9.5737 16.2347 9.58035 16.1417 9.58035 16.042C9.58035 14.8529 8.61703 13.8895 7.42784 13.8895C6.23865 13.8895 5.27534 14.8529 5.27534 16.042C5.27534 16.1417 5.28199 16.2347 5.29528 16.3277H5.24877C4.33196 16.3277 3.58789 15.5836 3.58789 14.6668V14.5074C3.59453 13.5906 4.33196 12.8465 5.24877 12.8465Z" fill="#7B99B3"/>
<path d="M21.3258 15.8959L21.3325 15.9823L21.4122 15.9557C21.9835 15.7896 22.3822 15.2581 22.3822 14.6602V14.5008C22.3822 13.9294 22.0168 13.4179 21.4786 13.2252C21.3391 13.1787 21.1863 13.1521 21.0402 13.1521H5.24852C4.50444 13.1521 3.89988 13.7567 3.89988 14.5008V14.6602C3.89988 15.2581 4.30514 15.7962 4.88312 15.9557L4.96284 15.9756L4.96949 15.8959C5.04257 14.5938 6.12546 13.5707 7.42759 13.5707C8.75629 13.5707 9.83919 14.6137 9.89234 15.9424V16.0088H16.403V15.9424C16.4495 14.6137 17.5324 13.5707 18.8677 13.5707C20.1699 13.5773 21.2528 14.5938 21.3258 15.8959ZM5.24852 16.6333C4.15898 16.6333 3.27539 15.7497 3.27539 14.6602V14.5008C3.27539 13.4112 4.15898 12.5276 5.24852 12.5276H21.0269C21.2461 12.5276 21.4653 12.5609 21.6713 12.6339C22.4619 12.9063 23 13.657 23 14.5008V14.6602C23 15.7497 22.1164 16.6333 21.0269 16.6333H20.9937C20.8209 16.6333 20.6814 16.4938 20.6814 16.3211C20.6814 16.3012 20.6814 16.2812 20.6881 16.2546C20.6947 16.1816 20.7013 16.1085 20.7013 16.0354C20.7013 15.0256 19.8775 14.1952 18.8611 14.1952C17.8513 14.1952 17.0208 15.019 17.0208 16.0354C17.0208 16.1151 17.0275 16.1949 17.0408 16.2812C17.0541 16.3676 17.0275 16.4606 16.9677 16.527C16.9079 16.5935 16.8215 16.6333 16.7352 16.6333H9.56016C9.38743 16.6333 9.24791 16.4938 9.24791 16.3211C9.24791 16.3012 9.24791 16.2812 9.25456 16.2546C9.2612 16.1816 9.26785 16.1085 9.26785 16.0354C9.26785 15.0256 8.44405 14.1952 7.42759 14.1952C6.41777 14.1952 5.58734 15.019 5.58734 16.0354C5.58734 16.1151 5.59398 16.1949 5.60062 16.2812C5.61391 16.3676 5.58734 16.4606 5.52754 16.527C5.46775 16.5935 5.38139 16.6333 5.29502 16.6333H5.24852Z" fill="#003354"/>
<path d="M10.6103 6.83413C10.3379 7.03344 10.1519 7.53835 9.96586 8.02997C9.70677 8.72754 9.41445 9.51811 8.74345 9.77721C8.49764 9.87022 8.17876 9.96987 7.80672 10.0828C6.60424 10.4482 5.30211 10.8867 5.13602 11.3849C5.02308 11.7238 4.93672 12.0892 4.87028 12.4678L4.857 12.5608L4.95 12.5476C5.04966 12.5343 5.14931 12.5276 5.25561 12.5276H21.1336L21.107 12.4413C20.8546 11.6241 19.5325 7.51841 18.2769 6.85406C17.6856 6.54182 16.3104 6.34915 14.6097 6.34915C12.424 6.3558 10.8827 6.63483 10.6103 6.83413ZM4.48496 13.3381C4.39859 13.3381 4.31223 13.3049 4.25908 13.2385C4.19929 13.172 4.16607 13.0857 4.17271 12.9993C4.17271 12.9661 4.23915 12.1423 4.54475 11.1989C4.80385 10.4083 6.03954 9.97652 7.62734 9.49154C7.97281 9.38524 8.29834 9.28559 8.51758 9.19923C8.92947 9.03978 9.15535 8.42193 9.38123 7.81737C9.59383 7.23939 9.81306 6.64147 10.2382 6.32922C10.8029 5.91733 12.8957 5.73131 14.6097 5.73131C15.6859 5.73131 17.6258 5.80439 18.5692 6.30929C19.3133 6.70791 20.0773 7.90374 20.8945 9.96987C21.4791 11.4514 21.8644 12.8 21.8777 12.8598C21.9109 12.9727 21.8777 13.0923 21.7913 13.172C21.7315 13.2252 21.6585 13.2584 21.5787 13.2584C21.5455 13.2584 21.5123 13.2518 21.4791 13.2385C21.3396 13.192 21.1868 13.1654 21.0406 13.1654H5.24896C5.03637 13.1654 4.83042 13.2119 4.63776 13.3116C4.5979 13.3315 4.54475 13.3448 4.49825 13.3448H4.48496V13.3381Z" fill="#003354"/>
</svg>
