<svg width="24" height="24" viewBox="0 0 24 24" fill="none" xmlns="http://www.w3.org/2000/svg">
<path d="M0 12C0 18.6256 5.37441 24 12 24C18.6256 24 24 18.6256 24 12C24 5.37441 18.6256 0 12 0C5.37441 0 0 5.37441 0 12Z" fill="#DFE8F0"/>
<path d="M11.9992 6.59717C14.7177 6.59717 16.93 8.80949 16.93 11.528V17.4029H7.06836V11.528C7.06836 8.80949 9.28068 6.59717 11.9992 6.59717Z" fill="#7B99B3"/>
<path d="M8.33594 13.4161L8.68286 11.6872C8.8876 11.6815 9.08096 11.619 9.25726 11.4995C9.42788 11.3858 9.56437 11.2265 9.64968 11.0389L14.4611 12.0057C14.4781 12.4209 14.7284 12.7962 15.1037 12.9725L14.7568 14.7014C14.3416 14.7185 13.9663 14.9687 13.79 15.3441L8.97859 14.3773C8.96722 13.9678 8.71698 13.5924 8.33594 13.4161Z" fill="white"/>
<path d="M11.1918 13.0862C11.1349 13.382 11.3226 13.6663 11.6183 13.7289C11.6524 13.7346 11.6923 13.7403 11.7264 13.7403C11.8344 13.7403 11.9368 13.7118 12.0278 13.6493C12.1472 13.5696 12.2325 13.4445 12.261 13.3024C12.3179 13.0066 12.1302 12.7223 11.8344 12.6597C11.5387 12.6028 11.2487 12.7962 11.1918 13.0862Z" fill="#003354"/>
<path d="M8.33829 13.4161L8.68521 11.6872C8.88995 11.6815 9.08331 11.619 9.25962 11.4995C9.43023 11.3858 9.56673 11.2266 9.65203 11.0389L14.4634 12.0057C14.4805 12.4209 14.7307 12.7962 15.1061 12.9725L14.7591 14.7014C14.344 14.7185 13.9686 14.9687 13.7923 15.3441L8.98094 14.3773C8.96957 13.9678 8.71933 13.5924 8.33829 13.4161ZM7.99137 13.837C8.30985 13.8995 8.52028 14.218 8.45772 14.5365C8.42929 14.673 8.52028 14.8095 8.65677 14.8379L13.9118 15.8901C13.9288 15.8957 13.9459 15.8957 13.9629 15.8957C14.0141 15.8957 14.0596 15.8787 14.1051 15.8503C14.162 15.8104 14.2018 15.7536 14.2132 15.6853C14.2757 15.3668 14.5885 15.1564 14.9127 15.219C15.0492 15.2474 15.1857 15.1564 15.2141 15.0199L15.652 12.8474C15.6634 12.7792 15.652 12.7109 15.6122 12.654C15.5724 12.5972 15.5155 12.5574 15.4473 12.546C15.1288 12.4834 14.9184 12.1649 14.9809 11.8465C15.0094 11.71 14.9184 11.5735 14.7819 11.545L9.52692 10.4929C9.45867 10.4815 9.39042 10.4929 9.33355 10.5327C9.27668 10.5725 9.23687 10.6294 9.22549 10.6976C9.19706 10.8512 9.10606 10.9877 8.96957 11.073C8.83876 11.1583 8.67952 11.1924 8.52597 11.1583C8.45772 11.1469 8.38948 11.1583 8.3326 11.1981C8.27573 11.2379 8.23592 11.2948 8.22455 11.363L7.79232 13.5356C7.76388 13.6777 7.85488 13.8085 7.99137 13.837Z" fill="#003354"/>
<path d="M9.8246 12.8133C9.76773 13.109 9.9554 13.3934 10.2511 13.4559C10.2853 13.4616 10.3251 13.4673 10.3592 13.4673C10.6151 13.4673 10.8426 13.2853 10.8938 13.0294C10.9507 12.7336 10.763 12.4493 10.4673 12.3867C10.1715 12.3298 9.88716 12.5232 9.8246 12.8133Z" fill="#003354"/>
<path d="M12.5473 13.3649C12.4904 13.6607 12.6781 13.945 12.9738 14.0076C13.0079 14.0133 13.0477 14.019 13.0819 14.019C13.3378 14.019 13.5653 13.8427 13.6164 13.5811C13.6449 13.4389 13.6164 13.291 13.5368 13.1716C13.4572 13.0521 13.3321 12.9668 13.1899 12.9384C13.0477 12.91 12.8999 12.9384 12.7804 13.018C12.6553 13.0976 12.5757 13.2171 12.5473 13.3649Z" fill="#003354"/>
<path d="M3.72474 17.9147H5.0328H6.81858H17.192H18.9778H20.2859V19.1886H3.73611V17.9147H3.72474ZM7.06881 17.4029V11.528C7.06881 8.80949 9.28114 6.59716 11.9996 6.59716C14.7181 6.59716 16.9304 8.80949 16.9304 11.528V17.4029H7.06881ZM18.7105 17.4029H17.4366V11.528C17.4366 8.52513 14.9968 6.08532 11.9939 6.08532C8.99109 6.08532 6.55128 8.52513 6.55128 11.528V17.4029H5.28872V11.528C5.28872 7.8256 8.30294 4.81707 11.9996 4.81707C15.6963 4.81707 18.7105 7.83129 18.7105 11.528V17.4029ZM3.21289 17.6588V19.4446C3.21289 19.5867 3.32663 19.7005 3.46881 19.7005H20.5304C20.6726 19.7005 20.7864 19.5867 20.7864 19.4446V17.6588C20.7864 17.5166 20.6726 17.4029 20.5304 17.4029H19.2224V11.528C19.2224 7.54124 15.9807 4.30522 11.9996 4.30522C8.01858 4.30522 4.77687 7.54693 4.77687 11.528V17.4029H3.46881C3.32663 17.4029 3.21289 17.5166 3.21289 17.6588Z" fill="#003354"/>
<path d="M17.4426 11.528C17.4426 8.52512 15.0028 6.08531 12 6.08531C8.99712 6.08531 6.55731 8.52512 6.55731 11.528V17.4028H5.28906V11.528C5.28906 7.82559 8.30328 4.81706 12 4.81706C15.6966 4.81706 18.7109 7.83128 18.7109 11.528V17.4028H17.4369V11.528H17.4426Z" fill="white"/>
<path d="M5.03267 17.9147H6.81276H17.1862H18.9663H20.2744V19.1829H3.72461V17.9147H5.03267Z" fill="white"/>
</svg>
