<svg width="23" height="24" viewBox="0 0 23 24" fill="none" xmlns="http://www.w3.org/2000/svg">
<path d="M22.7602 9.90711C22.7602 7.67772 21.3498 5.77251 19.3763 5.03886C18.7735 2.16114 16.2199 0 13.1602 0C11.3118 0 9.6455 0.790521 8.48531 2.05308C8.06446 1.97915 7.63791 1.93934 7.19431 1.93934C3.22464 1.93365 0 5.15829 0 9.13365C0 10.6521 0.472038 12.0626 1.27393 13.2227C0.517536 14.3318 0.0796209 15.6682 0.0796209 17.1071C0.0796209 20.9175 3.16209 24 6.96682 24C9.27014 24 11.3062 22.8739 12.5573 21.1393C13.5185 22.0038 14.7867 22.527 16.1801 22.527C19.1716 22.527 21.6 20.0986 21.6 17.1071C21.6 15.981 21.2588 14.9346 20.6673 14.0701C21.9412 13.1261 22.7602 11.6133 22.7602 9.90711Z" fill="#DFE8F0"/>
<path d="M19.6222 18.5915C19.5824 18.6768 19.19 18.9554 17.8478 19.2C16.8298 19.382 15.573 19.4957 14.3559 19.5071C14.3275 17.4199 14.3047 16.8341 14.282 16.6464C14.3104 16.5441 14.464 16.2085 14.5436 16.0436C14.6004 15.9185 14.6459 15.8218 14.6744 15.7592C14.7654 15.5318 14.6004 15.3156 14.3957 15.037C14.299 14.9062 14.1625 14.7299 14.1284 14.6218C14.2649 14.4114 15.1123 13.9735 15.3568 13.928C15.4251 13.9564 15.5559 14.1156 15.6185 14.1953C15.6696 14.2578 15.7151 14.3147 15.7663 14.3659C15.863 14.4626 16.0336 14.5081 16.8412 14.6957C17.4497 14.8322 18.7123 15.1223 18.8943 15.3156C19.2241 15.6853 19.827 18.1308 19.6222 18.5915ZM12.6725 15.0427C12.4677 15.3213 12.3028 15.5374 12.3938 15.7649C12.4166 15.8275 12.4621 15.9242 12.5246 16.0493C12.6042 16.2142 12.7578 16.5441 12.7862 16.6521C12.7635 16.8398 12.7407 17.4199 12.7123 19.5128C11.4952 19.5014 10.2384 19.3877 9.22035 19.2057C7.87817 18.9611 7.48575 18.6825 7.44594 18.5972C7.2412 18.1365 7.84973 15.691 8.17391 15.3327C8.35021 15.1393 9.61846 14.8493 10.227 14.7128C11.0346 14.5308 11.2052 14.4853 11.3019 14.3829C11.3474 14.3374 11.3986 14.2749 11.4497 14.2123C11.5123 14.1327 11.6488 13.9678 11.717 13.945C11.9616 13.9848 12.8147 14.4284 12.9455 14.6389C12.9057 14.7355 12.7749 14.9118 12.6725 15.0427ZM12.7862 16.6351C12.7862 16.6237 12.7919 16.6066 12.7919 16.5896C12.7862 16.6009 12.7862 16.6123 12.7862 16.6351ZM14.2763 16.5896C14.282 16.6066 14.282 16.6237 14.282 16.6351C14.282 16.6123 14.282 16.6009 14.2763 16.5896ZM20.0943 18.7962C20.4014 18.091 19.7019 15.4521 19.2753 14.9801C19.008 14.69 18.1493 14.4739 16.9606 14.2009C16.6308 14.127 16.227 14.036 16.1132 13.9905C16.0848 13.9621 16.0564 13.9223 16.0222 13.8825C15.8573 13.6777 15.6469 13.4218 15.3625 13.4218C15.0782 13.4218 14.0715 13.9052 13.7531 14.2806C13.6393 14.4114 13.5938 14.5479 13.6166 14.6787C13.6564 14.9005 13.8213 15.128 13.9862 15.3498C14.0488 15.4351 14.1455 15.5602 14.1796 15.6284C14.1568 15.6796 14.1227 15.7536 14.0829 15.8332C13.8099 16.4076 13.7417 16.5839 13.7815 16.7261C13.8042 16.9365 13.8327 18.4436 13.844 19.5128H13.2185C13.2298 18.4436 13.2583 16.9365 13.281 16.7261C13.3208 16.5839 13.2526 16.4076 12.9796 15.8332C12.9455 15.7592 12.9113 15.6853 12.8829 15.6284C12.917 15.5602 13.008 15.4351 13.0763 15.3498C13.2412 15.128 13.4118 14.9062 13.4459 14.6787C13.4687 14.5479 13.4232 14.4114 13.3095 14.2806C12.991 13.9052 11.9843 13.4218 11.7 13.4218C11.4156 13.4218 11.2052 13.6777 11.0403 13.8825C11.0061 13.9223 10.9777 13.9621 10.9493 13.9905C10.8355 14.036 10.4317 14.127 10.1019 14.2009C8.91324 14.4739 8.04879 14.6844 7.78718 14.9801C7.36064 15.4521 6.66111 18.091 6.96822 18.7962C7.03078 18.9327 7.21277 19.3536 9.12367 19.7005C10.2384 19.8995 11.6374 20.019 12.9568 20.019H14.1057C15.4308 20.019 16.8241 19.9052 17.9388 19.7005C19.8497 19.3536 20.0317 18.9327 20.0943 18.7962Z" fill="#003354"/>
<path d="M15.8614 9.82749L15.8557 9.89574C15.8329 10.1858 15.7647 10.3791 15.7135 10.4815C15.5372 10.5725 15.5144 10.8114 15.5031 11.0957C15.4917 11.4995 14.6045 13.0976 13.5296 13.0976C12.4547 13.0976 11.5675 11.4995 11.5561 11.0957C11.5505 10.8114 11.5277 10.5668 11.3457 10.4815C11.3002 10.3791 11.232 10.1858 11.2035 9.89574L11.1978 9.82749C11.1523 9.29858 11.067 8.30901 11.3685 7.68341C11.6073 7.19431 12.3125 6.65403 13.5125 6.72796C13.5239 6.72796 13.5353 6.72796 13.5467 6.72796C14.7467 6.65403 15.4519 7.19431 15.6907 7.68341C15.9922 8.30901 15.9068 9.29858 15.8614 9.82749ZM16.3732 9.87299C16.4244 9.29289 16.5154 8.21232 16.1514 7.46161C15.8443 6.83602 14.9798 6.13649 13.5353 6.2218C12.0907 6.13649 11.2263 6.83602 10.9192 7.46161C10.5552 8.21232 10.6462 9.29289 10.6974 9.87299L10.7031 9.94123C10.7542 10.5498 10.9647 10.8512 10.9931 10.8796C11.0045 10.8967 11.0215 10.9137 11.0386 10.9308C11.0443 10.9706 11.05 11.0332 11.05 11.1185C11.067 11.7441 12.0964 13.6152 13.5353 13.6152C14.9741 13.6152 16.0035 11.7384 16.0206 11.1185C16.0206 11.0332 16.0263 10.9763 16.032 10.9308C16.049 10.9194 16.0661 10.9024 16.0775 10.8796C16.1002 10.8455 16.3106 10.5498 16.3675 9.94123L16.3732 9.87299Z" fill="#003354"/>
<path d="M3.11146 4.77725C3.11146 4.62369 3.23658 4.49289 3.39582 4.49289H9.17402C9.32757 4.49289 9.45838 4.61801 9.45838 4.77725V8.72986C9.45838 8.88341 9.33326 9.01422 9.17402 9.01422H8.71904C8.57686 9.01422 8.46312 9.12796 8.46312 9.27014V10.8796L7.38823 9.13365C7.34274 9.05971 7.25743 9.01422 7.17212 9.01422H3.39582C3.24226 9.01422 3.11146 8.8891 3.11146 8.72986V4.77725ZM2.59961 4.77725V8.72986C2.59961 9.16777 2.9579 9.52606 3.39582 9.52606H7.02994L8.50293 11.9204C8.54842 12 8.63373 12.0398 8.71904 12.0398C8.74179 12.0398 8.76454 12.0341 8.78729 12.0284C8.89534 12 8.97496 11.8976 8.97496 11.7839V9.52038H9.17402C9.61193 9.52038 9.97023 9.16208 9.97023 8.72417V4.77725C9.97023 4.33933 9.61193 3.98104 9.17402 3.98104H3.39582C2.95222 3.98104 2.59961 4.33933 2.59961 4.77725Z" fill="#003354"/>
<path d="M14.2734 16.5896C14.2791 16.6066 14.2791 16.6237 14.2791 16.6351C14.2791 16.6123 14.2791 16.6009 14.2734 16.5896Z" fill="#7B99B3"/>
<path d="M15.3554 13.9337C15.4236 13.9621 15.5544 14.1213 15.617 14.2009C15.6682 14.2635 15.7137 14.3204 15.7649 14.3716C15.8616 14.4682 16.0322 14.5137 16.8398 14.7014C17.4483 14.8379 18.7108 15.128 18.8928 15.3213C19.2227 15.6796 19.8255 18.1251 19.6208 18.5858C19.581 18.6711 19.1886 18.9498 17.8464 19.1943C16.8284 19.3763 15.5715 19.49 14.3544 19.5014C14.326 17.4142 14.3033 16.8284 14.2805 16.6408C14.3089 16.5384 14.4625 16.2028 14.5421 16.0379C14.599 15.9128 14.6445 15.8161 14.6729 15.7536C14.7639 15.5261 14.599 15.31 14.3943 15.0313C14.2976 14.9005 14.1611 14.7242 14.127 14.6161C14.2578 14.4171 15.1108 13.9791 15.3554 13.9337Z" fill="#7B99B3"/>
<path d="M8.17208 15.327C8.34839 15.1337 9.61663 14.8436 10.2252 14.7071C11.0327 14.5251 11.2034 14.4796 11.3 14.3773C11.3455 14.3318 11.3967 14.2692 11.4479 14.2066C11.5105 14.127 11.647 13.9621 11.7152 13.9393C11.9598 13.9791 12.8128 14.4227 12.9436 14.6332C12.9038 14.7412 12.773 14.9175 12.6763 15.0483C12.4716 15.327 12.3067 15.5431 12.3977 15.7706C12.4204 15.8332 12.4659 15.9299 12.5285 16.055C12.6081 16.2199 12.7617 16.5498 12.7901 16.6578C12.7673 16.8455 12.7446 17.4256 12.7162 19.5185C11.4991 19.5071 10.2422 19.3934 9.22422 19.2114C7.88204 18.9668 7.48962 18.6882 7.44981 18.6028C7.23938 18.1251 7.84222 15.6853 8.17208 15.327Z" fill="#7B99B3"/>
<path d="M12.7852 16.6351C12.7852 16.6237 12.7908 16.6066 12.7908 16.5896C12.7852 16.6009 12.7852 16.6123 12.7852 16.6351Z" fill="#7B99B3"/>
<path d="M15.8627 9.82749L15.857 9.89574C15.8343 10.1858 15.766 10.3792 15.7148 10.4815C15.5385 10.5725 15.5158 10.8114 15.5044 11.0957C15.493 11.4995 14.6058 13.0976 13.531 13.0976C12.4561 13.0976 11.5689 11.4995 11.5575 11.0957C11.5518 10.8114 11.5291 10.5668 11.3471 10.4815C11.3016 10.3792 11.2333 10.1858 11.2049 9.89574L11.1992 9.82749C11.1537 9.29858 11.0684 8.30901 11.3698 7.68342C11.6087 7.19432 12.3139 6.65403 13.5139 6.72797C13.5253 6.72797 13.5367 6.72797 13.548 6.72797C14.748 6.65403 15.4532 7.19432 15.6921 7.68342C15.9935 8.30901 15.9082 9.29858 15.8627 9.82749Z" fill="white"/>
<path d="M3.10938 4.77725C3.10938 4.6237 3.23449 4.49289 3.39374 4.49289H9.17193C9.32549 4.49289 9.4563 4.61801 9.4563 4.77725V8.72986C9.4563 8.88341 9.33118 9.01422 9.17193 9.01422H8.71696C8.57478 9.01422 8.46103 9.12796 8.46103 9.27014V10.8796L7.38615 9.13365C7.34065 9.05971 7.25535 9.01422 7.17004 9.01422H3.39374C3.24018 9.01422 3.10938 8.8891 3.10938 8.72986V4.77725Z" fill="white"/>
</svg>
