<svg width="23" height="24" viewBox="0 0 23 24" fill="none" xmlns="http://www.w3.org/2000/svg">
<path d="M22.9649 7.43318C22.9649 3.32701 19.6379 0 15.5318 0C13.5355 0 11.727 0.784834 10.3905 2.06445C9.45213 1.62085 8.4 1.37062 7.29099 1.37062C3.26445 1.37062 0 4.63507 0 8.66161C0 10.7602 0.887204 12.654 2.309 13.9791C1.63791 15.0028 1.25118 16.2199 1.25118 17.528C1.25118 21.1052 4.14597 24 7.71754 24C9.83317 24 11.7156 22.982 12.8929 21.4123C13.7744 21.9071 14.7867 22.1915 15.8673 22.1915C19.2284 22.1915 21.9526 19.4673 21.9526 16.1062C21.9526 14.8095 21.5488 13.6038 20.855 12.6199C22.163 11.2777 22.9649 9.45213 22.9649 7.43318Z" fill="#DFE8F0"/>
<path d="M19.7568 12C19.7568 16.5611 16.043 20.2749 11.4819 20.2749C6.92078 20.2749 3.20703 16.5611 3.20703 12C3.20703 7.43886 6.92078 3.72512 11.4819 3.72512C16.043 3.72512 19.7568 7.43886 19.7568 12Z" fill="#7B99B3"/>
<path d="M17.47 11.4199V12.5858C17.47 12.728 17.5838 12.8417 17.726 12.8417H18.2947C17.9136 15.981 15.4625 18.4322 12.3231 18.8133V18.2445C12.3231 18.1024 12.2094 17.9886 12.0672 17.9886H10.9013C10.7591 17.9886 10.6454 18.1024 10.6454 18.2445V18.8133C7.50606 18.4322 5.05487 15.981 4.67383 12.8417H5.24255C5.38473 12.8417 5.49847 12.728 5.49847 12.5858V11.4199C5.49847 11.2777 5.38473 11.164 5.24255 11.164H4.67383C5.05487 8.02464 7.50606 5.57346 10.6454 5.19242V5.76114C10.6454 5.90332 10.7591 6.01706 10.9013 6.01706H12.0672C12.2094 6.01706 12.3231 5.90332 12.3231 5.76114V5.19242C15.4625 5.57346 17.9136 8.02464 18.2947 11.164H17.726C17.5838 11.164 17.47 11.2777 17.47 11.4199Z" fill="white"/>
<path d="M19.7569 12C19.7569 16.5611 16.0432 20.2749 11.482 20.2749C6.92091 20.2749 3.20716 16.5611 3.20716 12C3.20716 7.43886 6.92091 3.72512 11.482 3.72512C16.0432 3.72512 19.7569 7.43886 19.7569 12ZM20.2688 12C20.2688 7.1545 16.3275 3.21327 11.482 3.21327C6.63654 3.21327 2.69531 7.1545 2.69531 12C2.69531 16.8455 6.63654 20.7867 11.482 20.7867C16.3275 20.7867 20.2688 16.8455 20.2688 12Z" fill="#003354"/>
<path d="M14.3024 10.5327C14.2854 10.5953 14.2455 10.6465 14.1887 10.6806L12.6759 11.5735C12.619 11.4199 12.5337 11.2777 12.4256 11.1526L13.9384 10.2597C14.0522 10.1915 14.2057 10.2313 14.274 10.345C14.3081 10.4076 14.3195 10.4701 14.3024 10.5327ZM10.6399 11.0559C10.5204 11.164 10.4181 11.2948 10.3441 11.4427L7.31284 9.13934C7.26166 9.09953 7.22753 9.04266 7.21616 8.9801C7.20479 8.91754 7.22185 8.84929 7.26166 8.79811C7.34128 8.69005 7.49483 8.67299 7.60289 8.75261L10.6399 11.0559ZM10.7252 12C10.7252 11.9829 10.7252 11.9659 10.7252 11.9431C10.7252 11.9261 10.7252 11.9147 10.7309 11.8976C10.765 11.6303 10.9413 11.4085 11.1801 11.3062C11.2086 11.2948 11.2313 11.2834 11.2598 11.2777H11.2654C11.2882 11.272 11.3166 11.2664 11.3394 11.2607H11.3451C11.3735 11.255 11.3963 11.255 11.4247 11.2493H11.4304C11.5726 11.2436 11.7204 11.272 11.8455 11.346C12.0673 11.4768 12.2209 11.71 12.2266 11.9886C12.2266 11.9943 12.2266 12 12.2266 12.0057C12.2266 12.0171 12.2266 12.0341 12.2266 12.0455C12.2266 12.0569 12.2266 12.0683 12.2266 12.0853C12.2266 12.0967 12.2209 12.1137 12.2209 12.1251C12.2209 12.1365 12.2152 12.1479 12.2152 12.1592C12.2152 12.1706 12.2095 12.182 12.2038 12.1991C12.1982 12.2104 12.1981 12.2218 12.1925 12.2332C12.1868 12.2446 12.1811 12.2559 12.1811 12.273C12.1754 12.2844 12.1754 12.2957 12.1697 12.3071C12.164 12.3185 12.1583 12.3299 12.1527 12.3412C12.147 12.3526 12.1413 12.364 12.1356 12.3697C12.1299 12.381 12.1242 12.3924 12.1128 12.4038C12.1072 12.4152 12.1015 12.4209 12.0958 12.4322C12.0901 12.4436 12.0787 12.455 12.073 12.4664C12.0673 12.472 12.0617 12.4834 12.056 12.4891C12.0446 12.5005 12.0389 12.5119 12.0275 12.5175C12.0218 12.5232 12.0162 12.5346 12.0048 12.5403C11.9934 12.5517 11.982 12.5574 11.9763 12.5687C11.9707 12.5744 11.9593 12.5801 11.9536 12.5915C11.9422 12.6028 11.9309 12.6085 11.9195 12.6142C11.9138 12.6199 11.9024 12.6256 11.8967 12.6313C11.8854 12.637 11.874 12.6483 11.8626 12.654C11.8512 12.6597 11.8455 12.6654 11.8342 12.6711C11.8228 12.6768 11.8057 12.6825 11.7944 12.6882C11.783 12.6938 11.7773 12.6995 11.7659 12.6995C11.7545 12.7052 11.7375 12.7109 11.7261 12.7166C11.7147 12.7223 11.7091 12.7223 11.6977 12.728C11.6806 12.7337 11.6692 12.7337 11.6522 12.7393C11.6408 12.7393 11.6351 12.745 11.6237 12.745C11.6067 12.7507 11.5896 12.7507 11.5726 12.7507C11.5669 12.7507 11.5555 12.7564 11.5498 12.7564C11.5271 12.7564 11.4986 12.7621 11.4702 12.7621C11.0664 12.7564 10.7252 12.4152 10.7252 12ZM14.7176 10.0891C14.5072 9.73081 14.0408 9.61138 13.6825 9.82181L11.9707 10.8284C11.8171 10.7659 11.6522 10.7261 11.4759 10.7261C11.3564 10.7261 11.237 10.7431 11.129 10.7773C11.1233 10.7773 11.1233 10.7773 11.1176 10.7773L7.90431 8.33745C7.57445 8.08721 7.09673 8.14977 6.84649 8.47963C6.72706 8.63887 6.67019 8.83792 6.69862 9.03697C6.72706 9.23602 6.82943 9.41233 6.98867 9.53745L10.2019 11.9773C10.2019 11.9829 10.2019 11.9886 10.2019 11.9943C10.2019 12.6938 10.7707 13.2626 11.4702 13.2626C11.51 13.2626 11.5498 13.2626 11.5839 13.2569C11.5896 13.2569 11.5896 13.2569 11.5953 13.2569C11.6294 13.2512 11.6692 13.2455 11.7034 13.2398C11.7091 13.2398 11.7147 13.2398 11.7147 13.2398C11.7489 13.2341 11.783 13.2228 11.8171 13.2171C11.8228 13.2171 11.8285 13.2114 11.8342 13.2114C11.8683 13.2 11.8967 13.1886 11.9309 13.1773C11.9365 13.1773 11.9422 13.1716 11.9479 13.1716C11.9763 13.1602 12.0105 13.1431 12.0389 13.1318C12.0446 13.1318 12.0503 13.1261 12.0503 13.1261C12.0787 13.109 12.1072 13.0919 12.1413 13.0749C12.147 13.0749 12.147 13.0692 12.1527 13.0692C12.1811 13.0521 12.2095 13.0294 12.238 13.0123L12.2436 13.0066C12.2721 12.9839 12.3005 12.9611 12.329 12.9384C12.3574 12.9156 12.3801 12.8872 12.4029 12.8645L12.4086 12.8588C12.4313 12.836 12.4541 12.8076 12.4768 12.7792C12.4825 12.7735 12.4825 12.7735 12.4882 12.7678C12.5109 12.7393 12.528 12.7166 12.5451 12.6882C12.5508 12.6825 12.5508 12.6768 12.5564 12.6768C12.5735 12.6483 12.5906 12.6199 12.6076 12.5915C12.6076 12.5858 12.6133 12.5801 12.6133 12.5744C12.6304 12.546 12.6418 12.5119 12.6531 12.4834C12.6531 12.4777 12.6588 12.472 12.6588 12.472C12.6702 12.4379 12.6816 12.4095 12.6929 12.3754C12.6929 12.3697 12.6929 12.3697 12.6986 12.364C12.71 12.3299 12.7157 12.2957 12.7271 12.2616V12.2559C12.7327 12.2218 12.7384 12.182 12.7441 12.1479L14.4503 11.1412C14.8086 10.9137 14.928 10.4474 14.7176 10.0891Z" fill="#003354"/>
<path d="M10.7319 11.8976C10.766 11.6303 10.9423 11.4028 11.1812 11.3005C11.2096 11.2891 11.2324 11.2777 11.2608 11.272H11.2665C11.2893 11.2664 11.3177 11.2607 11.3404 11.255H11.3461C11.3746 11.2493 11.3973 11.2493 11.4257 11.2436H11.4314C11.5736 11.2379 11.7215 11.2664 11.8466 11.3403C12.0684 11.4711 12.222 11.7043 12.2276 11.9829C12.2276 11.9886 12.2276 11.9943 12.2276 12C12.2276 12.0114 12.2276 12.0284 12.2276 12.0398C12.2276 12.0512 12.2276 12.0626 12.2276 12.0796C12.2276 12.091 12.222 12.1081 12.222 12.1194C12.222 12.1308 12.2163 12.1422 12.2163 12.1536C12.2163 12.1649 12.2106 12.1763 12.2049 12.1934C12.1992 12.2047 12.1992 12.2161 12.1935 12.2275C12.1878 12.2389 12.1821 12.2502 12.1821 12.2673C12.1765 12.2787 12.1765 12.29 12.1708 12.3014C12.1651 12.3128 12.1594 12.3242 12.1537 12.3355C12.148 12.3469 12.1423 12.3583 12.1366 12.364C12.131 12.3754 12.1253 12.3867 12.1139 12.3981C12.1082 12.4095 12.1025 12.4152 12.0968 12.4265C12.0911 12.4379 12.0798 12.4493 12.0741 12.4607C12.0684 12.4664 12.0627 12.4777 12.057 12.4834C12.0456 12.4948 12.04 12.5062 12.0286 12.5118C12.0229 12.5175 12.0172 12.5289 12.0058 12.5346C11.9945 12.546 11.9831 12.5517 11.9774 12.563C11.9717 12.5687 11.9603 12.5744 11.9547 12.5858C11.9433 12.5972 11.9319 12.6028 11.9205 12.6085C11.9148 12.6142 11.9035 12.6199 11.8978 12.6256C11.8864 12.6313 11.875 12.6427 11.8637 12.6483C11.8523 12.654 11.8466 12.6597 11.8352 12.6654C11.8238 12.6711 11.8068 12.6768 11.7954 12.6825C11.784 12.6882 11.7784 12.6938 11.767 12.6938C11.7556 12.6995 11.7385 12.7052 11.7272 12.7109C11.7158 12.7166 11.7101 12.7166 11.6987 12.7223C11.6817 12.728 11.6703 12.728 11.6532 12.7336C11.6419 12.7336 11.6362 12.7393 11.6248 12.7393C11.6077 12.745 11.5907 12.745 11.5736 12.745C11.5679 12.745 11.5566 12.7507 11.5509 12.7507C11.5281 12.7507 11.4997 12.7564 11.4712 12.7564C11.0561 12.7564 10.7148 12.4152 10.7148 12C10.7148 11.9829 10.7148 11.9659 10.7148 11.9431C10.7319 11.9318 10.7319 11.9147 10.7319 11.8976Z" fill="#7B99B3"/>
<path d="M14.2741 10.3507C14.3082 10.4076 14.3139 10.4701 14.3026 10.5327C14.2855 10.5953 14.2457 10.6464 14.1888 10.6806L12.676 11.5735C12.6191 11.4199 12.5338 11.2777 12.4258 11.1526L13.9386 10.2597C14.058 10.1972 14.2059 10.2313 14.2741 10.3507Z" fill="#7B99B3"/>
<path d="M7.26319 8.7981C7.34281 8.69004 7.49636 8.67298 7.60442 8.7526L10.6357 11.0559C10.5163 11.164 10.4139 11.2948 10.34 11.4427L7.30869 9.13933C7.2575 9.09952 7.22338 9.04265 7.212 8.98009C7.20632 8.91185 7.22338 8.84929 7.26319 8.7981Z" fill="#7B99B3"/>
<path d="M17.4702 11.4199V12.5858C17.4702 12.728 17.5839 12.8417 17.7261 12.8417H18.2948C17.9138 15.981 15.4626 18.4322 12.3232 18.8133V18.2445C12.3232 18.1024 12.2095 17.9886 12.0673 17.9886H10.9014C10.7593 17.9886 10.6455 18.1024 10.6455 18.2445V18.8133C7.50618 18.4322 5.05499 15.981 4.67395 12.8417H5.24267C5.38485 12.8417 5.49859 12.728 5.49859 12.5858V11.4199C5.49859 11.2777 5.38485 11.164 5.24267 11.164H4.67395C5.05499 8.02464 7.50618 5.57346 10.6455 5.19242V5.76114C10.6455 5.90332 10.7593 6.01706 10.9014 6.01706H12.0673C12.2095 6.01706 12.3232 5.90332 12.3232 5.76114V5.19242C15.4626 5.57346 17.9138 8.02464 18.2948 11.164H17.7261C17.5839 11.164 17.4702 11.2777 17.4702 11.4199ZM17.982 12.3242V11.6701H18.5735C18.6474 11.6701 18.7157 11.6417 18.7612 11.5905C18.8123 11.5393 18.8351 11.4654 18.8294 11.3972C18.6872 9.66256 17.9308 8.02464 16.6967 6.78483C15.4626 5.55071 13.8247 4.78863 12.0844 4.65213C12.0104 4.64645 11.9422 4.66919 11.891 4.72038C11.8398 4.77156 11.8114 4.83981 11.8114 4.90806V5.49953H11.1574V4.90806C11.1574 4.83412 11.1289 4.76588 11.0777 4.72038C11.0266 4.66919 10.9526 4.64645 10.8844 4.65213C9.14978 4.79431 7.51186 5.55071 6.27205 6.78483C5.03793 8.01896 4.27585 9.65687 4.13935 11.3972C4.13367 11.4711 4.15641 11.5393 4.2076 11.5905C4.25878 11.6417 4.32703 11.6701 4.39528 11.6701H4.98675V12.3242H4.38959C4.31566 12.3242 4.24741 12.3526 4.20191 12.4038C4.15073 12.455 4.12798 12.5289 4.13367 12.5972C4.27585 14.3318 5.03224 15.9697 6.26637 17.2095C7.50049 18.4436 9.1384 19.2057 10.8787 19.3422C10.8844 19.3422 10.8901 19.3422 10.9014 19.3422C10.964 19.3422 11.0266 19.3194 11.0777 19.2739C11.1289 19.2227 11.1574 19.1545 11.1574 19.0863V18.4948H11.8114V19.0863C11.8114 19.1602 11.8398 19.2284 11.891 19.2739C11.9422 19.3251 12.0161 19.3479 12.0844 19.3422C13.819 19.2 15.4569 18.4436 16.6967 17.2095C17.9308 15.9754 18.6929 14.3374 18.8294 12.5972C18.8351 12.5232 18.8123 12.455 18.7612 12.4038C18.71 12.3526 18.6417 12.3242 18.5735 12.3242H17.982Z" fill="#003354"/>
</svg>
