<svg width="945" height="518" viewBox="0 0 945 518" fill="none" xmlns="http://www.w3.org/2000/svg">
<rect x="215" width="125" height="33" rx="16.5" fill="#D93E69"/>
<path d="M234.119 22V11.8182H240.502V13.1406H235.655V16.2429H240.169V17.5604H235.655V20.6776H240.562V22H234.119ZM243.623 11.8182L246.059 15.8004H246.139L248.575 11.8182H250.355L247.183 16.9091L250.374 22H248.585L246.139 18.0724H246.059L243.613 22H241.823L245.07 16.9091L241.843 11.8182H243.623ZM251.878 22V11.8182H255.508C256.3 11.8182 256.956 11.9624 257.476 12.2507C257.997 12.5391 258.386 12.9335 258.645 13.4339C258.903 13.9311 259.032 14.4912 259.032 15.1143C259.032 15.7408 258.902 16.3042 258.64 16.8047C258.381 17.3018 257.99 17.6963 257.466 17.9879C256.946 18.2763 256.291 18.4205 255.503 18.4205H253.007V17.1179H255.363C255.864 17.1179 256.27 17.0317 256.581 16.8594C256.893 16.6837 257.122 16.4451 257.268 16.1435C257.413 15.8419 257.486 15.4988 257.486 15.1143C257.486 14.7299 257.413 14.3885 257.268 14.0902C257.122 13.7919 256.891 13.5582 256.577 13.3892C256.265 13.2202 255.854 13.1357 255.344 13.1357H253.415V22H251.878ZM260.833 22V11.8182H267.217V13.1406H262.37V16.2429H266.884V17.5604H262.37V20.6776H267.277V22H260.833ZM269.269 22V11.8182H272.898C273.687 11.8182 274.342 11.9541 274.862 12.2259C275.386 12.4976 275.777 12.8738 276.035 13.3544C276.294 13.8317 276.423 14.3835 276.423 15.0099C276.423 15.633 276.292 16.1816 276.03 16.6555C275.772 17.1262 275.381 17.4924 274.857 17.7543C274.337 18.0161 273.682 18.147 272.893 18.147H270.144V16.8246H272.754C273.251 16.8246 273.656 16.7533 273.967 16.6108C274.282 16.4683 274.512 16.2611 274.658 15.9893C274.804 15.7176 274.877 15.3911 274.877 15.0099C274.877 14.6255 274.802 14.2924 274.653 14.0107C274.507 13.7289 274.277 13.5135 273.962 13.3643C273.651 13.2119 273.241 13.1357 272.734 13.1357H270.805V22H269.269ZM274.295 17.4062L276.811 22H275.061L272.595 17.4062H274.295ZM279.829 11.8182V22H278.292V11.8182H279.829ZM282.066 22V11.8182H288.449V13.1406H283.602V16.2429H288.116V17.5604H283.602V20.6776H288.509V22H282.066ZM298.719 11.8182V22H297.308L292.132 14.5327H292.038V22H290.501V11.8182H291.923L297.104 19.2955H297.198V11.8182H298.719ZM309.417 15.1293H307.866C307.806 14.7978 307.695 14.5062 307.533 14.2543C307.37 14.0024 307.172 13.7886 306.936 13.6129C306.701 13.4373 306.437 13.3047 306.146 13.2152C305.857 13.1257 305.551 13.081 305.226 13.081C304.639 13.081 304.114 13.2285 303.65 13.5234C303.189 13.8184 302.825 14.2509 302.556 14.821C302.291 15.3911 302.159 16.0871 302.159 16.9091C302.159 17.7377 302.291 18.437 302.556 19.0071C302.825 19.5772 303.191 20.008 303.655 20.2997C304.119 20.5914 304.641 20.7372 305.221 20.7372C305.543 20.7372 305.847 20.6941 306.136 20.608C306.427 20.5185 306.691 20.3875 306.926 20.2152C307.162 20.0429 307.36 19.8324 307.523 19.5838C307.689 19.3319 307.803 19.0436 307.866 18.7188L309.417 18.7237C309.334 19.2242 309.173 19.6849 308.935 20.1058C308.7 20.5234 308.396 20.8847 308.025 21.1896C307.657 21.4912 307.236 21.7249 306.762 21.8906C306.288 22.0563 305.771 22.1392 305.211 22.1392C304.329 22.1392 303.544 21.9304 302.855 21.5128C302.165 21.0919 301.622 20.4903 301.224 19.7081C300.829 18.9259 300.632 17.9929 300.632 16.9091C300.632 15.822 300.831 14.889 301.229 14.1101C301.627 13.3279 302.17 12.728 302.86 12.3104C303.549 11.8894 304.333 11.679 305.211 11.679C305.751 11.679 306.255 11.7569 306.722 11.9126C307.193 12.0651 307.616 12.2905 307.99 12.5888C308.365 12.8838 308.675 13.245 308.92 13.6726C309.165 14.0968 309.331 14.5824 309.417 15.1293ZM311.255 22V11.8182H317.639V13.1406H312.792V16.2429H317.306V17.5604H312.792V20.6776H317.699V22H311.255ZM325.244 14.4929C325.191 14.0223 324.972 13.6577 324.588 13.3991C324.203 13.1373 323.72 13.0064 323.136 13.0064C322.719 13.0064 322.357 13.0727 322.052 13.2053C321.747 13.3345 321.51 13.5135 321.341 13.7422C321.176 13.9676 321.093 14.2244 321.093 14.5128C321.093 14.7547 321.149 14.9635 321.262 15.1392C321.378 15.3149 321.529 15.4624 321.714 15.5817C321.903 15.6977 322.105 15.7955 322.321 15.875C322.536 15.9512 322.743 16.0142 322.942 16.0639L323.937 16.3224C324.261 16.402 324.595 16.5097 324.936 16.6456C325.277 16.7815 325.594 16.9605 325.885 17.1825C326.177 17.4046 326.412 17.6797 326.591 18.0078C326.774 18.3359 326.865 18.7287 326.865 19.1861C326.865 19.7628 326.716 20.2749 326.417 20.7223C326.122 21.1697 325.693 21.5227 325.13 21.7812C324.57 22.0398 323.892 22.169 323.096 22.169C322.334 22.169 321.675 22.0481 321.118 21.8061C320.561 21.5642 320.125 21.2211 319.81 20.777C319.495 20.3295 319.321 19.7992 319.288 19.1861H320.829C320.859 19.554 320.979 19.8606 321.187 20.1058C321.399 20.3478 321.67 20.5284 321.998 20.6477C322.329 20.7637 322.692 20.8217 323.086 20.8217C323.521 20.8217 323.907 20.7538 324.245 20.6179C324.586 20.4787 324.855 20.2865 325.05 20.0412C325.246 19.7926 325.344 19.5026 325.344 19.1712C325.344 18.8696 325.257 18.6226 325.085 18.4304C324.916 18.2382 324.686 18.0791 324.394 17.9531C324.106 17.8272 323.779 17.7161 323.415 17.62L322.211 17.2919C321.396 17.0698 320.75 16.7434 320.273 16.3125C319.799 15.8816 319.562 15.3116 319.562 14.6023C319.562 14.0156 319.721 13.5036 320.039 13.0661C320.357 12.6286 320.788 12.2888 321.331 12.0469C321.875 11.8016 322.488 11.679 323.171 11.679C323.86 11.679 324.469 11.8 324.996 12.0419C325.526 12.2839 325.943 12.617 326.248 13.0412C326.553 13.4621 326.712 13.946 326.726 14.4929H325.244Z" fill="white"/>
<path d="M402.112 22L399.288 11.8182H400.904L402.888 19.7031H402.982L405.045 11.8182H406.646L408.71 19.7081H408.804L410.783 11.8182H412.403L409.575 22H408.028L405.886 14.3736H405.806L403.663 22H402.112ZM413.804 22V11.8182H420.188V13.1406H415.34V16.2429H419.855V17.5604H415.34V20.6776H420.247V22H413.804ZM423.1 22H421.469L425.133 11.8182H426.908L430.572 22H428.941L426.063 13.6676H425.983L423.1 22ZM423.373 18.0128H428.663V19.3054H423.373V18.0128ZM430.324 13.1406V11.8182H438.203V13.1406H435.027V22H433.495V13.1406H430.324ZM439.945 22V11.8182H441.481V16.2429H446.557V11.8182H448.098V22H446.557V17.5604H441.481V22H439.945ZM450.335 22V11.8182H456.719V13.1406H451.872V16.2429H456.386V17.5604H451.872V20.6776H456.779V22H450.335ZM458.771 22V11.8182H462.4C463.189 11.8182 463.844 11.9541 464.364 12.2259C464.888 12.4976 465.279 12.8738 465.537 13.3544C465.796 13.8317 465.925 14.3835 465.925 15.0099C465.925 15.633 465.794 16.1816 465.532 16.6555C465.274 17.1262 464.883 17.4924 464.359 17.7543C463.839 18.0161 463.184 18.147 462.395 18.147H459.646V16.8246H462.256C462.753 16.8246 463.158 16.7533 463.469 16.6108C463.784 16.4683 464.014 16.2611 464.16 15.9893C464.306 15.7176 464.379 15.3911 464.379 15.0099C464.379 14.6255 464.304 14.2924 464.155 14.0107C464.009 13.7289 463.779 13.5135 463.464 13.3643C463.153 13.2119 462.743 13.1357 462.236 13.1357H460.307V22H458.771ZM463.797 17.4062L466.313 22H464.563L462.097 17.4062H463.797Z" fill="#001B03"/>
<path d="M548.119 22V11.8182H551.748C552.54 11.8182 553.196 11.9624 553.717 12.2507C554.237 12.5391 554.626 12.9335 554.885 13.4339C555.143 13.9311 555.273 14.4912 555.273 15.1143C555.273 15.7408 555.142 16.3042 554.88 16.8047C554.621 17.3018 554.23 17.6963 553.707 17.9879C553.186 18.2763 552.532 18.4205 551.743 18.4205H549.247V17.1179H551.604C552.104 17.1179 552.51 17.0317 552.822 16.8594C553.133 16.6837 553.362 16.4451 553.508 16.1435C553.654 15.8419 553.727 15.4988 553.727 15.1143C553.727 14.7299 553.654 14.3885 553.508 14.0902C553.362 13.7919 553.132 13.5582 552.817 13.3892C552.505 13.2202 552.094 13.1357 551.584 13.1357H549.655V22H548.119ZM565.918 16.9091C565.918 17.9962 565.719 18.9309 565.322 19.7131C564.924 20.492 564.379 21.0919 563.686 21.5128C562.997 21.9304 562.213 22.1392 561.334 22.1392C560.453 22.1392 559.666 21.9304 558.973 21.5128C558.283 21.0919 557.74 20.4903 557.342 19.7081C556.944 18.9259 556.746 17.9929 556.746 16.9091C556.746 15.822 556.944 14.889 557.342 14.1101C557.74 13.3279 558.283 12.728 558.973 12.3104C559.666 11.8894 560.453 11.679 561.334 11.679C562.213 11.679 562.997 11.8894 563.686 12.3104C564.379 12.728 564.924 13.3279 565.322 14.1101C565.719 14.889 565.918 15.822 565.918 16.9091ZM564.397 16.9091C564.397 16.0805 564.263 15.3828 563.994 14.8161C563.729 14.246 563.364 13.8151 562.9 13.5234C562.44 13.2285 561.918 13.081 561.334 13.081C560.748 13.081 560.224 13.2285 559.763 13.5234C559.303 13.8151 558.938 14.246 558.67 14.8161C558.404 15.3828 558.272 16.0805 558.272 16.9091C558.272 17.7377 558.404 18.437 558.67 19.0071C558.938 19.5739 559.303 20.0047 559.763 20.2997C560.224 20.5914 560.748 20.7372 561.334 20.7372C561.918 20.7372 562.44 20.5914 562.9 20.2997C563.364 20.0047 563.729 19.5739 563.994 19.0071C564.263 18.437 564.397 17.7377 564.397 16.9091ZM567.833 22V11.8182H571.463C572.255 11.8182 572.911 11.9624 573.431 12.2507C573.952 12.5391 574.341 12.9335 574.6 13.4339C574.858 13.9311 574.988 14.4912 574.988 15.1143C574.988 15.7408 574.857 16.3042 574.595 16.8047C574.336 17.3018 573.945 17.6963 573.422 17.9879C572.901 18.2763 572.247 18.4205 571.458 18.4205H568.962V17.1179H571.319C571.819 17.1179 572.225 17.0317 572.537 16.8594C572.848 16.6837 573.077 16.4451 573.223 16.1435C573.368 15.8419 573.441 15.4988 573.441 15.1143C573.441 14.7299 573.368 14.3885 573.223 14.0902C573.077 13.7919 572.846 13.5582 572.532 13.3892C572.22 13.2202 571.809 13.1357 571.299 13.1357H569.37V22H567.833ZM583.336 11.8182H584.877V18.5149C584.877 19.2275 584.71 19.8589 584.375 20.4091C584.04 20.956 583.57 21.3868 582.963 21.7017C582.357 22.0133 581.646 22.169 580.83 22.169C580.018 22.169 579.309 22.0133 578.703 21.7017C578.096 21.3868 577.625 20.956 577.291 20.4091C576.956 19.8589 576.789 19.2275 576.789 18.5149V11.8182H578.325V18.3906C578.325 18.8513 578.426 19.2607 578.628 19.6186C578.834 19.9766 579.124 20.2583 579.498 20.4638C579.873 20.666 580.317 20.767 580.83 20.767C581.347 20.767 581.793 20.666 582.168 20.4638C582.546 20.2583 582.834 19.9766 583.033 19.6186C583.235 19.2607 583.336 18.8513 583.336 18.3906V11.8182ZM587.111 22V11.8182H588.647V20.6776H593.261V22H587.111ZM596.379 22H594.748L598.412 11.8182H600.187L603.851 22H602.221L599.342 13.6676H599.263L596.379 22ZM596.653 18.0128H601.942V19.3054H596.653V18.0128ZM605.322 22V11.8182H608.951C609.74 11.8182 610.394 11.9541 610.915 12.2259C611.438 12.4976 611.83 12.8738 612.088 13.3544C612.347 13.8317 612.476 14.3835 612.476 15.0099C612.476 15.633 612.345 16.1816 612.083 16.6555C611.825 17.1262 611.433 17.4924 610.91 17.7543C610.389 18.0161 609.735 18.147 608.946 18.147H606.197V16.8246H608.807C609.304 16.8246 609.708 16.7533 610.02 16.6108C610.335 16.4683 610.565 16.2611 610.711 15.9893C610.857 15.7176 610.93 15.3911 610.93 15.0099C610.93 14.6255 610.855 14.2924 610.706 14.0107C610.56 13.7289 610.33 13.5135 610.015 13.3643C609.703 13.2119 609.294 13.1357 608.787 13.1357H606.858V22H605.322ZM610.348 17.4062L612.864 22H611.114L608.648 17.4062H610.348ZM615.881 11.8182V22H614.345V11.8182H615.881ZM617.616 13.1406V11.8182H625.496V13.1406H622.32V22H620.788V13.1406H617.616ZM626.452 11.8182H628.197L630.857 16.4467H630.966L633.626 11.8182H635.371L631.677 18.0028V22H630.146V18.0028L626.452 11.8182Z" fill="#001B03"/>
<rect opacity="0.05" y="94" width="235" height="394" fill="#D93E69"/>
<path d="M9.07599 503.818H10.6072V511.037C10.6072 511.69 10.478 512.248 10.2195 512.712C9.96425 513.176 9.60464 513.531 9.14062 513.776C8.67661 514.018 8.13305 514.139 7.50994 514.139C6.93655 514.139 6.42116 514.035 5.96378 513.826C5.50971 513.617 5.15009 513.314 4.88494 512.916C4.62311 512.515 4.49219 512.028 4.49219 511.455H6.01847C6.01847 511.736 6.0831 511.98 6.21236 512.185C6.34493 512.391 6.52557 512.552 6.75426 512.668C6.98627 512.78 7.25142 512.837 7.54972 512.837C7.87453 512.837 8.14962 512.769 8.375 512.633C8.60369 512.494 8.7777 512.29 8.89702 512.021C9.01634 511.753 9.07599 511.425 9.07599 511.037V503.818ZM14.9462 514.169C14.4623 514.169 14.0248 514.08 13.6337 513.901C13.2426 513.718 12.9327 513.455 12.704 513.11C12.4786 512.765 12.3659 512.343 12.3659 511.842C12.3659 511.411 12.4488 511.057 12.6145 510.778C12.7802 510.5 13.004 510.28 13.2857 510.117C13.5674 509.955 13.8823 509.832 14.2303 509.749C14.5783 509.666 14.9329 509.603 15.2942 509.56C15.7516 509.507 16.1228 509.464 16.4078 509.431C16.6929 509.395 16.9 509.337 17.0293 509.257C17.1586 509.178 17.2232 509.048 17.2232 508.869V508.835C17.2232 508.4 17.1006 508.064 16.8553 507.825C16.6133 507.587 16.2521 507.467 15.7715 507.467C15.271 507.467 14.8766 507.578 14.5882 507.8C14.3032 508.019 14.106 508.263 13.9966 508.531L12.5996 508.213C12.7653 507.749 13.0073 507.375 13.3255 507.089C13.647 506.801 14.0165 506.592 14.4341 506.463C14.8517 506.33 15.2909 506.264 15.7516 506.264C16.0565 506.264 16.3797 506.301 16.7211 506.374C17.0658 506.443 17.3873 506.572 17.6855 506.761C17.9872 506.95 18.2341 507.22 18.4263 507.572C18.6185 507.92 18.7147 508.372 18.7147 508.929V514H17.263V512.956H17.2033C17.1072 513.148 16.963 513.337 16.7708 513.523C16.5785 513.708 16.3316 513.862 16.03 513.985C15.7284 514.108 15.3671 514.169 14.9462 514.169ZM15.2694 512.976C15.6803 512.976 16.0317 512.895 16.3233 512.732C16.6183 512.57 16.842 512.358 16.9945 512.096C17.1503 511.831 17.2282 511.547 17.2282 511.246V510.261C17.1751 510.314 17.0724 510.364 16.9199 510.411C16.7708 510.454 16.6001 510.492 16.4078 510.525C16.2156 510.555 16.0284 510.583 15.8461 510.609C15.6638 510.633 15.5113 510.652 15.3887 510.669C15.1003 510.705 14.8368 510.767 14.5982 510.853C14.3629 510.939 14.1739 511.063 14.0314 511.226C13.8922 511.385 13.8226 511.597 13.8226 511.862C13.8226 512.23 13.9585 512.509 14.2303 512.697C14.5021 512.883 14.8484 512.976 15.2694 512.976ZM22.1811 509.466V514H20.6946V506.364H22.1214V507.607H22.2159C22.3916 507.202 22.6667 506.877 23.0412 506.632C23.419 506.387 23.8946 506.264 24.468 506.264C24.9884 506.264 25.4441 506.374 25.8352 506.592C26.2263 506.808 26.5296 507.129 26.745 507.557C26.9605 507.984 27.0682 508.513 27.0682 509.143V514H25.5817V509.322C25.5817 508.768 25.4375 508.336 25.1491 508.024C24.8608 507.709 24.4647 507.552 23.9609 507.552C23.6162 507.552 23.3097 507.626 23.0412 507.776C22.776 507.925 22.5656 508.143 22.4098 508.432C22.2573 508.717 22.1811 509.062 22.1811 509.466Z" fill="black"/>
<path d="M80.1186 514V503.818H86.4325V505.141H81.6548V508.243H85.9801V509.56H81.6548V514H80.1186ZM90.9331 514.154C90.1807 514.154 89.5327 513.993 88.9892 513.672C88.4489 513.347 88.0313 512.891 87.7363 512.305C87.4447 511.715 87.2988 511.024 87.2988 510.232C87.2988 509.449 87.4447 508.76 87.7363 508.163C88.0313 507.567 88.4423 507.101 88.9693 506.766C89.4996 506.432 90.1194 506.264 90.8287 506.264C91.2595 506.264 91.6771 506.335 92.0815 506.478C92.4859 506.621 92.8488 506.844 93.1703 507.149C93.4918 507.454 93.7453 507.85 93.9309 508.337C94.1165 508.821 94.2093 509.41 94.2093 510.102V510.629H88.139V509.516H92.7527C92.7527 509.125 92.6731 508.778 92.514 508.477C92.3549 508.172 92.1312 507.931 91.8429 507.756C91.5578 507.58 91.2231 507.492 90.8386 507.492C90.421 507.492 90.0564 507.595 89.7449 507.8C89.4366 508.003 89.198 508.268 89.0289 508.596C88.8632 508.921 88.7804 509.274 88.7804 509.655V510.525C88.7804 511.035 88.8699 511.469 89.0488 511.827C89.2311 512.185 89.4847 512.459 89.8095 512.648C90.1343 512.833 90.5138 512.926 90.948 512.926C91.2297 512.926 91.4866 512.886 91.7186 512.807C91.9506 512.724 92.1511 512.601 92.3201 512.439C92.4892 512.277 92.6184 512.076 92.7079 511.837L94.1149 512.091C94.0022 512.505 93.8 512.868 93.5083 513.18C93.22 513.488 92.8571 513.728 92.4196 513.901C91.9854 514.07 91.4899 514.154 90.9331 514.154ZM95.978 514V503.818H97.4645V507.602H97.554C97.6402 507.442 97.7644 507.259 97.9268 507.05C98.0893 506.841 98.3146 506.659 98.603 506.503C98.8913 506.344 99.2725 506.264 99.7464 506.264C100.363 506.264 100.913 506.42 101.397 506.732C101.881 507.043 102.26 507.492 102.536 508.079C102.814 508.665 102.953 509.371 102.953 510.197C102.953 511.022 102.816 511.73 102.54 512.32C102.265 512.906 101.888 513.359 101.407 513.677C100.926 513.992 100.378 514.149 99.7614 514.149C99.2973 514.149 98.9179 514.071 98.6229 513.915C98.3312 513.76 98.1025 513.577 97.9368 513.369C97.7711 513.16 97.6435 512.974 97.554 512.812H97.4297V514H95.978ZM97.4347 510.182C97.4347 510.719 97.5125 511.189 97.6683 511.594C97.8241 511.998 98.0495 512.315 98.3445 512.543C98.6394 512.769 99.0007 512.881 99.4283 512.881C99.8724 512.881 100.244 512.764 100.542 512.528C100.84 512.29 101.066 511.967 101.218 511.559C101.374 511.151 101.452 510.692 101.452 510.182C101.452 509.678 101.375 509.226 101.223 508.825C101.074 508.424 100.848 508.107 100.547 507.875C100.249 507.643 99.8757 507.527 99.4283 507.527C98.9974 507.527 98.6328 507.638 98.3345 507.86C98.0395 508.082 97.8158 508.392 97.6634 508.79C97.5109 509.187 97.4347 509.652 97.4347 510.182Z" fill="black"/>
<path d="M155.119 503.818H156.983L160.224 511.733H160.344L163.585 503.818H165.45V514H163.988V506.632H163.893L160.891 513.985H159.678L156.675 506.627H156.58V514H155.119V503.818ZM169.786 514.169C169.302 514.169 168.865 514.08 168.474 513.901C168.082 513.718 167.773 513.455 167.544 513.11C167.318 512.765 167.206 512.343 167.206 511.842C167.206 511.411 167.289 511.057 167.454 510.778C167.62 510.5 167.844 510.28 168.126 510.117C168.407 509.955 168.722 509.832 169.07 509.749C169.418 509.666 169.773 509.603 170.134 509.56C170.591 509.507 170.963 509.464 171.248 509.431C171.533 509.395 171.74 509.337 171.869 509.257C171.998 509.178 172.063 509.048 172.063 508.869V508.835C172.063 508.4 171.94 508.064 171.695 507.825C171.453 507.587 171.092 507.467 170.611 507.467C170.111 507.467 169.716 507.578 169.428 507.8C169.143 508.019 168.946 508.263 168.836 508.531L167.439 508.213C167.605 507.749 167.847 507.375 168.165 507.089C168.487 506.801 168.856 506.592 169.274 506.463C169.692 506.33 170.131 506.264 170.591 506.264C170.896 506.264 171.22 506.301 171.561 506.374C171.906 506.443 172.227 506.572 172.525 506.761C172.827 506.95 173.074 507.22 173.266 507.572C173.458 507.92 173.555 508.372 173.555 508.929V514H172.103V512.956H172.043C171.947 513.148 171.803 513.337 171.611 513.523C171.418 513.708 171.171 513.862 170.87 513.985C170.568 514.108 170.207 514.169 169.786 514.169ZM170.109 512.976C170.52 512.976 170.872 512.895 171.163 512.732C171.458 512.57 171.682 512.358 171.834 512.096C171.99 511.831 172.068 511.547 172.068 511.246V510.261C172.015 510.314 171.912 510.364 171.76 510.411C171.611 510.454 171.44 510.492 171.248 510.525C171.055 510.555 170.868 510.583 170.686 510.609C170.504 510.633 170.351 510.652 170.229 510.669C169.94 510.705 169.677 510.767 169.438 510.853C169.203 510.939 169.014 511.063 168.871 511.226C168.732 511.385 168.662 511.597 168.662 511.862C168.662 512.23 168.798 512.509 169.07 512.697C169.342 512.883 169.688 512.976 170.109 512.976ZM175.534 514V506.364H176.971V507.577H177.051C177.19 507.166 177.435 506.843 177.787 506.607C178.141 506.369 178.542 506.249 178.99 506.249C179.083 506.249 179.192 506.253 179.318 506.259C179.447 506.266 179.548 506.274 179.621 506.284V507.706C179.561 507.689 179.455 507.671 179.303 507.651C179.15 507.628 178.998 507.616 178.846 507.616C178.494 507.616 178.181 507.691 177.906 507.84C177.634 507.986 177.419 508.19 177.26 508.452C177.1 508.71 177.021 509.005 177.021 509.337V514H175.534Z" fill="black"/>
<path d="M231.979 514H230.348L234.012 503.818H235.787L239.451 514H237.82L234.942 505.668H234.862L231.979 514ZM232.252 510.013H237.542V511.305H232.252V510.013ZM240.802 516.864V506.364H242.254V507.602H242.378C242.464 507.442 242.588 507.259 242.751 507.05C242.913 506.841 243.139 506.659 243.427 506.503C243.715 506.344 244.097 506.264 244.57 506.264C245.187 506.264 245.737 506.42 246.221 506.732C246.705 507.043 247.084 507.492 247.36 508.079C247.638 508.665 247.777 509.371 247.777 510.197C247.777 511.022 247.64 511.73 247.365 512.32C247.089 512.906 246.712 513.359 246.231 513.677C245.75 513.992 245.202 514.149 244.585 514.149C244.121 514.149 243.742 514.071 243.447 513.915C243.155 513.76 242.927 513.577 242.761 513.369C242.595 513.16 242.468 512.974 242.378 512.812H242.289V516.864H240.802ZM242.259 510.182C242.259 510.719 242.337 511.189 242.492 511.594C242.648 511.998 242.874 512.315 243.169 512.543C243.463 512.769 243.825 512.881 244.252 512.881C244.696 512.881 245.068 512.764 245.366 512.528C245.664 512.29 245.89 511.967 246.042 511.559C246.198 511.151 246.276 510.692 246.276 510.182C246.276 509.678 246.2 509.226 246.047 508.825C245.898 508.424 245.673 508.107 245.371 507.875C245.073 507.643 244.7 507.527 244.252 507.527C243.821 507.527 243.457 507.638 243.159 507.86C242.864 508.082 242.64 508.392 242.487 508.79C242.335 509.187 242.259 509.652 242.259 510.182ZM249.443 514V506.364H250.879V507.577H250.959C251.098 507.166 251.343 506.843 251.695 506.607C252.049 506.369 252.45 506.249 252.898 506.249C252.991 506.249 253.1 506.253 253.226 506.259C253.355 506.266 253.456 506.274 253.529 506.284V507.706C253.47 507.689 253.364 507.671 253.211 507.651C253.059 507.628 252.906 507.616 252.754 507.616C252.402 507.616 252.089 507.691 251.814 507.84C251.542 507.986 251.327 508.19 251.168 508.452C251.009 508.71 250.929 509.005 250.929 509.337V514H249.443Z" fill="black"/>
<path d="M305.119 503.818H306.983L310.224 511.733H310.344L313.585 503.818H315.45V514H313.988V506.632H313.893L310.891 513.985H309.678L306.675 506.627H306.58V514H305.119V503.818ZM319.786 514.169C319.302 514.169 318.865 514.08 318.474 513.901C318.082 513.718 317.773 513.455 317.544 513.11C317.318 512.765 317.206 512.343 317.206 511.842C317.206 511.411 317.289 511.057 317.454 510.778C317.62 510.5 317.844 510.28 318.126 510.117C318.407 509.955 318.722 509.832 319.07 509.749C319.418 509.666 319.773 509.603 320.134 509.56C320.591 509.507 320.963 509.464 321.248 509.431C321.533 509.395 321.74 509.337 321.869 509.257C321.998 509.178 322.063 509.048 322.063 508.869V508.835C322.063 508.4 321.94 508.064 321.695 507.825C321.453 507.587 321.092 507.467 320.611 507.467C320.111 507.467 319.716 507.578 319.428 507.8C319.143 508.019 318.946 508.263 318.836 508.531L317.439 508.213C317.605 507.749 317.847 507.375 318.165 507.089C318.487 506.801 318.856 506.592 319.274 506.463C319.692 506.33 320.131 506.264 320.591 506.264C320.896 506.264 321.22 506.301 321.561 506.374C321.906 506.443 322.227 506.572 322.525 506.761C322.827 506.95 323.074 507.22 323.266 507.572C323.458 507.92 323.555 508.372 323.555 508.929V514H322.103V512.956H322.043C321.947 513.148 321.803 513.337 321.611 513.523C321.418 513.708 321.171 513.862 320.87 513.985C320.568 514.108 320.207 514.169 319.786 514.169ZM320.109 512.976C320.52 512.976 320.872 512.895 321.163 512.732C321.458 512.57 321.682 512.358 321.834 512.096C321.99 511.831 322.068 511.547 322.068 511.246V510.261C322.015 510.314 321.912 510.364 321.76 510.411C321.611 510.454 321.44 510.492 321.248 510.525C321.055 510.555 320.868 510.583 320.686 510.609C320.504 510.633 320.351 510.652 320.229 510.669C319.94 510.705 319.677 510.767 319.438 510.853C319.203 510.939 319.014 511.063 318.871 511.226C318.732 511.385 318.662 511.597 318.662 511.862C318.662 512.23 318.798 512.509 319.07 512.697C319.342 512.883 319.688 512.976 320.109 512.976ZM326.201 516.844C325.979 516.844 325.776 516.826 325.594 516.789C325.412 516.756 325.276 516.719 325.186 516.68L325.544 515.462C325.952 515.574 326.293 515.583 326.569 515.487C326.847 515.394 327.081 515.1 327.27 514.607L327.453 514.099L324.659 506.364H326.25L328.184 512.29H328.264L330.198 506.364L331.804 506.379L328.647 515.019C328.501 515.414 328.315 515.747 328.09 516.018C327.864 516.29 327.596 516.496 327.284 516.635C326.973 516.774 326.612 516.844 326.201 516.844Z" fill="black"/>
<path d="M388.076 503.818H389.607V511.037C389.607 511.69 389.478 512.248 389.219 512.712C388.964 513.176 388.605 513.531 388.141 513.776C387.677 514.018 387.133 514.139 386.51 514.139C385.937 514.139 385.421 514.035 384.964 513.826C384.51 513.617 384.15 513.314 383.885 512.916C383.623 512.515 383.492 512.028 383.492 511.455H385.018C385.018 511.736 385.083 511.98 385.212 512.185C385.345 512.391 385.526 512.552 385.754 512.668C385.986 512.78 386.251 512.837 386.55 512.837C386.875 512.837 387.15 512.769 387.375 512.633C387.604 512.494 387.778 512.29 387.897 512.021C388.016 511.753 388.076 511.425 388.076 511.037V503.818ZM396.561 510.833V506.364H398.053V514H396.591V512.678H396.512C396.336 513.085 396.054 513.425 395.666 513.697C395.282 513.965 394.803 514.099 394.23 514.099C393.739 514.099 393.305 513.992 392.927 513.776C392.552 513.558 392.258 513.234 392.042 512.807C391.83 512.379 391.724 511.851 391.724 511.221V506.364H393.21V511.042C393.21 511.562 393.355 511.977 393.643 512.285C393.931 512.593 394.306 512.747 394.767 512.747C395.045 512.747 395.322 512.678 395.597 512.538C395.875 512.399 396.106 512.189 396.288 511.907C396.473 511.625 396.565 511.267 396.561 510.833ZM401.537 509.466V514H400.05V506.364H401.477V507.607H401.571C401.747 507.202 402.022 506.877 402.397 506.632C402.775 506.387 403.25 506.264 403.824 506.264C404.344 506.264 404.8 506.374 405.191 506.592C405.582 506.808 405.885 507.129 406.1 507.557C406.316 507.984 406.424 508.513 406.424 509.143V514H404.937V509.322C404.937 508.768 404.793 508.336 404.505 508.024C404.216 507.709 403.82 507.552 403.316 507.552C402.972 507.552 402.665 507.626 402.397 507.776C402.132 507.925 401.921 508.143 401.765 508.432C401.613 508.717 401.537 509.062 401.537 509.466Z" fill="black"/>
<path d="M463.076 503.818H464.607V511.037C464.607 511.69 464.478 512.248 464.219 512.712C463.964 513.176 463.605 513.531 463.141 513.776C462.677 514.018 462.133 514.139 461.51 514.139C460.937 514.139 460.421 514.035 459.964 513.826C459.51 513.617 459.15 513.314 458.885 512.916C458.623 512.515 458.492 512.028 458.492 511.455H460.018C460.018 511.736 460.083 511.98 460.212 512.185C460.345 512.391 460.526 512.552 460.754 512.668C460.986 512.78 461.251 512.837 461.55 512.837C461.875 512.837 462.15 512.769 462.375 512.633C462.604 512.494 462.778 512.29 462.897 512.021C463.016 511.753 463.076 511.425 463.076 511.037V503.818ZM471.561 510.833V506.364H473.053V514H471.591V512.678H471.512C471.336 513.085 471.054 513.425 470.666 513.697C470.282 513.965 469.803 514.099 469.23 514.099C468.739 514.099 468.305 513.992 467.927 513.776C467.552 513.558 467.258 513.234 467.042 512.807C466.83 512.379 466.724 511.851 466.724 511.221V506.364H468.21V511.042C468.21 511.562 468.355 511.977 468.643 512.285C468.931 512.593 469.306 512.747 469.767 512.747C470.045 512.747 470.322 512.678 470.597 512.538C470.875 512.399 471.106 512.189 471.288 511.907C471.473 511.625 471.565 511.267 471.561 510.833ZM476.537 503.818V514H475.05V503.818H476.537Z" fill="black"/>
<path d="M611.672 506.493C611.619 506.022 611.4 505.658 611.016 505.399C610.631 505.137 610.147 505.006 609.564 505.006C609.146 505.006 608.785 505.073 608.48 505.205C608.175 505.335 607.938 505.513 607.769 505.742C607.603 505.968 607.521 506.224 607.521 506.513C607.521 506.755 607.577 506.964 607.69 507.139C607.806 507.315 607.956 507.462 608.142 507.582C608.331 507.698 608.533 507.795 608.749 507.875C608.964 507.951 609.171 508.014 609.37 508.064L610.364 508.322C610.689 508.402 611.022 508.51 611.364 508.646C611.705 508.781 612.022 508.96 612.313 509.183C612.605 509.405 612.84 509.68 613.019 510.008C613.201 510.336 613.293 510.729 613.293 511.186C613.293 511.763 613.143 512.275 612.845 512.722C612.55 513.17 612.121 513.523 611.558 513.781C610.997 514.04 610.32 514.169 609.524 514.169C608.762 514.169 608.102 514.048 607.545 513.806C606.989 513.564 606.553 513.221 606.238 512.777C605.923 512.33 605.749 511.799 605.716 511.186H607.257C607.287 511.554 607.406 511.861 607.615 512.106C607.827 512.348 608.097 512.528 608.425 512.648C608.757 512.764 609.12 512.822 609.514 512.822C609.948 512.822 610.335 512.754 610.673 512.618C611.014 512.479 611.282 512.286 611.478 512.041C611.674 511.793 611.771 511.503 611.771 511.171C611.771 510.87 611.685 510.623 611.513 510.43C611.344 510.238 611.113 510.079 610.822 509.953C610.533 509.827 610.207 509.716 609.842 509.62L608.639 509.292C607.824 509.07 607.178 508.743 606.7 508.312C606.226 507.882 605.989 507.312 605.989 506.602C605.989 506.016 606.148 505.504 606.467 505.066C606.785 504.629 607.216 504.289 607.759 504.047C608.303 503.802 608.916 503.679 609.599 503.679C610.288 503.679 610.896 503.8 611.423 504.042C611.954 504.284 612.371 504.617 612.676 505.041C612.981 505.462 613.14 505.946 613.153 506.493H611.672ZM618.3 514.154C617.548 514.154 616.9 513.993 616.356 513.672C615.816 513.347 615.398 512.891 615.104 512.305C614.812 511.715 614.666 511.024 614.666 510.232C614.666 509.449 614.812 508.76 615.104 508.163C615.398 507.567 615.809 507.101 616.336 506.766C616.867 506.432 617.487 506.264 618.196 506.264C618.627 506.264 619.044 506.335 619.449 506.478C619.853 506.621 620.216 506.844 620.537 507.149C620.859 507.454 621.113 507.85 621.298 508.337C621.484 508.821 621.577 509.41 621.577 510.102V510.629H615.506V509.516H620.12C620.12 509.125 620.04 508.778 619.881 508.477C619.722 508.172 619.498 507.931 619.21 507.756C618.925 507.58 618.59 507.492 618.206 507.492C617.788 507.492 617.424 507.595 617.112 507.8C616.804 508.003 616.565 508.268 616.396 508.596C616.23 508.921 616.148 509.274 616.148 509.655V510.525C616.148 511.035 616.237 511.469 616.416 511.827C616.598 512.185 616.852 512.459 617.177 512.648C617.501 512.833 617.881 512.926 618.315 512.926C618.597 512.926 618.854 512.886 619.086 512.807C619.318 512.724 619.518 512.601 619.687 512.439C619.856 512.277 619.986 512.076 620.075 511.837L621.482 512.091C621.369 512.505 621.167 512.868 620.876 513.18C620.587 513.488 620.224 513.728 619.787 513.901C619.353 514.07 618.857 514.154 618.3 514.154ZM623.226 516.864V506.364H624.678V507.602H624.802C624.888 507.442 625.012 507.259 625.175 507.05C625.337 506.841 625.563 506.659 625.851 506.503C626.139 506.344 626.52 506.264 626.994 506.264C627.611 506.264 628.161 506.42 628.645 506.732C629.129 507.043 629.508 507.492 629.783 508.079C630.062 508.665 630.201 509.371 630.201 510.197C630.201 511.022 630.063 511.73 629.788 512.32C629.513 512.906 629.135 513.359 628.655 513.677C628.174 513.992 627.626 514.149 627.009 514.149C626.545 514.149 626.166 514.071 625.871 513.915C625.579 513.76 625.35 513.577 625.185 513.369C625.019 513.16 624.891 512.974 624.802 512.812H624.712V516.864H623.226ZM624.683 510.182C624.683 510.719 624.76 511.189 624.916 511.594C625.072 511.998 625.297 512.315 625.592 512.543C625.887 512.769 626.249 512.881 626.676 512.881C627.12 512.881 627.491 512.764 627.79 512.528C628.088 512.29 628.313 511.967 628.466 511.559C628.622 511.151 628.7 510.692 628.7 510.182C628.7 509.678 628.623 509.226 628.471 508.825C628.322 508.424 628.096 508.107 627.795 507.875C627.496 507.643 627.124 507.527 626.676 507.527C626.245 507.527 625.881 507.638 625.582 507.86C625.287 508.082 625.064 508.392 624.911 508.79C624.759 509.187 624.683 509.652 624.683 510.182Z" fill="black"/>
<path d="M690.963 508.909C690.963 509.996 690.764 510.931 690.366 511.713C689.969 512.492 689.424 513.092 688.731 513.513C688.041 513.93 687.258 514.139 686.379 514.139C685.498 514.139 684.71 513.93 684.018 513.513C683.328 513.092 682.785 512.49 682.387 511.708C681.989 510.926 681.79 509.993 681.79 508.909C681.79 507.822 681.989 506.889 682.387 506.11C682.785 505.328 683.328 504.728 684.018 504.31C684.71 503.889 685.498 503.679 686.379 503.679C687.258 503.679 688.041 503.889 688.731 504.31C689.424 504.728 689.969 505.328 690.366 506.11C690.764 506.889 690.963 507.822 690.963 508.909ZM689.442 508.909C689.442 508.08 689.308 507.383 689.039 506.816C688.774 506.246 688.409 505.815 687.945 505.523C687.485 505.228 686.963 505.081 686.379 505.081C685.793 505.081 685.269 505.228 684.808 505.523C684.348 505.815 683.983 506.246 683.714 506.816C683.449 507.383 683.317 508.08 683.317 508.909C683.317 509.738 683.449 510.437 683.714 511.007C683.983 511.574 684.348 512.005 684.808 512.3C685.269 512.591 685.793 512.737 686.379 512.737C686.963 512.737 687.485 512.591 687.945 512.3C688.409 512.005 688.774 511.574 689.039 511.007C689.308 510.437 689.442 509.738 689.442 508.909ZM695.976 514.154C695.237 514.154 694.6 513.987 694.067 513.652C693.536 513.314 693.129 512.848 692.844 512.255C692.559 511.662 692.416 510.982 692.416 510.217C692.416 509.441 692.562 508.757 692.854 508.163C693.145 507.567 693.556 507.101 694.086 506.766C694.617 506.432 695.242 506.264 695.961 506.264C696.541 506.264 697.058 506.372 697.512 506.587C697.966 506.799 698.332 507.098 698.611 507.482C698.892 507.867 699.06 508.316 699.113 508.83H697.666C697.586 508.472 697.404 508.163 697.119 507.905C696.837 507.646 696.46 507.517 695.986 507.517C695.571 507.517 695.208 507.626 694.897 507.845C694.589 508.061 694.348 508.369 694.176 508.77C694.004 509.168 693.917 509.638 693.917 510.182C693.917 510.739 694.002 511.219 694.171 511.624C694.34 512.028 694.579 512.341 694.887 512.563C695.198 512.785 695.565 512.896 695.986 512.896C696.267 512.896 696.523 512.845 696.751 512.742C696.983 512.636 697.177 512.485 697.333 512.29C697.492 512.094 697.603 511.859 697.666 511.584H699.113C699.06 512.078 698.899 512.518 698.631 512.906C698.362 513.294 698.002 513.599 697.552 513.821C697.104 514.043 696.579 514.154 695.976 514.154ZM704.267 506.364V507.557H700.096V506.364H704.267ZM701.214 504.534H702.701V511.758C702.701 512.046 702.744 512.263 702.83 512.409C702.916 512.552 703.027 512.649 703.163 512.702C703.303 512.752 703.453 512.777 703.616 512.777C703.735 512.777 703.839 512.769 703.929 512.752C704.018 512.736 704.088 512.722 704.138 512.712L704.406 513.94C704.32 513.973 704.197 514.007 704.038 514.04C703.879 514.076 703.68 514.096 703.442 514.099C703.051 514.106 702.686 514.036 702.348 513.891C702.01 513.745 701.737 513.519 701.528 513.214C701.319 512.91 701.214 512.527 701.214 512.066V504.534Z" fill="black"/>
<path d="M764.963 508.909C764.963 509.996 764.764 510.931 764.366 511.713C763.969 512.492 763.424 513.092 762.731 513.513C762.041 513.93 761.258 514.139 760.379 514.139C759.498 514.139 758.71 513.93 758.018 513.513C757.328 513.092 756.785 512.49 756.387 511.708C755.989 510.926 755.79 509.993 755.79 508.909C755.79 507.822 755.989 506.889 756.387 506.11C756.785 505.328 757.328 504.728 758.018 504.31C758.71 503.889 759.498 503.679 760.379 503.679C761.258 503.679 762.041 503.889 762.731 504.31C763.424 504.728 763.969 505.328 764.366 506.11C764.764 506.889 764.963 507.822 764.963 508.909ZM763.442 508.909C763.442 508.08 763.308 507.383 763.039 506.816C762.774 506.246 762.409 505.815 761.945 505.523C761.485 505.228 760.963 505.081 760.379 505.081C759.793 505.081 759.269 505.228 758.808 505.523C758.348 505.815 757.983 506.246 757.714 506.816C757.449 507.383 757.317 508.08 757.317 508.909C757.317 509.738 757.449 510.437 757.714 511.007C757.983 511.574 758.348 512.005 758.808 512.3C759.269 512.591 759.793 512.737 760.379 512.737C760.963 512.737 761.485 512.591 761.945 512.3C762.409 512.005 762.774 511.574 763.039 511.007C763.308 510.437 763.442 509.738 763.442 508.909ZM769.976 514.154C769.237 514.154 768.6 513.987 768.067 513.652C767.536 513.314 767.129 512.848 766.844 512.255C766.559 511.662 766.416 510.982 766.416 510.217C766.416 509.441 766.562 508.757 766.854 508.163C767.145 507.567 767.556 507.101 768.086 506.766C768.617 506.432 769.242 506.264 769.961 506.264C770.541 506.264 771.058 506.372 771.512 506.587C771.966 506.799 772.332 507.098 772.611 507.482C772.892 507.867 773.06 508.316 773.113 508.83H771.666C771.586 508.472 771.404 508.163 771.119 507.905C770.837 507.646 770.46 507.517 769.986 507.517C769.571 507.517 769.208 507.626 768.897 507.845C768.589 508.061 768.348 508.369 768.176 508.77C768.004 509.168 767.917 509.638 767.917 510.182C767.917 510.739 768.002 511.219 768.171 511.624C768.34 512.028 768.579 512.341 768.887 512.563C769.198 512.785 769.565 512.896 769.986 512.896C770.267 512.896 770.523 512.845 770.751 512.742C770.983 512.636 771.177 512.485 771.333 512.29C771.492 512.094 771.603 511.859 771.666 511.584H773.113C773.06 512.078 772.899 512.518 772.631 512.906C772.362 513.294 772.002 513.599 771.552 513.821C771.104 514.043 770.579 514.154 769.976 514.154ZM778.267 506.364V507.557H774.096V506.364H778.267ZM775.214 504.534H776.701V511.758C776.701 512.046 776.744 512.263 776.83 512.409C776.916 512.552 777.027 512.649 777.163 512.702C777.303 512.752 777.453 512.777 777.616 512.777C777.735 512.777 777.839 512.769 777.929 512.752C778.018 512.736 778.088 512.722 778.138 512.712L778.406 513.94C778.32 513.973 778.197 514.007 778.038 514.04C777.879 514.076 777.68 514.096 777.442 514.099C777.051 514.106 776.686 514.036 776.348 513.891C776.01 513.745 775.737 513.519 775.528 513.214C775.319 512.91 775.214 512.527 775.214 512.066V504.534Z" fill="black"/>
<path d="M838.337 503.818V514H836.925L831.749 506.533H831.655V514H830.119V503.818H831.54L836.721 511.295H836.815V503.818H838.337ZM843.675 514.154C842.959 514.154 842.334 513.99 841.801 513.662C841.267 513.334 840.853 512.875 840.558 512.285C840.263 511.695 840.115 511.005 840.115 510.217C840.115 509.424 840.263 508.732 840.558 508.138C840.853 507.545 841.267 507.085 841.801 506.756C842.334 506.428 842.959 506.264 843.675 506.264C844.391 506.264 845.016 506.428 845.549 506.756C846.083 507.085 846.497 507.545 846.792 508.138C847.087 508.732 847.235 509.424 847.235 510.217C847.235 511.005 847.087 511.695 846.792 512.285C846.497 512.875 846.083 513.334 845.549 513.662C845.016 513.99 844.391 514.154 843.675 514.154ZM843.68 512.906C844.144 512.906 844.528 512.784 844.833 512.538C845.138 512.293 845.364 511.967 845.509 511.559C845.659 511.151 845.733 510.702 845.733 510.212C845.733 509.724 845.659 509.277 845.509 508.869C845.364 508.458 845.138 508.129 844.833 507.88C844.528 507.631 844.144 507.507 843.68 507.507C843.213 507.507 842.825 507.631 842.517 507.88C842.212 508.129 841.985 508.458 841.835 508.869C841.69 509.277 841.617 509.724 841.617 510.212C841.617 510.702 841.69 511.151 841.835 511.559C841.985 511.967 842.212 512.293 842.517 512.538C842.825 512.784 843.213 512.906 843.68 512.906ZM855.153 506.364L852.384 514H850.793L848.019 506.364H849.615L851.549 512.24H851.628L853.557 506.364H855.153Z" fill="black"/>
<path d="M910.415 514H907.119V503.818H910.519C911.517 503.818 912.374 504.022 913.089 504.43C913.805 504.834 914.354 505.416 914.735 506.175C915.12 506.93 915.312 507.837 915.312 508.894C915.312 509.955 915.118 510.866 914.73 511.629C914.346 512.391 913.789 512.978 913.06 513.388C912.33 513.796 911.449 514 910.415 514ZM908.655 512.658H910.33C911.106 512.658 911.75 512.512 912.264 512.22C912.778 511.925 913.162 511.499 913.418 510.942C913.673 510.382 913.8 509.7 913.8 508.894C913.8 508.095 913.673 507.418 913.418 506.861C913.166 506.304 912.79 505.881 912.289 505.593C911.789 505.305 911.167 505.161 910.425 505.161H908.655V512.658ZM920.394 514.154C919.642 514.154 918.994 513.993 918.45 513.672C917.91 513.347 917.492 512.891 917.197 512.305C916.906 511.715 916.76 511.024 916.76 510.232C916.76 509.449 916.906 508.76 917.197 508.163C917.492 507.567 917.903 507.101 918.43 506.766C918.961 506.432 919.58 506.264 920.29 506.264C920.72 506.264 921.138 506.335 921.542 506.478C921.947 506.621 922.31 506.844 922.631 507.149C922.953 507.454 923.206 507.85 923.392 508.337C923.577 508.821 923.67 509.41 923.67 510.102V510.629H917.6V509.516H922.214C922.214 509.125 922.134 508.778 921.975 508.477C921.816 508.172 921.592 507.931 921.304 507.756C921.019 507.58 920.684 507.492 920.3 507.492C919.882 507.492 919.517 507.595 919.206 507.8C918.898 508.003 918.659 508.268 918.49 508.596C918.324 508.921 918.241 509.274 918.241 509.655V510.525C918.241 511.035 918.331 511.469 918.51 511.827C918.692 512.185 918.946 512.459 919.27 512.648C919.595 512.833 919.975 512.926 920.409 512.926C920.691 512.926 920.948 512.886 921.18 512.807C921.412 512.724 921.612 512.601 921.781 512.439C921.95 512.277 922.079 512.076 922.169 511.837L923.576 512.091C923.463 512.505 923.261 512.868 922.969 513.18C922.681 513.488 922.318 513.728 921.881 513.901C921.446 514.07 920.951 514.154 920.394 514.154ZM928.536 514.154C927.797 514.154 927.161 513.987 926.627 513.652C926.097 513.314 925.689 512.848 925.404 512.255C925.119 511.662 924.977 510.982 924.977 510.217C924.977 509.441 925.122 508.757 925.414 508.163C925.706 507.567 926.117 507.101 926.647 506.766C927.177 506.432 927.802 506.264 928.521 506.264C929.101 506.264 929.618 506.372 930.072 506.587C930.527 506.799 930.893 507.098 931.171 507.482C931.453 507.867 931.62 508.316 931.673 508.83H930.227C930.147 508.472 929.965 508.163 929.68 507.905C929.398 507.646 929.02 507.517 928.546 507.517C928.132 507.517 927.769 507.626 927.457 507.845C927.149 508.061 926.909 508.369 926.737 508.77C926.564 509.168 926.478 509.638 926.478 510.182C926.478 510.739 926.563 511.219 926.732 511.624C926.901 512.028 927.139 512.341 927.447 512.563C927.759 512.785 928.125 512.896 928.546 512.896C928.828 512.896 929.083 512.845 929.312 512.742C929.544 512.636 929.738 512.485 929.893 512.29C930.053 512.094 930.164 511.859 930.227 511.584H931.673C931.62 512.078 931.46 512.518 931.191 512.906C930.923 513.294 930.563 513.599 930.112 513.821C929.665 514.043 929.139 514.154 928.536 514.154Z" fill="black"/>
<path d="M529.979 514H528.348L532.012 503.818H533.787L537.451 514H535.82L532.942 505.668H532.862L529.979 514ZM530.252 510.013H535.542V511.305H530.252V510.013ZM543.639 510.833V506.364H545.131V514H543.669V512.678H543.59C543.414 513.085 543.132 513.425 542.744 513.697C542.36 513.965 541.881 514.099 541.308 514.099C540.817 514.099 540.383 513.992 540.005 513.776C539.631 513.558 539.336 513.234 539.12 512.807C538.908 512.379 538.802 511.851 538.802 511.221V506.364H540.289V511.042C540.289 511.562 540.433 511.977 540.721 512.285C541.009 512.593 541.384 512.747 541.845 512.747C542.123 512.747 542.4 512.678 542.675 512.538C542.953 512.399 543.184 512.189 543.366 511.907C543.552 511.625 543.643 511.267 543.639 510.833ZM550.33 517.008C549.723 517.008 549.201 516.928 548.764 516.769C548.33 516.61 547.975 516.4 547.7 516.138C547.425 515.879 547.219 515.598 547.083 515.293L548.361 514.766C548.451 514.905 548.57 515.056 548.719 515.218C548.872 515.38 549.077 515.52 549.336 515.636C549.597 515.752 549.934 515.81 550.345 515.81C550.908 515.81 551.374 515.674 551.742 515.402C552.11 515.13 552.294 514.699 552.294 514.109V512.608H552.199C552.11 512.77 551.98 512.951 551.811 513.15C551.646 513.349 551.417 513.521 551.125 513.667C550.834 513.813 550.454 513.886 549.987 513.886C549.384 513.886 548.84 513.745 548.356 513.463C547.876 513.178 547.494 512.759 547.213 512.205C546.934 511.648 546.795 510.964 546.795 510.152C546.795 509.34 546.933 508.644 547.208 508.064C547.486 507.484 547.867 507.04 548.351 506.732C548.835 506.42 549.384 506.264 549.997 506.264C550.471 506.264 550.854 506.344 551.145 506.503C551.437 506.659 551.664 506.841 551.826 507.05C551.992 507.259 552.12 507.442 552.209 507.602H552.319V506.364H553.775V514.169C553.775 514.819 553.623 515.352 553.318 515.77C553.013 516.191 552.6 516.502 552.08 516.705C551.563 516.907 550.98 517.008 550.33 517.008ZM550.315 512.653C550.743 512.653 551.104 512.553 551.399 512.354C551.697 512.152 551.922 511.864 552.075 511.489C552.231 511.112 552.309 510.659 552.309 510.132C552.309 509.618 552.232 509.166 552.08 508.775C551.927 508.384 551.704 508.079 551.409 507.86C551.114 507.638 550.749 507.527 550.315 507.527C549.868 507.527 549.495 507.643 549.196 507.875C548.898 508.104 548.673 508.415 548.52 508.81C548.371 509.204 548.297 509.645 548.297 510.132C548.297 510.633 548.373 511.072 548.525 511.45C548.678 511.827 548.903 512.122 549.201 512.335C549.503 512.547 549.874 512.653 550.315 512.653Z" fill="black"/>
<path d="M2.5 331C15.5 308.333 50 257.4 84 235C126.5 207 173.5 189 222 260C270.5 331 286 365 360 385.5C434 406 519 349 591 340C663 331 754 385.5 816.5 385.5C846.102 385.5 903 350.5 942.5 285" stroke="#D93E69" stroke-width="4"/>
</svg>
